<?xml version="1.0" encoding="UTF-8" standalone="no"?>
<!-- Generator: Adobe Illustrator 16.0.0, SVG Export Plug-In . SVG Version: 6.00 Build 0)  -->

<svg
   xmlns:dc="http://purl.org/dc/elements/1.1/"
   xmlns:cc="http://creativecommons.org/ns#"
   xmlns:rdf="http://www.w3.org/1999/02/22-rdf-syntax-ns#"
   xmlns:svg="http://www.w3.org/2000/svg"
   xmlns="http://www.w3.org/2000/svg"
   xmlns:sodipodi="http://sodipodi.sourceforge.net/DTD/sodipodi-0.dtd"
   xmlns:inkscape="http://www.inkscape.org/namespaces/inkscape"
   version="1.1"
   id="Capa_1"
   x="0px"
   y="0px"
   width="587.029px"
   height="587.028px"
   viewBox="0 0 587.029 587.028"
   style="enable-background:new 0 0 587.029 587.028;"
   xml:space="preserve"
   sodipodi:docname="n64.svg"
   inkscape:version="1.0.2 (e86c870879, 2021-01-15, custom)"><metadata
     id="metadata71"><rdf:RDF><cc:Work
         rdf:about=""><dc:format>image/svg+xml</dc:format><dc:type
           rdf:resource="http://purl.org/dc/dcmitype/StillImage" /><dc:title></dc:title></cc:Work></rdf:RDF></metadata><defs
     id="defs69" /><sodipodi:namedview
     pagecolor="#ffffff"
     bordercolor="#666666"
     borderopacity="1"
     objecttolerance="10"
     gridtolerance="10"
     guidetolerance="10"
     inkscape:pageopacity="0"
     inkscape:pageshadow="2"
     inkscape:window-width="2560"
     inkscape:window-height="1360"
     id="namedview67"
     showgrid="false"
     inkscape:zoom="1.5021831"
     inkscape:cx="153.82932"
     inkscape:cy="294.85602"
     inkscape:window-x="-11"
     inkscape:window-y="-11"
     inkscape:window-maximized="1"
     inkscape:current-layer="layer3"
     inkscape:document-rotation="0" /><g
     inkscape:groupmode="layer"
     id="layer2"
     inkscape:label="Layer 2"
     style="display:inline"><g
       id="g34"
       transform="translate(31.44793,-25.624238)"><g
         id="g32"><path
           d="M 535.017,94.319 V 76.351 C 498.082,47.403 414.734,45.904 414.734,45.904 L 410.249,38.921 C 358.822,7.77 294.703,9.93 293.516,9.973 292.335,9.93 228.209,7.77 176.789,38.92 L 172.297,45.909 C 172.297,45.909 88.949,47.409 52.015,76.356 V 94.325 C 52.015,94.325 10.925,130.592 10.925,175.843 10.925,221.094 -19.687,364.168 21.574,442.687 62.829,521.201 99.427,381.457 103.423,355.507 107.42,329.559 121.391,297.612 130.039,292.955 130.039,292.955 206.563,287.63 209.893,347.52 213.216,407.374 234.82,574.223 293.462,577.087 V 577.1 C 293.481,577.1 293.498,577.093 293.517,577.093 293.536,577.093 293.554,577.1 293.573,577.1 V 577.087 C 352.214,574.217 373.818,407.367 377.141,347.52 380.47,287.63 456.995,292.955 456.995,292.955 465.648,297.612 479.621,329.552 483.611,355.507 487.601,381.462 524.205,521.206 565.46,442.681 606.715,364.155 576.108,221.088 576.108,175.837 576.113,130.586 535.017,94.319 535.017,94.319 Z"
           id="body"
           style="fill:#cacaca"
           sodipodi:nodetypes="cccccccccsccccccsccccsccc" /><path
           d="M 402.372,186.217 C 391.399,186.217 382.476,195.14 382.476,206.113 382.476,217.086 391.399,226.015 402.372,226.015 413.339,226.015 422.268,217.086 422.268,206.113 422.268,195.14 413.345,186.217 402.372,186.217 Z"
           id="green_button"
           style="fill:#13c686" /><path
           d="M 440.303,228.139 C 429.33,228.139 420.407,237.062 420.407,248.035 420.407,259.008 429.33,267.931 440.303,267.931 451.271,267.931 460.199,259.008 460.199,248.035 460.199,237.062 451.277,228.139 440.303,228.139 Z"
           id="blue_button"
           style="fill:#2477ca" /><circle
           style="fill:none;fill-opacity:1;stroke:#939191;stroke-width:1.82632;stroke-linecap:round;stroke-linejoin:round;stroke-miterlimit:4;stroke-dasharray:none;stroke-opacity:1"
           id="button_circle"
           cx="485.09622"
           cy="169.55139"
           r="37.157997" /><circle
           cx="485.224"
           cy="202.618"
           r="13.905"
           id="yellow_1"
           style="fill:#f4c900" /><circle
           cx="519.15997"
           cy="168.683"
           r="13.911"
           id="yellow_2"
           style="fill:#f4c900" /><path
           d="M 293.516,268.506 C 262.243,268.506 236.796,293.953 236.796,325.232 236.796,356.511 262.243,381.953 293.516,381.953 324.789,381.953 350.236,356.512 350.236,325.232 350.236,293.952 324.794,268.506 293.516,268.506 Z M 293.516,355.796 C 276.662,355.796 262.953,342.087 262.953,325.233 262.953,308.379 276.661,294.67 293.516,294.67 310.37,294.67 324.079,308.379 324.079,325.233 324.079,342.087 310.37,355.796 293.516,355.796 Z"
           id="analog_base"
           style="fill:#000000" /><circle
           cx="451.28299"
           cy="168.683"
           r="13.911"
           id="yellow_3"
           style="fill:#f4c900" /><path
           d="M 293.516,300.783 C 280.04,300.783 269.073,311.75 269.073,325.226 269.073,338.702 280.04,349.669 293.516,349.669 306.992,349.669 317.959,338.702 317.959,325.226 317.959,311.75 306.992,300.783 293.516,300.783 Z"
           id="analog"
           style="fill:#fefefe" /><circle
           cx="485.224"
           cy="134.748"
           r="13.905"
           id="yellow_4"
           style="fill:#f4c900" /><path
           d="M 151.997,173.903 H 123.979 V 145.892 C 123.979,144.276 122.663,142.96 121.048,142.96 H 105.081 C 103.465,142.96 102.149,144.276 102.149,145.892 V 173.903 H 74.132 C 72.516,173.903 71.2,175.219 71.2,176.835 V 192.802 C 71.2,194.424 72.516,195.734 74.132,195.734 H 102.149 V 223.745 C 102.149,225.361 103.465,226.676 105.081,226.676 H 121.048 C 122.663,226.676 123.979,225.361 123.979,223.745 V 195.734 H 151.997 C 153.613,195.734 154.928,194.418 154.928,192.802 V 176.835 C 154.928,175.219 153.613,173.903 151.997,173.903 Z"
           id="dpad" /><path
           d="M 313.417,211.101 C 313.417,200.128 304.494,191.205 293.521,191.205 282.548,191.205 273.625,200.128 273.625,211.101 273.625,222.074 282.548,231.003 293.521,231.003 304.495,231.003 313.417,222.074 313.417,211.101 Z"
           id="red_button"
           style="fill:#d27070" /><g
           aria-label="Nintendo"
           id="text848"
           style="font-style:normal;font-variant:normal;font-weight:normal;font-stretch:normal;font-size:24px;line-height:1.25;font-family:Pretendo;-inkscape-font-specification:'Pretendo, Normal';font-variant-ligatures:normal;font-variant-caps:normal;font-variant-numeric:normal;font-variant-east-asian:normal"><path
             d="M 233.85809,71.528923 H 235.85028 236.95184 238.06512 239.16669 238.06512 239.16669 L 247.42841,84.208611 V 71.528923 H 249.63153 250.74481 251.84637 252.94794 251.84637 252.94794 V 73.732048 74.833611 77.587517 78.689079 80.341423 81.454704 83.646111 85.310173 87.513298 88.614861 90.267204 H 250.19403 249.09247 247.99091 247.76825 L 239.16669,76.497673 V 80.341423 81.454704 84.208611 85.310173 86.962517 88.614861 90.267204 H 236.41278 235.2995 234.19794 233.85809 Z"
             style="font-style:normal;font-variant:normal;font-weight:normal;font-stretch:normal;font-size:24px;font-family:Pretendo;-inkscape-font-specification:'Pretendo, Normal';font-variant-ligatures:normal;font-variant-caps:normal;font-variant-numeric:normal;font-variant-east-asian:normal;fill:#939191;fill-opacity:1"
             id="path854" /><path
             d="M 254.41278,71.646111 H 257.19012 258.30341 259.41669 260.52997 259.41669 260.52997 V 74.423454 75.536736 74.423454 75.536736 H 257.75262 256.63934 255.52606 254.41278 255.52606 254.41278 V 71.646111 72.759392 Z M 254.41278,77.763298 H 256.63934 257.75262 258.86591 259.97919 258.86591 260.56512 L 260.54169,90.314079 V 90.314079 H 257.76434 256.65106 255.53778 254.4245 255.53778 254.4245 Z"
             style="font-style:normal;font-variant:normal;font-weight:normal;font-stretch:normal;font-size:24px;font-family:Pretendo;-inkscape-font-specification:'Pretendo, Normal';font-variant-ligatures:normal;font-variant-caps:normal;font-variant-numeric:normal;font-variant-east-asian:normal;fill:#939191;fill-opacity:1"
             id="path856" /><path
             d="M 268.17059,78.946892 Q 270.04559,77.118767 272.60028,76.837517 278.69403,76.345329 278.84637,81.314079 V 81.876579 81.595329 81.314079 82.439079 81.876579 82.439079 85.239861 86.364861 87.489861 88.614861 90.302361 H 276.60809 275.48309 274.35809 273.23309 274.35809 273.23309 V 81.314079 Q 273.24481,79.544548 270.77216,79.345329 269.02606,79.216423 268.15887,80.751579 V 83.001579 84.114861 86.927361 88.052361 90.302361 H 265.35809 264.23309 263.10809 262.45184 V 77.376579 H 264.23309 265.35809 266.48309 267.59637 266.48309 268.18231 Z"
             style="font-style:normal;font-variant:normal;font-weight:normal;font-stretch:normal;font-size:24px;font-family:Pretendo;-inkscape-font-specification:'Pretendo, Normal';font-variant-ligatures:normal;font-variant-caps:normal;font-variant-numeric:normal;font-variant-east-asian:normal;fill:#939191;fill-opacity:1"
             id="path858" /><path
             d="M 283.74481,73.778923 H 289.05341 V 76.439079 H 291.1745 292.24091 291.1745 292.24091 V 78.571892 H 290.11981 289.05341 V 80.692986 81.759392 83.892204 84.958611 87.618767 88.685173 90.278923 H 286.93231 285.86591 284.81122 283.74481 284.81122 283.74481 V 78.571892 H 280.55731 V 76.439079 H 282.67841 283.74481 Z"
             style="font-style:normal;font-variant:normal;font-weight:normal;font-stretch:normal;font-size:24px;font-family:Pretendo;-inkscape-font-specification:'Pretendo, Normal';font-variant-ligatures:normal;font-variant-caps:normal;font-variant-numeric:normal;font-variant-east-asian:normal;fill:#939191;fill-opacity:1"
             id="path860" /><path
             d="M 293.02606,83.435173 Q 293.89325,77.247673 300.35028,76.954704 307.27606,77.165642 307.60419,83.575798 H 305.95184 304.93231 302.38934 301.36981 299.84637 298.32294 Q 298.21747,87.829704 299.35419,88.392204 300.49091,88.942986 301.60419,88.251579 302.74091,87.560173 302.50653,85.099236 H 304.42841 305.44794 306.46747 307.487 306.46747 307.487 Q 306.44403,89.306267 303.10419,90.021111 299.76434,90.735954 296.83466,89.599236 293.91669,88.450798 293.03778,84.349236 Z M 300.42059,78.384392 Q 298.38153,78.489861 298.32294,81.536736 H 300.35028 301.36981 302.38934 Q 302.36591,78.630486 300.42059,78.384392 Z"
             style="font-style:normal;font-variant:normal;font-weight:normal;font-stretch:normal;font-size:24px;font-family:Pretendo;-inkscape-font-specification:'Pretendo, Normal';font-variant-ligatures:normal;font-variant-caps:normal;font-variant-numeric:normal;font-variant-east-asian:normal;fill:#939191;fill-opacity:1"
             id="path862" /><path
             d="M 314.20184,78.946892 Q 316.07684,77.118767 318.63153,76.837517 324.72528,76.345329 324.87762,81.314079 V 81.876579 81.595329 81.314079 82.439079 81.876579 82.439079 85.239861 86.364861 87.489861 88.614861 90.302361 H 322.63934 321.51434 320.38934 319.26434 320.38934 319.26434 V 81.314079 Q 319.27606,79.544548 316.80341,79.345329 315.05731,79.216423 314.19012,80.751579 V 83.001579 84.114861 86.927361 88.052361 90.302361 H 311.38934 310.26434 309.13934 308.48309 V 77.376579 H 310.26434 311.38934 312.51434 313.62762 312.51434 314.21356 Z"
             style="font-style:normal;font-variant:normal;font-weight:normal;font-stretch:normal;font-size:24px;font-family:Pretendo;-inkscape-font-specification:'Pretendo, Normal';font-variant-ligatures:normal;font-variant-caps:normal;font-variant-numeric:normal;font-variant-east-asian:normal;fill:#939191;fill-opacity:1"
             id="path864" /><path
             d="M 336.78387,70.989861 H 338.987 340.07684 341.17841 342.27997 341.17841 342.27997 V 73.192986 74.282829 77.025017 78.126579 79.767204 80.868767 83.060173 84.712517 86.903923 88.005486 90.325798 H 336.77216 L 336.76044,89.880486 Q 336.11591,90.384392 332.83466,90.267204 329.48309,90.196892 327.91278,88.134392 326.34247,86.060173 326.54169,83.634392 326.57684,81.407829 327.79559,79.591423 329.01434,77.775017 332.45966,76.907829 335.72919,76.685173 336.78387,77.575798 Z M 334.73309,78.384392 Q 332.52997,78.478142 332.44794,81.794548 V 85.333611 Q 332.62372,88.591423 334.77997,88.743767 336.88934,88.521111 336.85419,86.857048 V 80.681267 Q 337.01825,78.583611 334.73309,78.384392 Z"
             style="font-style:normal;font-variant:normal;font-weight:normal;font-stretch:normal;font-size:24px;font-family:Pretendo;-inkscape-font-specification:'Pretendo, Normal';font-variant-ligatures:normal;font-variant-caps:normal;font-variant-numeric:normal;font-variant-east-asian:normal;fill:#939191;fill-opacity:1"
             id="path866" /><path
             d="M 343.34637,83.142204 Q 343.65106,79.638298 345.74872,78.243767 347.84637,76.849236 350.78778,76.942986 H 351.65497 Q 354.86591,77.107048 356.67059,78.653923 358.47528,80.189079 358.72137,83.107048 358.80341,86.728142 356.70575,88.357048 354.61981,89.962517 351.61981,90.267204 H 350.71747 Q 346.862,89.974236 345.15106,88.251579 343.45184,86.552361 343.34637,83.142204 Z M 351.04559,78.571892 Q 348.71356,78.642204 348.65497,81.618767 V 85.532829 Q 348.81903,88.439079 351.09247,88.591423 353.34247,88.380486 353.29559,85.462517 V 81.665642 Q 353.237,78.595329 351.04559,78.571892 Z"
             style="font-style:normal;font-variant:normal;font-weight:normal;font-stretch:normal;font-size:24px;font-family:Pretendo;-inkscape-font-specification:'Pretendo, Normal';font-variant-ligatures:normal;font-variant-caps:normal;font-variant-numeric:normal;font-variant-east-asian:normal;fill:#939191;fill-opacity:1"
             id="path868" /></g><path
           id="rect852"
           style="fill:none;fill-opacity:1;stroke:#939191;stroke-width:1.966;stroke-linecap:round;stroke-linejoin:round;stroke-miterlimit:4;stroke-dasharray:none;stroke-opacity:1"
           d="M 235.84648,67.420776 H 355.36719 C 362.14247,67.420776 367.59694,72.875243 367.59694,79.650522 V 83.98321 C 367.59694,90.758489 362.14247,96.212955 355.36719,96.212955 H 235.84648 C 229.0712,96.212955 223.61673,90.758489 223.61673,83.98321 V 79.650522 C 223.61673,72.875243 229.0712,67.420776 235.84648,67.420776 Z" /></g></g><path
       style="fill:#1d2300;stroke:#000000;stroke-width:1px;stroke-linecap:butt;stroke-linejoin:miter;stroke-opacity:1;fill-opacity:1"
       d="M 83.46293,68.700762 C 97.844041,47.806892 132.76683,34.023601 203.79405,32.738 L 203.74493,20.284762 C 161.9302,25.271567 119.01249,26.94944 83.46293,50.731762 Z"
       id="path987"
       sodipodi:nodetypes="ccccc" /><path
       style="display:inline;fill:#1d2300;fill-opacity:1;stroke:#000000;stroke-width:1.0009px;stroke-linecap:butt;stroke-linejoin:miter;stroke-opacity:1"
       d="M 566.46279,68.783732 C 552.08181,47.851902 517.15936,34.043562 446.13282,32.755632 L 446.18193,20.279762 C 487.99627,25.275632 530.91357,26.956552 566.46279,50.782082 Z"
       id="path987-6"
       sodipodi:nodetypes="ccccc" /><path
       style="fill:#8a8a88;stroke:none;stroke-width:1px;stroke-linecap:butt;stroke-linejoin:miter;stroke-opacity:1;fill-opacity:1"
       d="M 161.48693,267.33076 C 145.92003,280.32431 144.47385,296.9647 134.2258,326.56155 127.53867,364.44721 120.62532,388.84451 108.85385,410.04345 97.985616,432.78966 87.327903,441.76002 77.752749,441.963 60.545803,437.05067 49.341225,412.67805 42.5594,390.40065 30.532447,355.32563 34.078475,314.02143 31.91955,274.9992 L 41.74095,173.5114 C 69.416485,225.59252 67.501745,257.93573 161.48693,267.33076 Z"
       id="path1009"
       sodipodi:nodetypes="cccccccc" /><path
       style="display:inline;fill:#8a8a88;fill-opacity:1;stroke:none;stroke-width:0.999228px;stroke-linecap:butt;stroke-linejoin:miter;stroke-opacity:1"
       d="M 488.26214,267.35198 C 503.80589,280.34482 505.24991,296.98429 515.48272,326.57951 522.15991,364.46308 529.06298,388.85903 540.81695,410.0568 551.66903,432.80176 562.31089,441.77161 571.8718,441.97459 589.05316,437.06252 600.24108,412.69125 607.01282,390.41508 619.02188,355.342 615.48113,314.04008 617.63685,275.02 L 607.83005,173.53781 C 580.19567,225.61605 582.10757,257.95747 488.26214,267.35198 Z"
       id="path1009-7"
       sodipodi:nodetypes="cccccccc" /></g><g
     inkscape:groupmode="layer"
     id="layer3"
     inkscape:label="Layer 3" /></svg>
