<?xml version="1.0" encoding="UTF-8" standalone="no"?>
<!-- Generator: Adobe Illustrator 16.0.0, SVG Export Plug-In . SVG Version: 6.00 Build 0)  -->

<svg
   xmlns:dc="http://purl.org/dc/elements/1.1/"
   xmlns:cc="http://creativecommons.org/ns#"
   xmlns:rdf="http://www.w3.org/1999/02/22-rdf-syntax-ns#"
   xmlns:svg="http://www.w3.org/2000/svg"
   xmlns="http://www.w3.org/2000/svg"
   xmlns:sodipodi="http://sodipodi.sourceforge.net/DTD/sodipodi-0.dtd"
   xmlns:inkscape="http://www.inkscape.org/namespaces/inkscape"
   version="1.1"
   id="Capa_1"
   x="0px"
   y="0px"
   width="563.143px"
   height="563.143px"
   viewBox="0 0 563.143 563.143"
   style="enable-background:new 0 0 563.143 563.143;"
   xml:space="preserve"
   sodipodi:docname="ps4.svg"
   inkscape:version="1.0.2 (e86c870879, 2021-01-15, custom)"><metadata
     id="metadata71"><rdf:RDF><cc:Work
         rdf:about=""><dc:format>image/svg+xml</dc:format><dc:type
           rdf:resource="http://purl.org/dc/dcmitype/StillImage" /></cc:Work></rdf:RDF></metadata><defs
     id="defs69" /><sodipodi:namedview
     pagecolor="#ffffff"
     bordercolor="#666666"
     borderopacity="1"
     objecttolerance="10"
     gridtolerance="10"
     guidetolerance="10"
     inkscape:pageopacity="0"
     inkscape:pageshadow="2"
     inkscape:window-width="2560"
     inkscape:window-height="1360"
     id="namedview67"
     showgrid="false"
     inkscape:zoom="1.7899539"
     inkscape:cx="281.5715"
     inkscape:cy="281.5715"
     inkscape:window-x="-11"
     inkscape:window-y="-11"
     inkscape:window-maximized="1"
     inkscape:current-layer="Capa_1" /><g
     id="g34"
     transform="translate(12.29082,29.609702)"
     style="fill:#18191E;fill-opacity:1"><g
       id="g32"><rect
         style="fill:#18191E;stroke:#000000;stroke-width:2.94885;stroke-linecap:round;stroke-linejoin:round"
         id="block"
         width="110.78697"
         height="91.944122"
         x="222.54665"
         y="230.7747" /><path
         d="M 165.441,162.024 C 168.158,162.024 170.368,159.814 170.368,157.097 V 143.688 C 170.368,140.977 168.159,138.761 165.441,138.761 162.723,138.761 160.514,140.971 160.514,143.688 V 157.097 C 160.515,159.814 162.724,162.024 165.441,162.024 Z"
         id="path10" /><path
         d="M 396.691,162.024 C 399.409,162.024 401.618,159.814 401.618,157.097 V 143.688 C 401.618,140.977 399.409,138.761 396.691,138.761 393.974,138.761 391.764,140.971 391.764,143.688 V 157.097 C 391.765,159.814 393.975,162.024 396.691,162.024 Z"
         id="path14" /><circle
         cx="456.57599"
         cy="242.392"
         r="16.719999"
         id="circle16" /><circle
         cx="495.81201"
         cy="203.157"
         r="16.719999"
         id="circle18" /><path
         d="M 497.029,126.761 C 495.756,124.809 493.277,123.162 490.003,121.791 V 116.699 C 490.003,116.699 460.891,97.054 422.268,113.027 422.268,113.027 421.043,114.074 420.566,119.484 418.136,120.028 416.025,120.64 414.312,121.332 406.808,124.368 402.016,123.566 402.016,123.566 H 375.884 C 376.832,125.597 377.402,127.837 377.402,130.224 V 211.081 C 377.402,219.814 370.297,226.92 361.563,226.92 H 200.576 C 191.843,226.92 184.738,219.815 184.738,211.081 V 130.224 C 184.738,127.837 185.307,125.597 186.256,123.566 H 161.128 C 161.128,123.566 156.336,124.361 148.833,121.332 147.113,120.641 145.008,120.022 142.579,119.484 142.101,114.074 140.877,113.027 140.877,113.027 102.254,97.06 73.141,116.699 73.141,116.699 V 121.791 C 69.861,123.162 67.388,124.809 66.115,126.761 66.115,126.761 41.843,163.175 34.811,188.089 27.778,213.004 -6.072,352.9 0.954,406.561 7.98,460.222 89.113,473.636 110.19,431.476 131.273,389.315 145.325,338.206 145.325,338.206 145.325,338.206 153.63,332.136 155.546,332.136 155.546,332.136 191.317,361.842 229.965,329.577 H 333.179 C 371.826,361.836 407.598,332.136 407.598,332.136 409.513,332.136 417.819,338.206 417.819,338.206 417.819,338.206 431.87,389.314 452.954,431.476 474.037,473.636 555.164,460.221 562.189,406.561 569.215,352.901 535.359,213.004 528.334,188.089 521.307,163.175 497.029,126.761 497.029,126.761 Z M 154.395,143.688 C 154.395,137.599 159.353,132.641 165.442,132.641 171.531,132.641 176.488,137.599 176.488,143.688 V 157.097 C 176.488,163.186 171.531,168.144 165.442,168.144 159.353,168.144 154.395,163.186 154.395,157.097 Z M 86.053,165.824 C 86.702,156.608 99.101,156.601 104.388,156.595 109.725,156.601 122.112,156.608 122.773,165.824 123.085,170.157 121.604,184.778 119.584,188.811 117.883,192.226 109.951,198.114 106.402,200.634 106.163,200.83 105.894,201.001 105.606,201.124 105.221,201.277 104.816,201.356 104.419,201.356 104.382,201.356 104.345,201.356 104.303,201.356 103.905,201.343 103.501,201.252 103.128,201.081 102.865,200.952 102.62,200.806 102.412,200.622 98.85,198.095 90.949,192.226 89.248,188.81 87.228,184.784 85.741,170.164 86.053,165.824 Z M 65.116,223.481 C 55.899,222.826 55.893,210.433 55.893,205.139 55.893,199.802 55.899,187.415 65.122,186.754 65.568,186.724 66.113,186.705 66.713,186.705 71.817,186.705 84.357,188.076 88.109,189.942 91.347,191.558 96.836,198.797 99.915,203.113 100.056,203.272 100.178,203.456 100.282,203.645 100.564,204.177 100.686,204.777 100.643,205.352 100.619,205.719 100.521,206.075 100.368,206.423 100.246,206.686 100.087,206.925 99.903,207.139 96.806,211.466 91.341,218.675 88.11,220.279 84.383,222.152 71.837,223.516 66.727,223.516 66.114,223.53 65.575,223.512 65.116,223.481 Z M 122.779,244.411 C 122.124,253.628 109.731,253.635 104.437,253.64 V 253.64 H 104.419 C 99.101,253.634 86.708,253.627 86.059,244.411 85.747,240.078 87.227,225.452 89.247,221.425 90.869,218.188 98.102,212.697 102.411,209.619 102.552,209.497 102.699,209.392 102.864,209.301 103.066,209.179 103.281,209.087 103.501,209.02 104.278,208.763 105.141,208.842 105.881,209.228 106.114,209.357 106.322,209.503 106.511,209.675 110.11,212.238 117.907,218.04 119.596,221.419 121.604,225.458 123.085,240.085 122.779,244.411 Z M 152.914,205.464 C 152.933,210.434 152.92,222.826 143.704,223.482 143.251,223.512 142.713,223.531 142.107,223.531 136.997,223.531 124.451,222.16 120.717,220.294 117.094,218.482 110.527,209.418 108.9,207.111 108.729,206.909 108.588,206.688 108.471,206.444 108.422,206.34 108.379,206.242 108.343,206.132 108.08,205.386 108.104,204.547 108.459,203.807 108.594,203.513 108.771,203.256 108.979,203.024 112.082,198.684 117.511,191.554 120.724,189.951 124.463,188.079 137.009,186.714 142.113,186.714 142.719,186.714 143.258,186.733 143.711,186.763 152.891,187.412 152.934,199.726 152.934,205.05 152.938,205.183 152.932,205.323 152.914,205.464 Z M 186.831,316.358 C 168.783,316.358 154.102,301.675 154.102,283.629 154.102,265.581 168.784,250.893 186.831,250.893 204.878,250.893 219.561,265.575 219.561,283.629 219.561,301.67 204.873,316.358 186.831,316.358 Z M 281.066,308.182 C 262.345,308.182 247.112,292.955 247.112,274.229 247.112,255.501 262.344,240.275 281.066,240.275 299.787,240.275 315.02,255.502 315.02,274.229 315.021,292.955 299.787,308.182 281.066,308.182 Z M 456.576,141.081 C 469.171,141.081 479.416,151.326 479.416,163.921 479.416,176.517 469.171,186.761 456.576,186.761 443.98,186.761 433.736,176.517 433.736,163.921 433.736,151.326 443.98,141.081 456.576,141.081 Z M 385.646,143.688 C 385.646,137.599 390.603,132.641 396.692,132.641 402.782,132.641 407.739,137.599 407.739,143.688 V 157.097 C 407.739,163.186 402.782,168.144 396.692,168.144 390.603,168.144 385.646,163.186 385.646,157.097 Z M 370.431,316.358 C 352.383,316.358 337.702,301.675 337.702,283.629 337.702,265.581 352.384,250.893 370.431,250.893 388.478,250.893 403.16,265.575 403.16,283.629 403.16,301.67 388.473,316.358 370.431,316.358 Z M 417.334,225.99 C 404.739,225.99 394.494,215.745 394.494,203.15 394.494,190.555 404.739,180.31 417.334,180.31 429.93,180.31 440.174,190.555 440.174,203.15 440.174,215.745 429.93,225.99 417.334,225.99 Z M 456.576,265.231 C 443.98,265.231 433.736,254.987 433.736,242.391 433.736,229.796 443.98,219.551 456.576,219.551 469.171,219.551 479.416,229.796 479.416,242.391 479.416,254.987 469.165,265.231 456.576,265.231 Z M 495.812,225.99 C 483.216,225.99 472.972,215.745 472.972,203.15 472.972,190.555 483.216,180.31 495.812,180.31 508.407,180.31 518.652,190.555 518.652,203.15 518.652,215.745 508.406,225.99 495.812,225.99 Z"
         id="path20" /><circle
         cx="456.57599"
         cy="163.91499"
         r="16.719999"
         id="circle22" /><circle
         cx="417.33401"
         cy="203.157"
         r="16.719999"
         id="circle24" /><path
         d="M 190.858,130.225 V 211.082 C 190.858,216.443 195.215,220.801 200.576,220.801 H 361.556 C 366.911,220.801 371.275,216.444 371.275,211.082 V 130.225 C 371.275,127.642 370.247,125.311 368.6,123.567 H 193.532 C 191.886,125.304 190.858,127.642 190.858,130.225 Z"
         id="path26" /><path
         d="M 370.431,257.019 C 355.761,257.019 343.822,268.959 343.822,283.635 343.822,298.311 355.761,310.244 370.431,310.244 385.101,310.244 397.04,298.31 397.04,283.635 397.04,268.96 385.101,257.019 370.431,257.019 Z"
         id="path28" /><path
         d="M 186.831,257.019 C 172.162,257.019 160.222,268.959 160.222,283.635 160.222,298.311 172.162,310.244 186.831,310.244 201.501,310.244 213.441,298.31 213.441,283.635 213.441,268.96 201.5,257.019 186.831,257.019 Z"
         id="path30" /><circle
         style="fill:#28292e;stroke:none;stroke-width:2.54546;stroke-linecap:round;stroke-linejoin:round"
         id="ci"
         cx="104.2347"
         cy="206.4299"
         r="56.765305" /><path
         d="M 104.419,215.721 C 98.954,219.736 95.257,223.083 94.719,224.16 93.513,226.565 91.843,239.528 92.161,243.977 92.326,246.321 96.445,247.507 104.401,247.514 L 104.438,250.574 V 247.514 C 112.394,247.507 116.513,246.321 116.678,243.97 116.996,239.521 115.319,226.559 114.12,224.159 113.513,222.961 109.26,219.283 104.419,215.721 Z"
         id="down"
         style="fill:#525359;fill-opacity:1;stroke:#202020;stroke-width:1;" /><path
         d="M 143.275,192.863 C 138.697,192.508 125.766,194.264 123.458,195.421 122.381,195.96 119.027,199.662 115.013,205.121 118.232,209.509 122.124,214.154 123.452,214.815 125.582,215.886 136.561,217.41 142.106,217.41 142.546,217.41 142.938,217.397 143.263,217.373 145.613,217.208 146.806,213.096 146.812,205.14 146.812,204.932 146.836,204.7 146.873,204.497 146.812,197.146 145.619,193.028 143.275,192.863 Z"
         id="right"
         style="fill:#525359;fill-opacity:1;stroke:#202020;stroke-width:1;" /><path
         d="M 85.374,195.421 C 83.238,194.357 72.252,192.826 66.714,192.826 66.274,192.826 65.888,192.838 65.557,192.863 63.207,193.028 62.014,197.14 62.008,205.096 62.014,213.095 63.201,217.207 65.551,217.372 65.887,217.396 66.279,217.409 66.72,217.409 72.259,217.409 83.244,215.886 85.367,214.814 86.45,214.275 89.798,210.579 93.806,205.12 89.792,199.649 86.451,195.96 85.374,195.421 Z"
         id="left"
         style="fill:#525359;fill-opacity:1;stroke:#202020;stroke-width:1;" /><path
         d="M 104.413,194.521 C 109.26,190.959 113.507,187.281 114.113,186.076 115.319,183.664 116.989,170.708 116.671,166.271 116.5,163.915 112.381,162.727 104.431,162.721 96.438,162.727 92.32,163.914 92.154,166.265 91.836,170.72 93.513,183.676 94.712,186.076 95.318,187.281 99.572,190.96 104.413,194.521 Z"
         id="up"
         style="fill:#525359;fill-opacity:1;stroke:#202020;stroke-width:1;" /></g></g><circle
     style="fill:#ffffff;stroke:#ffffff;stroke-width:2.82677;stroke-linecap:round;stroke-linejoin:round"
     id="ps_holder"
     cx="297.77301"
     cy="334.41327"
     r="16.026794" /><path
     d="M 297.67239,318.224 C 288.80224,318.224 281.583,325.44324 281.583,334.31391 281.583,343.18354 288.80224,350.4033 297.67239,350.4033 306.54254,350.4033 313.76178,343.18406 313.76178,334.31391 313.76178,325.44324 306.54306,318.224 297.67239,318.224 Z M 293.54198,340.36293 C 293.53573,340.4749 293.3097,340.63999 293.16909,340.66603 290.62918,341.08943 288.15541,340.81862 285.75872,339.88796 285.55145,339.8088 285.36031,339.68381 285.17856,339.55674 284.26404,338.90991 284.26717,338.05217 285.20095,337.45638 285.60561,337.19806 286.03891,336.9559 286.48835,336.79028 288.79599,335.93931 291.10987,335.11697 293.5451,334.24048 293.5451,335.09458 293.56125,335.88462 293.52583,336.66894 293.51958,336.77726 293.27064,336.91111 293.11128,336.96839 291.83325,337.43659 290.54898,337.87978 289.27408,338.35162 288.97774,338.45995 288.71006,338.6417 288.42622,338.79169 288.43247,338.862 288.43872,338.93491 288.44185,339.00522 288.72256,339.10365 289.00951,339.2979 289.28033,339.27915 290.07089,339.22499 290.86458,339.13229 291.63535,338.96043 292.2603,338.81982 292.85297,338.54275 293.55708,338.29121 293.56125,339.03699 293.57687,339.70308 293.54198,340.36293 Z M 298.73377,326.86188 C 298.64471,327.07176 298.67023,327.33632 298.67023,327.57901 298.66658,332.51874 298.67023,337.46263 298.67023,342.40287 298.67023,342.63879 298.67023,342.87107 298.67023,343.19604 297.21982,342.73722 295.87461,342.31382 294.53305,341.87375 294.42785,341.83885 294.33254,341.67272 294.30025,341.54877 294.25859,341.39201 294.28463,341.21703 294.28463,341.04829 294.29088,335.21228 294.29713,329.37627 294.3039,323.54078 294.3039,323.33663 294.3039,323.13612 294.3039,322.85229 294.7023,322.93197 295.04967,322.97312 295.3809,323.06894 297.2745,323.62359 299.16759,324.17511 301.0513,324.76464 301.54188,324.91776 302.00747,325.1792 302.46317,325.43074 303.94899,326.2562 304.80934,327.5186 305.02287,329.21066 305.16921,330.384 305.22337,331.54694 304.84423,332.69737 304.20366,334.63576 302.41525,335.18364 300.53519,334.28839 300.38833,334.21809 300.2925,333.89623 300.2925,333.69208 300.27375,331.71567 300.29927,329.73978 300.27063,327.76337 300.26386,327.37122 300.15553,326.94469 299.96128,326.60982 299.84306,326.40879 299.45402,326.24995 299.21498,326.2812 299.02385,326.29786 298.82959,326.62909 298.73377,326.86188 Z M 310.06779,336.66894 C 311.08125,337.34128 311.12917,338.15737 310.10893,338.81721 309.47825,339.22812 308.75747,339.52757 308.04711,339.78901 305.32232,340.7931 302.58087,341.76178 299.84618,342.74399 299.72796,342.78514 299.60089,342.81065 299.38736,342.86794 299.38736,342.05811 299.36497,341.3316 299.40611,340.61134 299.416,340.46188 299.6488,340.26085 299.81754,340.20044 301.79343,339.47654 303.77869,338.77919 305.76135,338.06779 306.02279,337.97509 306.29673,337.89228 306.53942,337.75844 306.68576,337.67928 306.78158,337.5095 306.89928,337.37878 306.76179,337.2741 306.63785,337.11109 306.48473,337.07307 305.60824,336.85278 304.74424,336.9611 303.90316,337.25483 302.61836,337.70063 301.34034,338.15997 300.05606,338.61254 299.86805,338.6792 299.6764,338.73649 299.39309,338.82606 299.39309,337.95582 299.38059,337.16578 299.40923,336.37157 299.41236,336.26637 299.60662,336.11325 299.74046,336.07211 303.09645,335.01386 306.41443,335.04875 309.67824,336.44812 309.81625,336.50593 309.94384,336.58613 310.06779,336.66894 Z"
     id="ps"
     style="stroke-width:0.520793" /></svg>
