<?xml version="1.0" encoding="UTF-8"?>
<!DOCTYPE svg PUBLIC "-//W3C//DTD SVG 1.1//EN" "http://www.w3.org/Graphics/SVG/1.1/DTD/svg11.dtd">
<!-- Creator: CorelDRAW 2020 -->
<svg xmlns="http://www.w3.org/2000/svg" xml:space="preserve" width="458.611mm" height="317.5mm" version="1.1" shape-rendering="geometricPrecision" text-rendering="geometricPrecision" image-rendering="optimizeQuality" fill-rule="evenodd" clip-rule="evenodd"
viewBox="0 0 45861.1 31750"
 xmlns:xlink="http://www.w3.org/1999/xlink"
 xmlns:xodm="http://www.corel.com/coreldraw/odm/2003">
 <g id="Ebene_x0020_1">
  <metadata id="CorelCorpID_0Corel-Layer"/>
  <g id="_421839016">
   <g>
    <path fill="#000201" fill-rule="nonzero" d="M13652.5 5568.24l0 -612.74c0,0 -997.69,-408.49 -2325.28,-408.49 -1327.6,0 -2296.11,656.51 -2296.11,656.51l0 539.79 4621.39 -175.07z"/>
   </g>
   <g>
    <path fill="#000201" fill-rule="nonzero" d="M32032.21 5568.24l0 -612.74c0,0 980.05,-408.49 2307.65,-408.49 1327.59,0 2278.46,656.51 2278.46,656.51l0 539.79 -4586.11 -175.07z"/>
   </g>
   <g>
    <g>
     <path fill="#23272A" fill-rule="nonzero" d="M40690.14 23994.08c313.61,-238.95 586.42,-880.54 809.81,-1622.07 -93.91,-1748.11 -480.7,-4061.19 -1005.84,-6995.21 -1010.47,-5645.65 -2887.24,-8861.67 -3543.71,-9627.55 -656.47,-765.88 -1638.72,-611.34 -2229.55,-742.63 -590.82,-131.29 -2686.62,462.27 -3277.44,659.21 -590.82,196.94 -2353.48,5.47 -2353.48,5.47l-6257.28 61.66 -6264.72 -61.66c0,0 -1767,191.47 -2357.82,-5.47 -590.83,-196.94 -2688.79,-790.5 -3279.62,-659.21 -590.82,131.29 -1574.16,-23.25 -2230.63,742.63 -656.46,765.88 -2533.78,3981.9 -3544.25,9627.55 -520.3,2906.96 -904.97,5204.6 -1003.43,6946.91 226.03,761.85 503.81,1426.26 824.21,1670.37 919.11,700.27 2757.31,1444.31 5076.96,1400.54 702.66,-13.26 1316.3,-98.99 1831.3,-211.82 770.9,-2258.59 1206.24,-4917.33 1805.71,-5277.01 656.47,-393.88 624.77,-474.39 827.19,-430.62 202.42,43.77 1006.65,700.26 1980.46,727.61 973.81,27.36 1739.74,-120.36 2144.58,-377.49 404.84,-257.13 653.74,-596.33 746.74,-601.8 48,-2.82 1248.17,-2.73 2377.06,-1.98l0 1.98c0,0 450.58,-0.55 1057.3,-1.13 607.89,0.58 1059.36,1.13 1059.36,1.13l0 -1.98c1128.89,-0.75 2328.98,-0.84 2376.92,1.98 93.01,5.47 341.62,344.67 746.47,601.8 404.84,257.13 1170.85,404.85 2144.66,377.49 973.81,-27.35 1778.08,-683.84 1980.51,-727.61 202.42,-43.77 170.76,36.74 827.23,430.62 599.1,359.46 1034.32,3015.26 1804.37,5273 518.77,114.83 1138.89,202.41 1849.97,215.83 2319.64,43.77 4157.86,-700.27 5076.96,-1400.54z"/>
    </g>
    <g>
     <path fill="#383D43" fill-rule="nonzero" d="M4976.39 23994.08c-320.4,-244.11 -598.18,-908.52 -824.21,-1670.37 -92.75,1641.45 68.52,2790.02 609.89,3490.61 1116,1444.23 1693.76,1808.18 2888.64,2015.34 817.13,141.68 3085.49,347.7 4004.55,-2015.6 79.81,-205.22 156.08,-416.47 229.39,-631.26 -515,112.83 -1128.64,198.56 -1831.3,211.82 -2319.65,43.77 -4157.85,-700.27 -5076.96,-1400.54z"/>
    </g>
    <g>
     <path fill="#383D43" fill-rule="nonzero" d="M37998.61 27829.66c1018.6,-177.77 1772.77,-571.11 2888.77,-2015.34 536.02,-693.67 699.36,-1826.73 612.57,-3442.31 -223.39,741.53 -496.2,1383.12 -809.81,1622.07 -919.1,700.27 -2757.31,1444.31 -5076.95,1400.54 -711.09,-13.42 -1331.2,-101 -1849.97,-215.83 73.73,216.16 150.46,428.77 230.76,635.27 919.06,2363.3 3422.6,2117.18 4004.63,2015.6z"/>
    </g>
   </g>
   <g>
    <path fill="black" fill-rule="nonzero" d="M15407.59 10864.03c0,2441.35 -1979.1,4420.45 -4420.45,4420.45 -2441.35,0 -4420.46,-1979.1 -4420.46,-4420.45 0,-2441.35 1979.11,-4420.45 4420.46,-4420.45 2441.35,0 4420.45,1979.1 4420.45,4420.45z"/>
   </g>
   <g>
    <path fill="black" fill-rule="nonzero" d="M39085.45 10864.03c0,2441.35 -1979.1,4420.45 -4420.45,4420.45 -2441.35,0 -4420.45,-1979.1 -4420.45,-4420.45 0,-2441.35 1979.1,-4420.45 4420.45,-4420.45 2441.35,0 4420.45,1979.1 4420.45,4420.45z"/>
   </g>
   <g>
    <path fill="#31353A" fill-rule="nonzero" d="M20305.83 16444.29c0,1953.89 -1583.94,3537.83 -3537.82,3537.83 -1953.89,0 -3537.82,-1583.94 -3537.82,-3537.83 0,-531.07 117.02,-1034.8 326.67,-1486.84l1809.26 -1762.34c429.85,-185.72 903.85,-288.63 1401.89,-288.63 1953.88,0 3537.82,1583.94 3537.82,3537.81z"/>
    <g>
     <path fill="#020202" fill-rule="nonzero" d="M19197.07 16130.63c0,1297.22 -1051.6,2348.82 -2348.82,2348.82 -1297.22,0 -2348.82,-1051.6 -2348.82,-2348.82 0,-1297.21 1051.6,-2348.81 2348.82,-2348.81 1297.22,0 2348.82,1051.6 2348.82,2348.81z"/>
    </g>
    <g>
     <path fill="#393E42" fill-rule="nonzero" d="M19022 16129.89c0,1200.53 -973.22,2173.76 -2173.75,2173.76 -1200.53,0 -2173.76,-973.23 -2173.76,-2173.76 0,-1200.52 973.23,-2173.74 2173.76,-2173.74 1200.53,0 2173.75,973.22 2173.75,2173.74z"/>
    </g>
    <g>
     <path fill="#31353A" fill-rule="nonzero" d="M18330.25 16129.89c0,818.49 -663.52,1482 -1482,1482 -818.49,0 -1482,-663.51 -1482,-1482 0,-818.47 663.51,-1481.99 1482,-1481.99 818.48,0 1482,663.52 1482,1481.99z"/>
    </g>
   </g>
   <g>
    <path fill="#31353A" fill-rule="nonzero" d="M25346.3 16444.29c0,1953.89 1583.94,3537.83 3537.83,3537.83 1953.88,0 3537.82,-1583.94 3537.82,-3537.83 0,-531.07 -117.02,-1034.8 -326.68,-1486.84l-1809.25 -1762.34c-429.86,-185.72 -903.86,-288.63 -1401.89,-288.63 -1953.89,0 -3537.83,1583.94 -3537.83,3537.81z"/>
    <g>
     <path fill="#020202" fill-rule="nonzero" d="M26455.07 16130.63c0,1297.22 1051.6,2348.82 2348.82,2348.82 1297.22,0 2348.82,-1051.6 2348.82,-2348.82 0,-1297.21 -1051.6,-2348.81 -2348.82,-2348.81 -1297.22,0 -2348.82,1051.6 -2348.82,2348.81z"/>
    </g>
    <g>
     <path fill="#393E42" fill-rule="nonzero" d="M26630.13 16129.89c0,1200.53 973.23,2173.76 2173.76,2173.76 1200.53,0 2173.75,-973.23 2173.75,-2173.76 0,-1200.52 -973.22,-2173.74 -2173.75,-2173.74 -1200.53,0 -2173.76,973.22 -2173.76,2173.74z"/>
    </g>
    <g>
     <path fill="#31353A" fill-rule="nonzero" d="M27321.89 16129.89c0,818.49 663.51,1482 1482,1482 818.48,0 1482,-663.51 1482,-1482 0,-818.47 -663.52,-1481.99 -1482,-1481.99 -818.49,0 -1482,663.52 -1482,1481.99z"/>
    </g>
   </g>
   <g>
    <path fill="#464A55" fill-rule="nonzero" d="M35810.14 8270.84c0,646.6 -524.17,1170.77 -1170.77,1170.77 -646.59,0 -1170.76,-524.17 -1170.76,-1170.77 0,-646.59 524.17,-1170.76 1170.76,-1170.76 646.6,0 1170.77,524.17 1170.77,1170.76z"/>
   </g>
   <g>
    <path fill="#464A55" fill-rule="nonzero" d="M38611.22 10962.51c0,646.59 -524.17,1170.76 -1170.77,1170.76 -646.59,0 -1170.76,-524.17 -1170.76,-1170.76 0,-646.6 524.17,-1170.77 1170.76,-1170.77 646.6,0 1170.77,524.17 1170.77,1170.77z"/>
   </g>
   <g>
    <path fill="#464A55" fill-rule="nonzero" d="M35919.55 13781.82c0,646.6 -524.16,1170.76 -1170.76,1170.76 -646.59,0 -1170.76,-524.16 -1170.76,-1170.76 0,-646.59 524.17,-1170.76 1170.76,-1170.76 646.6,0 1170.76,524.17 1170.76,1170.76z"/>
   </g>
   <g>
    <path fill="#464A55" fill-rule="nonzero" d="M33096.59 10962.51c0,646.59 -524.17,1170.76 -1170.76,1170.76 -646.6,0 -1170.77,-524.17 -1170.77,-1170.76 0,-646.6 524.17,-1170.77 1170.77,-1170.77 646.59,0 1170.76,524.17 1170.76,1170.77z"/>
   </g>
   <g>
    <path fill="#7DFFBA" fill-rule="nonzero" d="M35462.61 8819.45l-1670.07 0 847.69 -1467.64 822.38 1467.64zm-1442.6 -141.11l0 0 1218.55 0 -600.04 -1070.84 -618.51 1070.84z"/>
   </g>
   <g>
    <path fill="none" fill-rule="nonzero" stroke="#FFA14D" stroke-width="105.83" stroke-miterlimit="10" d="M38206.37 10962.51c0,423 -342.91,765.92 -765.92,765.92 -423,0 -765.92,-342.92 -765.92,-765.92 0,-423.01 342.92,-765.92 765.92,-765.92 423.01,0 765.92,342.91 765.92,765.92z"/>
   </g>
   <polygon fill="#1988D3" fill-rule="nonzero" points="35440.77,13186.32 35347.93,13093.49 34759.73,13681.69 34171.53,13093.49 34078.7,13186.32 34666.9,13774.53 34078.7,14362.73 34171.53,14455.56 34759.73,13867.36 35347.93,14455.56 35440.77,14362.73 34852.57,13774.53 "/>
   <g>
    <path fill="#FF91E0" fill-rule="nonzero" d="M32631.94 11712.23l-1446.39 0 0 -1446.39 1446.39 0 0 1446.39zm-1305.28 -141.11l0 0 1199.44 0 0 -1199.45 -1199.44 0 0 1199.45z"/>
   </g>
   <g>
    <g>
     <path fill="#4E525D" fill-rule="nonzero" d="M10301.61 8019.18l1202.9 0c221.87,0 401.73,179.86 401.73,401.73l0 1051.25c0,106.54 -42.32,208.72 -117.66,284.06l-583.03 583.03c-156.88,156.88 -411.24,156.88 -568.13,0l-602.27 -602.27c-73.66,-73.66 -115.82,-173.05 -117.6,-277.21l-17.61 -1032c-3.83,-224.52 177.12,-408.59 401.67,-408.59z"/>
    </g>
    <g>
     <path fill="#4E525D" fill-rule="nonzero" d="M13872.6 10434.19l0 1202.9c0,221.87 -179.86,401.73 -401.73,401.73l-1051.24 0c-106.55,0 -208.73,-42.32 -284.07,-117.66l-583.03 -583.03c-156.88,-156.88 -156.88,-411.24 0,-568.13l602.27 -602.26c73.66,-73.66 173.06,-115.83 277.21,-117.61l1032 -17.61c224.52,-3.83 408.59,177.12 408.59,401.67z"/>
    </g>
    <g>
     <path fill="#4E525D" fill-rule="nonzero" d="M7922.58 11637.09l0 -1202.9c0,-221.87 179.86,-401.73 401.73,-401.73l1051.24 0c106.55,0 208.73,42.32 284.07,117.66l583.02 583.03c156.89,156.88 156.89,411.24 0,568.13l-602.26 602.27c-73.66,73.66 -173.06,115.82 -277.22,117.6l-1032 17.61c-224.51,3.83 -408.58,-177.12 -408.58,-401.67z"/>
    </g>
    <g>
     <path fill="#4E525D" fill-rule="nonzero" d="M11504.51 14045.79l-1202.9 0c-221.87,0 -401.73,-179.86 -401.73,-401.73l0 -1051.24c0,-106.54 42.32,-208.73 117.66,-284.07l583.03 -583.02c156.88,-156.88 411.24,-156.88 568.13,0l602.26 602.27c73.67,73.66 115.83,173.05 117.61,277.21l17.61 1032c3.83,224.52 -177.12,408.58 -401.67,408.58z"/>
    </g>
    <path fill="#4E525D" fill-rule="nonzero" d="M10617.22 7712.82l739.83 0c89.61,0 134.48,-108.34 71.12,-171.71l-369.91 -369.91c-39.28,-39.28 -102.97,-39.28 -142.24,0l-369.92 369.91c-63.36,63.37 -18.48,171.71 71.12,171.71z"/>
    <path fill="#4E525D" fill-rule="nonzero" d="M7629.08 11405.55l0 -739.82c0,-89.61 -108.34,-134.49 -171.7,-71.12l-369.91 369.91c-39.28,39.28 -39.28,102.96 0,142.24l369.91 369.92c63.36,63.36 171.7,18.48 171.7,-71.13z"/>
    <path fill="#4E525D" fill-rule="nonzero" d="M11272.97 14396.1l-739.82 0c-89.61,0 -134.49,108.34 -71.13,171.7l369.92 369.91c39.28,39.28 102.96,39.28 142.24,0l369.91 -369.91c63.37,-63.36 18.49,-171.7 -71.12,-171.7z"/>
    <path fill="#4E525D" fill-rule="nonzero" d="M14345.19 10723.69l0 739.83c0,89.61 108.34,134.48 171.7,71.12l369.92 -369.91c39.27,-39.28 39.27,-102.97 0,-142.25l-369.92 -369.91c-63.36,-63.36 -171.7,-18.49 -171.7,71.12z"/>
   </g>
   <g>
    <g>
     <path fill="#030303" fill-rule="nonzero" d="M23864.8 16421.67c0,592.21 -480.08,1072.29 -1072.28,1072.29 -592.21,0 -1072.29,-480.08 -1072.29,-1072.29 0,-592.2 480.08,-1072.28 1072.29,-1072.28 592.2,0 1072.28,480.08 1072.28,1072.28z"/>
    </g>
    <path fill="#030303" fill-rule="nonzero" d="M21658.04 13689.73c0,95.17 -77.15,172.33 -172.33,172.33 -95.17,0 -172.33,-77.16 -172.33,-172.33 0,-95.18 77.16,-172.33 172.33,-172.33 95.18,0 172.33,77.15 172.33,172.33z"/>
    <path fill="#030303" fill-rule="nonzero" d="M22320.02 13689.73c0,95.17 -77.16,172.33 -172.33,172.33 -95.18,0 -172.34,-77.16 -172.34,-172.33 0,-95.18 77.16,-172.33 172.34,-172.33 95.17,0 172.33,77.15 172.33,172.33z"/>
    <path fill="#030303" fill-rule="nonzero" d="M23003.87 13689.73c0,95.17 -77.15,172.33 -172.33,172.33 -95.17,0 -172.33,-77.16 -172.33,-172.33 0,-95.18 77.16,-172.33 172.33,-172.33 95.18,0 172.33,77.15 172.33,172.33z"/>
    <path fill="#030303" fill-rule="nonzero" d="M23671.31 13689.73c0,95.17 -77.16,172.33 -172.33,172.33 -95.18,0 -172.33,-77.16 -172.33,-172.33 0,-95.18 77.15,-172.33 172.33,-172.33 95.17,0 172.33,77.15 172.33,172.33z"/>
    <path fill="#030303" fill-rule="nonzero" d="M24338.75 13689.73c0,95.17 -77.15,172.33 -172.33,172.33 -95.17,0 -172.33,-77.16 -172.33,-172.33 0,-95.18 77.16,-172.33 172.33,-172.33 95.18,0 172.33,77.15 172.33,172.33z"/>
    <path fill="#030303" fill-rule="nonzero" d="M21975.35 14176.63c0,95.18 -77.15,172.34 -172.33,172.34 -95.17,0 -172.33,-77.16 -172.33,-172.34 0,-95.17 77.16,-172.33 172.33,-172.33 95.18,0 172.33,77.16 172.33,172.33z"/>
    <path fill="#030303" fill-rule="nonzero" d="M22664.68 14176.63c0,95.18 -77.15,172.34 -172.33,172.34 -95.18,0 -172.33,-77.16 -172.33,-172.34 0,-95.17 77.15,-172.33 172.33,-172.33 95.18,0 172.33,77.16 172.33,172.33z"/>
    <path fill="#030303" fill-rule="nonzero" d="M23348.53 14176.63c0,95.18 -77.16,172.34 -172.33,172.34 -95.18,0 -172.33,-77.16 -172.33,-172.34 0,-95.17 77.15,-172.33 172.33,-172.33 95.17,0 172.33,77.16 172.33,172.33z"/>
    <path fill="#030303" fill-rule="nonzero" d="M24037.13 14176.63c0,95.18 -77.16,172.34 -172.33,172.34 -95.18,0 -172.34,-77.16 -172.34,-172.34 0,-95.17 77.16,-172.33 172.34,-172.33 95.17,0 172.33,77.16 172.33,172.33z"/>
    <path fill="#030303" fill-rule="nonzero" d="M22320.02 14663.54c0,95.18 -77.16,172.33 -172.33,172.33 -95.18,0 -172.34,-77.15 -172.34,-172.33 0,-95.18 77.16,-172.33 172.34,-172.33 95.17,0 172.33,77.15 172.33,172.33z"/>
    <path fill="#030303" fill-rule="nonzero" d="M23003.87 14663.54c0,95.18 -77.15,172.33 -172.33,172.33 -95.17,0 -172.33,-77.15 -172.33,-172.33 0,-95.18 77.16,-172.33 172.33,-172.33 95.18,0 172.33,77.15 172.33,172.33z"/>
    <path fill="#030303" fill-rule="nonzero" d="M23693.19 14663.54c0,95.18 -77.15,172.33 -172.33,172.33 -95.17,0 -172.33,-77.15 -172.33,-172.33 0,-95.18 77.16,-172.33 172.33,-172.33 95.18,0 172.33,77.15 172.33,172.33z"/>
   </g>
   <g>
    <path fill="#191A1E" fill-rule="nonzero" d="M28590.27 12286.45l-11517.46 0c-232.84,0 -423.34,-190.5 -423.34,-423.33l0 -5959.08c0,-232.83 190.5,-423.33 423.34,-423.33l11517.46 0c232.83,0 423.33,190.5 423.33,423.33l0 5959.08c0,232.83 -190.5,423.33 -423.33,423.33z"/>
   </g>
   <g>
    <path fill="#4E525E" fill-rule="nonzero" d="M30879.34 8340.14l-407.98 0c-232.83,0 -423.33,-190.5 -423.33,-423.33l0 -1268.73c0,-232.84 190.5,-423.34 423.33,-423.34l407.98 0c232.84,0 423.34,190.5 423.34,423.34l0 1268.73c0,232.83 -190.5,423.33 -423.34,423.33z"/>
   </g>
   <g>
    <path fill="#4E525E" fill-rule="nonzero" d="M15536.38 8484.98l-407.98 0c-232.84,0 -423.34,-190.5 -423.34,-423.34l0 -1268.73c0,-232.83 190.5,-423.33 423.34,-423.33l407.98 0c232.83,0 423.33,190.5 423.33,423.33l0 1268.73c0,232.84 -190.5,423.34 -423.33,423.34z"/>
   </g>
  </g>
 </g>
</svg>
