<?xml version="1.0" encoding="UTF-8" standalone="no"?>
<!-- Created with Inkscape (http://www.inkscape.org/) -->

<svg
   xmlns:dc="http://purl.org/dc/elements/1.1/"
   xmlns:cc="http://creativecommons.org/ns#"
   xmlns:rdf="http://www.w3.org/1999/02/22-rdf-syntax-ns#"
   xmlns:svg="http://www.w3.org/2000/svg"
   xmlns="http://www.w3.org/2000/svg"
   xmlns:xlink="http://www.w3.org/1999/xlink"
   xmlns:sodipodi="http://sodipodi.sourceforge.net/DTD/sodipodi-0.dtd"
   xmlns:inkscape="http://www.inkscape.org/namespaces/inkscape"
   width="1000"
   height="600"
   id="svg2"
   sodipodi:version="0.32"
   inkscape:version="1.0.2 (e86c870879, 2021-01-15, custom)"
   version="1.0"
   sodipodi:docname="snes.svg"
   inkscape:output_extension="org.inkscape.output.svg.inkscape"
   inkscape:export-filename="C:\Users\Admin\Desktop\snes_ink.bmp.png"
   inkscape:export-xdpi="81"
   inkscape:export-ydpi="81"
   style="enable-background:new">
  <sodipodi:namedview
     id="base"
     pagecolor="#7f7f7f"
     bordercolor="#666666"
     borderopacity="1.0"
     gridtolerance="10000"
     guidetolerance="10"
     objecttolerance="10"
     inkscape:pageopacity="0.94901961"
     inkscape:pageshadow="2"
     inkscape:zoom="1.4142136"
     inkscape:cx="635.16108"
     inkscape:cy="248.71367"
     inkscape:document-units="px"
     inkscape:current-layer="layer4"
     showgrid="false"
     width="800px"
     inkscape:showpageshadow="false"
     inkscape:snap-global="false"
     showguides="false"
     inkscape:window-width="2560"
     inkscape:window-height="1360"
     inkscape:window-x="-11"
     inkscape:window-y="-11"
     showborder="false"
     inkscape:document-rotation="0"
     inkscape:window-maximized="1">
    <inkscape:grid
       enabled="true"
       visible="true"
       id="grid3157"
       type="xygrid" />
  </sodipodi:namedview>
  <defs
     id="defs4">
    <linearGradient
       id="linearGradient3566">
      <stop
         style="stop-color:#f0f0ec;stop-opacity:1;"
         offset="0"
         id="stop3568" />
      <stop
         style="stop-color:#babab7;stop-opacity:1;"
         offset="1"
         id="stop3570" />
    </linearGradient>
    <linearGradient
       id="linearGradient4966">
      <stop
         style="stop-color:#00dea5;stop-opacity:1;"
         offset="0"
         id="stop4968" />
      <stop
         style="stop-color:#00f8b9;stop-opacity:1;"
         offset="1"
         id="stop4970" />
    </linearGradient>
    <linearGradient
       id="linearGradient4907">
      <stop
         id="stop4909"
         offset="0"
         style="stop-color:#8d8d8c;stop-opacity:1" />
      <stop
         style="stop-color:#f6f6f4;stop-opacity:1"
         offset="0.25416961"
         id="stop4911" />
      <stop
         id="stop4913"
         offset="1"
         style="stop-color:#f3f3ef;stop-opacity:1;" />
    </linearGradient>
    <linearGradient
       id="linearGradient4899">
      <stop
         id="stop4901"
         offset="0"
         style="stop-color:#dcdcd9;stop-opacity:1;" />
      <stop
         style="stop-color:#f0f0ee;stop-opacity:1;"
         offset="0.65597826"
         id="stop4903" />
      <stop
         id="stop4905"
         offset="1"
         style="stop-color:#f3f3ef;stop-opacity:1;" />
    </linearGradient>
    <linearGradient
       id="linearGradient4887">
      <stop
         style="stop-color:#5b5b5a;stop-opacity:1;"
         offset="0"
         id="stop4889" />
      <stop
         id="stop4897"
         offset="0.31944445"
         style="stop-color:#5d5d5d;stop-opacity:1;" />
      <stop
         style="stop-color:#f9f9f9;stop-opacity:1;"
         offset="1"
         id="stop4891" />
    </linearGradient>
    <linearGradient
       id="linearGradient4841">
      <stop
         style="stop-color:#d3d3d3;stop-opacity:1;"
         offset="0"
         id="stop4843" />
      <stop
         id="stop4849"
         offset="0.53977019"
         style="stop-color:#ededed;stop-opacity:1;" />
      <stop
         style="stop-color:#4d4d4d;stop-opacity:1;"
         offset="1"
         id="stop4845" />
    </linearGradient>
    <linearGradient
       id="linearGradient4831">
      <stop
         style="stop-color:#000000;stop-opacity:1;"
         offset="0"
         id="stop4833" />
      <stop
         id="stop4839"
         offset="0.15277778"
         style="stop-color:#c5c5c5;stop-opacity:0.49803922;" />
      <stop
         style="stop-color:#7c7c7c;stop-opacity:0;"
         offset="1"
         id="stop4835" />
    </linearGradient>
    <linearGradient
       id="linearGradient4821">
      <stop
         id="stop4825"
         offset="0"
         style="stop-color:#adadad;stop-opacity:0" />
      <stop
         style="stop-color:#b0b0ae;stop-opacity:0.36470589;"
         offset="1"
         id="stop4827" />
      <stop
         style="stop-color:#151514;stop-opacity:0.71764708;"
         offset="1"
         id="stop4829" />
    </linearGradient>
    <linearGradient
       id="linearGradient4811">
      <stop
         id="stop4815"
         offset="0"
         style="stop-color:#121212;stop-opacity:0.78899086;" />
      <stop
         style="stop-color:#1e1e1e;stop-opacity:0.78899086;"
         offset="1"
         id="stop4817" />
      <stop
         style="stop-color:#151514;stop-opacity:0.71764708;"
         offset="1"
         id="stop4819" />
    </linearGradient>
    <linearGradient
       id="linearGradient4783">
      <stop
         id="stop4785"
         offset="0"
         style="stop-color:#565655;stop-opacity:1;" />
      <stop
         style="stop-color:#adadad;stop-opacity:0.10588236;"
         offset="0.1918046"
         id="stop4787" />
      <stop
         id="stop4789"
         offset="1"
         style="stop-color:#b0b0ae;stop-opacity:0.36470589;" />
      <stop
         id="stop4791"
         offset="1"
         style="stop-color:#151514;stop-opacity:0.71764708;" />
    </linearGradient>
    <linearGradient
       id="linearGradient4717">
      <stop
         style="stop-color:#2a2d2e;stop-opacity:1;"
         offset="0"
         id="stop4719" />
      <stop
         id="stop4725"
         offset="0.98000002"
         style="stop-color:#d7d6d7;stop-opacity:1;" />
      <stop
         style="stop-color:#000000;stop-opacity:1;"
         offset="0.99000001"
         id="stop4731" />
      <stop
         style="stop-color:#859094;stop-opacity:1;"
         offset="1"
         id="stop4721" />
    </linearGradient>
    <linearGradient
       id="linearGradient4234">
      <stop
         style="stop-color:#8f8f8d;stop-opacity:1;"
         offset="0"
         id="stop4236" />
      <stop
         id="stop4242"
         offset="0.67741656"
         style="stop-color:#737373;stop-opacity:1;" />
      <stop
         style="stop-color:#e1e1df;stop-opacity:1;"
         offset="0.99999994"
         id="stop4244" />
      <stop
         style="stop-color:#151514;stop-opacity:1;"
         offset="1"
         id="stop4238" />
    </linearGradient>
    <linearGradient
       id="linearGradient4218">
      <stop
         style="stop-color:#dcdcd9;stop-opacity:1;"
         offset="0"
         id="stop4220" />
      <stop
         id="stop4226"
         offset="0.78037679"
         style="stop-color:#f0f0ee;stop-opacity:1;" />
      <stop
         style="stop-color:#f3f3ef;stop-opacity:1;"
         offset="1"
         id="stop4222" />
    </linearGradient>
    <linearGradient
       id="linearGradient4154">
      <stop
         style="stop-color:#899194;stop-opacity:1;"
         offset="0"
         id="stop4156" />
      <stop
         id="stop4162"
         offset="1"
         style="stop-color:#5e6667;stop-opacity:1;" />
      <stop
         style="stop-color:#515759;stop-opacity:1;"
         offset="1"
         id="stop4158" />
    </linearGradient>
    <linearGradient
       id="linearGradient4124">
      <stop
         style="stop-color:#303638;stop-opacity:1;"
         offset="0"
         id="stop4126" />
      <stop
         id="stop4132"
         offset="1"
         style="stop-color:#424a4f;stop-opacity:1;" />
    </linearGradient>
    <linearGradient
       id="linearGradient4109">
      <stop
         style="stop-color:#393d3f;stop-opacity:1;"
         offset="0"
         id="stop4111" />
      <stop
         id="stop4117"
         offset="0.3888889"
         style="stop-color:#101112;stop-opacity:1;" />
      <stop
         style="stop-color:#525252;stop-opacity:1;"
         offset="1"
         id="stop4113" />
    </linearGradient>
    <linearGradient
       id="linearGradient4089">
      <stop
         style="stop-color:#f3f3f1;stop-opacity:1;"
         offset="0"
         id="stop4091" />
      <stop
         id="stop4099"
         offset="0.94"
         style="stop-color:#7f7f7e;stop-opacity:1;" />
      <stop
         style="stop-color:#e6e6e3;stop-opacity:1;"
         offset="1"
         id="stop4093" />
    </linearGradient>
    <linearGradient
       id="linearGradient4053">
      <stop
         style="stop-color:#00fdbd;stop-opacity:1;"
         offset="0"
         id="stop4055" />
      <stop
         id="stop4061"
         offset="0.44444445"
         style="stop-color:#00e8ad;stop-opacity:1;" />
      <stop
         style="stop-color:#00d39d;stop-opacity:1;"
         offset="1"
         id="stop4057" />
    </linearGradient>
    <linearGradient
       id="linearGradient4025">
      <stop
         id="stop4051"
         offset="0"
         style="stop-color:#000000;stop-opacity:1;" />
      <stop
         style="stop-color:#dcdcdc;stop-opacity:1;"
         offset="0.3888889"
         id="stop4087" />
      <stop
         id="stop4033"
         offset="1"
         style="stop-color:#eeeee9;stop-opacity:1;" />
    </linearGradient>
    <inkscape:perspective
       id="perspective10"
       inkscape:persp3d-origin="372.04724 : 350.78739 : 1"
       inkscape:vp_z="744.09448 : 526.18109 : 1"
       inkscape:vp_y="0 : 1000 : 0"
       inkscape:vp_x="0 : 526.18109 : 1"
       sodipodi:type="inkscape:persp3d" />
    <filter
       inkscape:collect="always"
       id="filter4689">
      <feGaussianBlur
         inkscape:collect="always"
         stdDeviation="0.27949219"
         id="feGaussianBlur4691" />
    </filter>
    <filter
       inkscape:collect="always"
       id="filter4693">
      <feGaussianBlur
         inkscape:collect="always"
         stdDeviation="0.24269531"
         id="feGaussianBlur4695" />
    </filter>
    <filter
       inkscape:collect="always"
       id="filter4697">
      <feGaussianBlur
         inkscape:collect="always"
         stdDeviation="0.22412109"
         id="feGaussianBlur4699" />
    </filter>
    <filter
       inkscape:collect="always"
       id="filter4701">
      <feGaussianBlur
         inkscape:collect="always"
         stdDeviation="0.22419434"
         id="feGaussianBlur4703" />
    </filter>
    <filter
       inkscape:collect="always"
       id="filter4709">
      <feGaussianBlur
         inkscape:collect="always"
         stdDeviation="0.20661621"
         id="feGaussianBlur4711" />
    </filter>
    <filter
       inkscape:collect="always"
       id="filter4713">
      <feGaussianBlur
         inkscape:collect="always"
         stdDeviation="0.22426758"
         id="feGaussianBlur4715" />
    </filter>
    <radialGradient
       inkscape:collect="always"
       xlink:href="#linearGradient4841"
       id="radialGradient4847"
       cx="245.17468"
       cy="143.66698"
       fx="245.17468"
       fy="143.66698"
       r="104.51264"
       gradientTransform="matrix(1.7645947,-0.297109,7.9491748e-2,0.4721195,-198.87963,148.68252)"
       gradientUnits="userSpaceOnUse" />
    <radialGradient
       inkscape:collect="always"
       xlink:href="#linearGradient4841"
       id="radialGradient4861"
       gradientUnits="userSpaceOnUse"
       gradientTransform="matrix(1.7645947,-0.297109,7.9491748e-2,0.4721195,-198.87963,148.68252)"
       cx="245.17468"
       cy="143.66698"
       fx="245.17468"
       fy="143.66698"
       r="104.51264" />
    <radialGradient
       inkscape:collect="always"
       xlink:href="#linearGradient4154"
       id="radialGradient4864"
       gradientUnits="userSpaceOnUse"
       gradientTransform="matrix(1.7547305,-5.1588377e-3,5.5715772e-4,0.189512,-45.845799,433.35427)"
       cx="63.996368"
       cy="530.88281"
       fx="63.996368"
       fy="530.88281"
       r="32.95863" />
    <linearGradient
       inkscape:collect="always"
       xlink:href="#linearGradient4899"
       id="linearGradient4923"
       x1="140.66206"
       y1="143.66698"
       x2="349.68732"
       y2="143.66698"
       gradientUnits="userSpaceOnUse" />
    <linearGradient
       inkscape:collect="always"
       xlink:href="#linearGradient4899"
       id="linearGradient4931"
       x1="140.66206"
       y1="143.66698"
       x2="349.68732"
       y2="143.66698"
       gradientUnits="userSpaceOnUse" />
    <radialGradient
       inkscape:collect="always"
       xlink:href="#linearGradient4841"
       id="radialGradient4937"
       gradientUnits="userSpaceOnUse"
       gradientTransform="matrix(1.7645947,-0.297109,7.9491748e-2,0.4721195,-198.87963,148.68252)"
       cx="245.17468"
       cy="143.66698"
       fx="245.17468"
       fy="143.66698"
       r="104.51264" />
    <radialGradient
       inkscape:collect="always"
       xlink:href="#linearGradient4841"
       id="radialGradient4952"
       gradientUnits="userSpaceOnUse"
       gradientTransform="matrix(1.7645947,-0.297109,7.9491748e-2,0.4721195,-198.87963,148.68252)"
       cx="245.17468"
       cy="143.66698"
       fx="245.17468"
       fy="143.66698"
       r="104.51264" />
    <linearGradient
       inkscape:collect="always"
       xlink:href="#linearGradient4899"
       id="linearGradient4954"
       gradientUnits="userSpaceOnUse"
       x1="140.66206"
       y1="143.66698"
       x2="349.68732"
       y2="143.66698" />
    <radialGradient
       inkscape:collect="always"
       xlink:href="#linearGradient4841"
       id="radialGradient4960"
       gradientUnits="userSpaceOnUse"
       gradientTransform="matrix(1.7645947,-0.297109,7.9491748e-2,0.4721195,-198.87963,148.68252)"
       cx="245.17468"
       cy="143.66698"
       fx="245.17468"
       fy="143.66698"
       r="104.51264" />
    <linearGradient
       inkscape:collect="always"
       xlink:href="#linearGradient4899"
       id="linearGradient4962"
       gradientUnits="userSpaceOnUse"
       x1="140.66206"
       y1="143.66698"
       x2="349.68732"
       y2="143.66698" />
    <radialGradient
       inkscape:collect="always"
       xlink:href="#linearGradient4841"
       id="radialGradient4964"
       gradientUnits="userSpaceOnUse"
       gradientTransform="matrix(1.7645947,-0.297109,7.9491748e-2,0.4721195,-198.87963,148.68252)"
       cx="245.17468"
       cy="143.66698"
       fx="245.17468"
       fy="143.66698"
       r="104.51264" />
    <inkscape:perspective
       id="perspective5013"
       inkscape:persp3d-origin="148 : 24.639999 : 1"
       inkscape:vp_z="296 : 36.959999 : 1"
       inkscape:vp_y="0 : 1000 : 0"
       inkscape:vp_x="0 : 36.959999 : 1"
       sodipodi:type="inkscape:persp3d" />
    <inkscape:perspective
       id="perspective5084"
       inkscape:persp3d-origin="95 : 45.333333 : 1"
       inkscape:vp_z="190 : 68 : 1"
       inkscape:vp_y="0 : 1000 : 0"
       inkscape:vp_x="0 : 68 : 1"
       sodipodi:type="inkscape:persp3d" />
  </defs>
  <metadata
     id="metadata7">
    <rdf:RDF>
      <cc:Work
         rdf:about="">
        <dc:format>image/svg+xml</dc:format>
        <dc:type
           rdf:resource="http://purl.org/dc/dcmitype/StillImage" />
      </cc:Work>
    </rdf:RDF>
  </metadata>
  <g
     inkscape:groupmode="layer"
     id="layer3"
     inkscape:label="Controller"
     style="display:inline"
     sodipodi:insensitive="true">
    <g
       transform="matrix(-1,0,0,1,1000.3494,-4.5732233)"
       style="display:inline;fill:url(#radialGradient4964);fill-opacity:1;stroke:url(#linearGradient4931);stroke-width:1;stroke-miterlimit:4;stroke-dasharray:none;stroke-opacity:1"
       id="g4851">
      <g
         id="g4943"
         style="fill:url(#radialGradient4960);stroke:url(#linearGradient4962)">
        <g
           transform="matrix(-1,0,0,1,1000.3494,2.1213203)"
           style="display:inline;fill:url(#radialGradient4952);fill-opacity:1;stroke:url(#linearGradient4954);stroke-width:1;stroke-miterlimit:4;stroke-dasharray:none;stroke-opacity:1"
           id="g4762">
          <path
             sodipodi:nodetypes="cssssssssssssccsssssssscc"
             d="M 145.19609,174.21869 C 141.42278,173.49838 140.93022,170.35988 141.23842,165.35798 141.64992,158.67946 142.37797,157.39075 143.93816,155.28302 146.73104,151.51004 151.24723,147.83439 154.10771,145.71651 156.92935,143.62741 159.83538,141.61534 162.84742,139.67751 165.86594,137.73549 168.89255,135.91589 171.9424,134.19343 175.07388,132.42488 178.21787,130.77171 181.39265,129.23166 184.63252,127.66002 187.90227,126.1943 191.19818,124.85745 194.53705,123.50319 197.91569,122.25274 201.32346,121.13612 204.74597,120.01467 208.1938,119.01804 211.69742,118.13294 215.18537,117.2518 218.74023,116.49814 222.32008,115.84791 225.85495,115.20584 229.41373,114.66853 233.04932,114.24839 236.61147,113.83673 240.25135,113.53602 243.92066,113.33437 245.69026,113.23712 315.53648,113.11525 339.86949,113.11525 345.9525,114.49025 352.23994,124.25979 347.55579,130.88479 321.87164,130.88479 248.14707,131.0248 246.27921,131.13652 242.40615,131.36817 238.56416,131.71362 234.80421,132.18652 230.96675,132.66917 227.21036,133.28642 223.47921,134.02402 219.70058,134.771 215.94833,135.63678 212.26671,136.64902 208.56854,137.66581 204.92927,138.81072 201.31671,140.09902 197.71972,141.38177 194.15347,142.81826 190.62921,144.37402 187.15029,145.90976 183.69898,147.59355 180.27921,149.39902 176.92814,151.16821 173.60957,153.06734 170.30421,155.09902 167.08501,157.07775 163.89034,159.16807 160.70421,161.39902 154.89041,165.71706 150.62519,169.41383 145.19609,174.21869 Z"
             style="display:inline;fill:#e6e6e6;fill-opacity:1;fill-rule:evenodd;stroke:none;stroke-width:1;stroke-linecap:butt;stroke-linejoin:miter;stroke-miterlimit:4;stroke-dasharray:none;stroke-opacity:1"
             id="left_trigger" />
        </g>
        <path
           id="right_trigger"
           style="display:inline;fill:#e6e6e6;fill-opacity:1;fill-rule:evenodd;stroke:none;stroke-width:1;stroke-linecap:butt;stroke-linejoin:miter;stroke-miterlimit:4;stroke-dasharray:none;stroke-opacity:1"
           d="M 145.19609,176.34001 C 141.42278,175.6197 140.93022,172.4812 141.23842,167.4793 141.64992,160.80078 142.37797,159.51207 143.93816,157.40434 146.73104,153.63136 151.24723,149.95571 154.10771,147.83783 156.92935,145.74873 159.83538,143.73666 162.84742,141.79883 165.86594,139.85681 168.89255,138.03721 171.9424,136.31475 175.07388,134.5462 178.21787,132.89303 181.39265,131.35298 184.63252,129.78134 187.90227,128.31562 191.19818,126.97877 194.53705,125.62451 197.91569,124.37406 201.32346,123.25744 204.74597,122.13599 208.1938,121.13936 211.69742,120.25426 215.18537,119.37312 218.74023,118.61946 222.32008,117.96923 225.85495,117.32716 229.41373,116.78985 233.04932,116.36971 236.61147,115.95805 240.25135,115.65734 243.92066,115.45569 245.69026,115.35844 315.53648,115.23657 339.86949,115.23657 345.9525,116.61157 352.23994,126.38111 347.55579,133.00611 321.87164,133.00611 248.14707,133.14612 246.27921,133.25784 242.40615,133.48949 238.56416,133.83494 234.80421,134.30784 230.96675,134.79049 227.21036,135.40774 223.47921,136.14534 219.70058,136.89232 215.94833,137.7581 212.26671,138.77034 208.56854,139.78713 204.92927,140.93204 201.31671,142.22034 197.71972,143.50309 194.15347,144.93958 190.62921,146.49534 187.15029,148.03108 183.69898,149.71487 180.27921,151.52034 176.92814,153.28953 173.60957,155.18866 170.30421,157.22034 167.08501,159.19907 163.89034,161.28939 160.70421,163.52034 154.89041,167.83838 150.62519,171.53515 145.19609,176.34001 Z"
           sodipodi:nodetypes="cssssssssssssccsssssssscc" />
      </g>
    </g>
    <path
       id="body"
       d="M 716.44579,130.79902 C 704.94404,130.80117 250.01492,130.91308 246.27921,131.13652 242.40615,131.36817 238.56416,131.71362 234.80421,132.18652 230.96675,132.66917 227.21036,133.28642 223.47921,134.02402 219.70058,134.771 215.94833,135.63678 212.26671,136.64902 208.56854,137.66581 204.92927,138.81072 201.31671,140.09902 197.71972,141.38177 194.15347,142.81826 190.62921,144.37402 187.15029,145.90976 183.69898,147.59355 180.27921,149.39902 176.92814,151.16821 173.60957,153.06734 170.30421,155.09902 167.08501,157.07775 163.89034,159.16807 160.70421,161.39902 157.52493,163.62517 154.45753,165.93659 151.47921,168.33652 148.4599,170.76949 145.51485,173.27451 142.70421,175.87402 139.86043,178.50417 137.15717,181.22336 134.52921,184.01152 131.87477,186.82778 129.3112,189.74692 126.87921,192.71152 124.42635,195.70157 122.09096,198.73379 119.86671,201.86152 117.62684,205.01121 115.49736,208.26071 113.49171,211.53652 111.47495,214.83046 109.56923,218.1788 107.79171,221.58652 106.00684,225.00834 104.3454,228.48892 102.80421,232.01152 101.258,235.5456 99.865169,239.11505 98.566709,242.73652 97.265409,246.36592 96.054179,250.02101 95.004209,253.72402 93.952929,257.43165 93.063519,261.16935 92.266709,264.93652 91.469599,268.70513 90.781639,272.52256 90.241709,276.33652 89.701909,280.14953 89.284449,283.96742 89.004209,287.81152 88.724359,291.65037 88.572699,295.50587 88.554209,299.36152 88.535759,303.20873 88.647459,307.06167 88.891709,310.91152 89.135199,314.74941 89.509669,318.59752 90.016709,322.42402 90.521479,326.23344 91.160819,330.00218 91.929209,333.78652 92.693449,337.5504 93.601789,341.31102 94.629209,345.03652 95.649569,348.73641 96.796929,352.41282 98.079209,356.06152 99.350799,359.6798 100.74776,363.26906 102.27921,366.82402 103.79513,370.34289 105.45644,373.84233 107.22921,377.28652 108.98129,380.69052 110.8491,384.05518 112.85421,387.37402 114.83186,390.64742 116.92834,393.87017 119.15421,397.04902 121.38036,400.2283 123.69178,403.29572 126.09171,406.27402 128.52468,409.29333 131.02969,412.23838 133.62921,415.04902 136.25936,417.8928 138.97855,420.59604 141.76671,423.22402 144.58297,425.87846 147.50211,428.44204 150.46671,430.87402 153.45676,433.32688 156.48898,435.66227 159.61671,437.88652 162.7664,440.12639 166.01591,442.25586 169.29171,444.26152 172.58565,446.27828 175.93399,448.184 179.34171,449.96152 182.76353,451.7464 186.24411,453.40784 189.76671,454.94902 193.30079,456.49523 196.87024,457.88805 200.49171,459.18652 204.12111,460.48782 207.7762,461.69906 211.47921,462.74902 215.18684,463.8003 218.92454,464.68971 222.69171,465.48652 226.46032,466.28362 230.27775,466.97159 234.09171,467.51152 237.90472,468.05132 241.72261,468.46877 245.56671,468.74902 249.40556,469.02887 253.26106,469.18053 257.11671,469.19902 260.96392,469.21746 264.81686,469.10577 268.66671,468.86152 272.5046,468.61803 276.35271,468.24357 280.17921,467.73652 283.98863,467.23175 287.75737,466.59242 291.54171,465.82402 295.30559,465.05979 299.06621,464.15144 302.79171,463.12402 306.4916,462.10367 310.16801,460.95629 313.81671,459.67402 317.43499,458.40243 321.02427,457.0055 324.57921,455.47402 328.09808,453.95811 331.59752,452.29679 335.04171,450.52402 338.44571,448.77195 341.81037,446.90415 345.12921,444.89902 346.7659,443.9102 351.6329,439.91632 354.80421,439.46152 358.01787,439.00065 638.75136,437.62832 642.00829,438.59902 L 645.56702,439.65968 C 647.55654,440.25264 651.59109,442.95916 654.87079,444.89902 658.20824,446.87304 661.55429,448.77195 664.95829,450.52402 668.40246,452.29679 671.90192,453.95811 675.42079,455.47402 678.97574,457.0055 682.56501,458.40243 686.18329,459.67402 689.83197,460.95629 693.5084,462.10367 697.20829,463.12402 700.93379,464.15144 704.65691,465.05979 708.42079,465.82402 712.20512,466.59242 716.01137,467.23175 719.82079,467.73652 723.64729,468.24357 727.4954,468.61803 731.33329,468.86152 735.18317,469.10577 739.03608,469.21746 742.88329,469.19902 746.73895,469.18053 750.59444,469.02887 754.43329,468.74902 758.27738,468.46877 762.09528,468.05132 765.90829,467.51152 769.72229,466.97159 773.50218,466.28362 777.27079,465.48652 781.038,464.68971 784.81316,463.8003 788.52079,462.74902 792.22379,461.69906 795.87889,460.48782 799.50829,459.18652 803.12975,457.88805 806.69921,456.49523 810.23329,454.94902 813.75589,453.40784 817.23647,451.7464 820.65829,449.96152 824.06604,448.184 827.41435,446.27828 830.70829,444.26152 833.98406,442.25586 837.1961,440.12639 840.34579,437.88652 843.47351,435.66227 846.54324,433.32688 849.53329,430.87402 852.49791,428.44204 855.41703,425.87846 858.23329,423.22402 861.02148,420.59604 863.70314,417.8928 866.33329,415.04902 868.93284,412.23838 871.47533,409.29333 873.90829,406.27402 876.30822,403.29572 878.61963,400.2283 880.84579,397.04902 883.07163,393.87017 885.16814,390.64742 887.14579,387.37402 889.15088,384.05518 891.01872,380.69052 892.77079,377.28652 894.54353,373.84233 896.20487,370.34289 897.72079,366.82402 899.25228,363.26906 900.6492,359.6798 901.92079,356.06152 903.20307,352.41282 904.35043,348.73641 905.37079,345.03652 906.39822,341.31102 907.30655,337.5504 908.07079,333.78652 908.8392,330.00218 909.47852,326.23344 909.98329,322.42402 910.49034,318.59752 910.8648,314.74941 911.10829,310.91152 911.35251,307.06167 911.46425,303.20873 911.44579,299.36152 911.42733,295.50587 911.27564,291.65037 910.99579,287.81152 910.71555,283.96742 910.29809,280.14953 909.75829,276.33652 909.21837,272.52256 908.5304,268.70513 907.73329,264.93652 906.93648,261.16935 906.00957,257.43165 904.95829,253.72402 903.90829,250.02101 902.73459,246.36592 901.43329,242.73652 900.13483,239.11505 898.7045,235.5456 897.15829,232.01152 895.61707,228.48892 893.95566,225.00834 892.17079,221.58652 890.3933,218.1788 888.52505,214.83046 886.50829,211.53652 884.50267,208.26071 882.37315,205.01121 880.13329,201.86152 877.90904,198.73379 875.57365,195.70157 873.12079,192.71152 870.68879,189.74692 868.12523,186.82778 865.47079,184.01152 862.84283,181.22336 860.10207,178.50417 857.25829,175.87402 854.44766,173.27451 851.5401,170.76949 848.52079,168.33652 845.5425,165.93659 842.47507,163.62517 839.29579,161.39902 836.10965,159.16807 832.91499,157.07775 829.69579,155.09902 826.39044,153.06734 823.03436,151.16821 819.68329,149.39902 816.26348,147.59355 812.84971,145.90976 809.37079,144.37402 805.84655,142.81826 802.28028,141.38177 798.68329,140.09902 795.07075,138.81072 791.39396,137.66581 787.69579,136.64902 784.01419,135.63678 780.29942,134.771 776.52079,134.02402 772.78961,133.28642 768.99575,132.66917 765.15829,132.18652 761.39838,131.71362 757.59385,131.36817 753.72079,131.13652 750.35378,130.93514 716.86367,130.79902 716.44579,130.79902 Z"
       style="fill:#f5f5f2;fill-opacity:1;fill-rule:evenodd;stroke:#b7b7b7;stroke-width:5;stroke-linecap:butt;stroke-linejoin:miter;stroke-miterlimit:4;stroke-dasharray:none;stroke-opacity:1" />
    <circle
       style="fill:#e2e2e0;fill-opacity:0.8;stroke:#f2f2f2;stroke-width:3.33333;stroke-miterlimit:4;stroke-dasharray:none;stroke-opacity:1"
       id="pad_circle"
       transform="matrix(1.1486534,0,0,1.1486534,52.05556,-44.596021)"
       cx="170"
       cy="300"
       r="96" />
    <circle
       style="fill:#777f82;fill-opacity:1;stroke:#505050;stroke-width:5;stroke-miterlimit:4;stroke-dasharray:none;stroke-opacity:1"
       id="buttons_circle"
       transform="translate(119.05204)"
       cx="621"
       cy="301"
       r="152" />
    <rect
       style="fill:#f4f4f1;fill-opacity:1;stroke:#fdfdfa;stroke-width:1;stroke-miterlimit:4;stroke-dasharray:none;stroke-opacity:1"
       id="xy_holder"
       width="159"
       height="65"
       x="235.90645"
       y="652.72327"
       rx="36"
       transform="rotate(-45)" />
    <use
       x="0"
       y="0"
       xlink:href="#xy_holder"
       id="use3219"
       transform="translate(80,75)"
       width="800"
       height="600" />
    <circle
       style="fill:#1a1a1a;fill-opacity:1;stroke:#ebebe8;stroke-width:0.952381;stroke-miterlimit:4;stroke-dasharray:none;stroke-opacity:1"
       id="y_button"
       transform="matrix(1.05,0,0,1.05,103.92704,-17.899999)"
       cx="542.5"
       cy="298"
       r="27.5" />
    <circle
       transform="matrix(0.95,0,0,0.95,158.17704,11.900001)"
       id="y_button_inner"
       style="fill:#00ebaf;fill-opacity:1;stroke:#00ab7f;stroke-width:2.10526;stroke-miterlimit:4;stroke-dasharray:none;stroke-opacity:1"
       cx="542.5"
       cy="298"
       r="27.5" />
    <circle
       transform="matrix(1.05,0,0,1.05,184.42704,58.100001)"
       id="b_button"
       style="fill:#1a1a1a;fill-opacity:1;stroke:#ebebe8;stroke-width:0.952381;stroke-miterlimit:4;stroke-dasharray:none;stroke-opacity:1"
       cx="542.5"
       cy="298"
       r="27.5" />
    <circle
       style="fill:#ffbb58;fill-opacity:1;stroke:#ba853d;stroke-width:2.10526;stroke-miterlimit:4;stroke-dasharray:none;stroke-opacity:1"
       id="b_button_inner"
       transform="matrix(0.95,0,0,0.95,238.67704,87.900001)"
       cx="542.5"
       cy="298"
       r="27.5" />
    <circle
       style="fill:#1a1a1a;fill-opacity:1;stroke:#ebebe8;stroke-width:0.952381;stroke-miterlimit:4;stroke-dasharray:none;stroke-opacity:1"
       id="a_button"
       transform="matrix(1.05,0,0,1.05,251.92704,-9.8999993)"
       cx="542.5"
       cy="298"
       r="27.5" />
    <circle
       transform="matrix(0.95,0,0,0.95,306.17704,19.900001)"
       id="a_button_inner"
       style="fill:#ff4856;fill-opacity:1;stroke:#c72b3e;stroke-width:2.10526;stroke-miterlimit:4;stroke-dasharray:none;stroke-opacity:1"
       cx="542.5"
       cy="298"
       r="27.5" />
    <circle
       transform="matrix(1.05,0,0,1.05,170.92704,-85.399999)"
       id="x_button"
       style="fill:#1a1a1a;fill-opacity:1;stroke:#ebebe8;stroke-width:0.952381;stroke-miterlimit:4;stroke-dasharray:none;stroke-opacity:1"
       cx="542.5"
       cy="298"
       r="27.5" />
    <circle
       style="fill:#0075fa;fill-opacity:1;stroke:#0054b3;stroke-width:2.10526;stroke-miterlimit:4;stroke-dasharray:none;stroke-opacity:1"
       id="x_button_inner"
       transform="matrix(0.95,0,0,0.95,225.17704,-55.599999)"
       cx="542.5"
       cy="298"
       r="27.5" />
    <g
       id="g3574"
       transform="translate(14)">
      <rect
         transform="rotate(-45)"
         rx="7.3457208"
         y="523.89368"
         x="32.659458"
         height="19.478285"
         width="68.390419"
         id="rect3307"
         style="fill:#1a1a1a;fill-opacity:1;stroke:#e2e2df;stroke-width:1.83643;stroke-miterlimit:4;stroke-dasharray:none;stroke-opacity:1" />
      <rect
         transform="rotate(-45)"
         style="fill:#606869;fill-opacity:1;stroke:#252a2a;stroke-width:1.215;stroke-miterlimit:4;stroke-dasharray:none;stroke-opacity:1"
         id="select"
         width="64.702263"
         height="15.777154"
         x="34.395237"
         y="525.7442"
         rx="5.9500341" />
    </g>
    <path
       style="fill:#1a1a1a;fill-opacity:1;stroke:#8e979e;stroke-width:0.938067;stroke-miterlimit:4;stroke-dasharray:none;stroke-opacity:1"
       d="M 230.57544,225.05503 C 226.12097,225.05503 222.53488,228.64113 222.53488,233.09561 V 275.30863 H 180.32186 C 175.86738,275.30863 172.28128,278.89472 172.28128,283.34919 V 316.85159 C 172.28128,321.30606 175.86738,324.89215 180.32186,324.89215 H 222.53488 V 367.10517 C 222.53488,371.55965 226.12097,375.14575 230.57544,375.14575 H 264.07784 C 268.53231,375.14575 272.1184,371.55965 272.1184,367.10517 V 324.89215 H 314.33142 C 318.7859,324.89215 322.372,321.30606 322.372,316.85159 V 283.34919 C 322.372,278.89472 318.7859,275.30863 314.33142,275.30863 H 272.1184 V 233.09561 C 272.1184,228.64113 268.53231,225.05503 264.07784,225.05503 Z"
       id="rect3221" />
    <path
       id="path3319"
       d="M 233.57956,231.91492 C 230.05118,231.91492 227.21068,235.12897 227.21068,239.12136 V 279.69459 H 185.83605 C 182.3077,279.69459 179.46717,282.90864 179.46717,286.90101 V 313.06028 C 179.46717,317.05264 182.3077,320.26669 185.83605,320.26669 H 227.21068 V 361.06555 C 227.21068,365.05793 230.05118,368.272 233.57956,368.272 H 260.43559 C 263.96396,368.272 266.80446,365.05793 266.80446,361.06555 V 320.26669 H 308.98812 C 312.51646,320.26669 315.35699,317.05264 315.35699,313.06028 V 286.90101 C 315.35699,282.90864 312.51646,279.69459 308.98812,279.69459 H 267.48132 V 239.12136 C 267.48132,235.12897 264.6408,231.91492 261.11244,231.91492 Z"
       style="fill:#4d5254;fill-opacity:1;stroke:#63686b;stroke-width:1.91442;stroke-miterlimit:4;stroke-dasharray:none;stroke-opacity:1" />
    <path
       style="fill:#313739;fill-opacity:1;stroke:#4f5457;stroke-width:2.06115;stroke-miterlimit:4;stroke-opacity:0.862745"
       d="M 231.71636,267.52693 C 230.30056,264.68711 232.56543,260.21886 232.56543,260.21886 L 237.28482,250.75281 242.00416,241.28677 C 242.00416,241.28677 243.89192,237.6307 246.72354,237.6307 249.55516,237.6307 251.44289,241.28677 251.44289,241.28677 L 256.16226,250.75281 260.88163,260.21886 C 260.88163,260.21886 263.43321,264.52109 262.01739,267.36091 260.60161,270.20075 256.16226,269.68493 256.16226,269.68493 H 246.72354 237.28482 C 237.28482,269.68493 233.13218,270.36673 231.71636,267.52693 Z"
       id="up" />
    <use
       x="0"
       y="0"
       xlink:href="#up"
       id="down"
       transform="matrix(1,0,0,-1,0,598.76219)"
       width="1000"
       height="600" />
    <use
       x="0"
       y="0"
       xlink:href="#up"
       id="left"
       transform="rotate(-90,246.84801,299.3811)"
       width="1000"
       height="600" />
    <use
       x="0"
       y="0"
       xlink:href="#down"
       id="right"
       transform="rotate(-90,246.84801,299.3811)"
       width="1000"
       height="600" />
    <circle
       style="fill:#363d40;fill-opacity:1;stroke:#4f5457;stroke-width:1.45;stroke-miterlimit:4;stroke-dasharray:none;stroke-opacity:0.861702"
       id="pad_center"
       transform="matrix(1.6288945,0,0,1.6288945,-251.11585,-187.53276)"
       cx="306.00046"
       cy="299.30283"
       r="10.429825" />
    <g
       id="g4168"
       transform="translate(112.9467)">
      <rect
         style="fill:#1a1a1a;fill-opacity:1;stroke:#e2e2df;stroke-width:1.83643;stroke-miterlimit:4;stroke-dasharray:none;stroke-opacity:1"
         id="rect4170"
         width="68.390419"
         height="19.478285"
         x="29.909458"
         y="521.14368"
         rx="7.3457208"
         transform="rotate(-45)" />
      <rect
         rx="5.9500341"
         y="522.9942"
         x="31.645237"
         height="15.777154"
         width="64.702263"
         id="start"
         style="fill:#606869;fill-opacity:1;stroke:#252a2a;stroke-width:1.215;stroke-miterlimit:4;stroke-dasharray:none;stroke-opacity:1"
         transform="rotate(-45)" />
    </g>
  </g>
  <g
     inkscape:groupmode="layer"
     id="layer4"
     inkscape:label="Text"
     style="display:inline">
    <flowRoot
       xml:space="preserve"
       id="flowRoot4249"
       style="font-style:normal;font-variant:normal;font-weight:normal;font-stretch:normal;line-height:0.01%;font-family:Arial;-inkscape-font-specification:Arial;text-align:start;writing-mode:lr-tb;text-anchor:start;fill:#474b4c;fill-opacity:1;stroke:none;stroke-width:1px;stroke-linecap:butt;stroke-linejoin:miter;stroke-opacity:1;filter:url(#filter4689)"
       transform="translate(25.5)"><flowRegion
         id="flowRegion4251"><rect
           id="rect4253"
           width="74.5"
           height="30"
           x="384.5"
           y="367.5"
           style="fill:#474b4c;fill-opacity:1;stroke:none;stroke-opacity:1" /></flowRegion><flowPara
         id="flowPara4255"
         style="font-style:italic;font-variant:normal;font-weight:normal;font-stretch:normal;font-size:16px;line-height:1.25;font-family:Arial;-inkscape-font-specification:'Arial Italic';fill:#474b4c;fill-opacity:1;stroke:none;stroke-opacity:1">SELECT</flowPara></flowRoot>
    <flowRoot
       xml:space="preserve"
       id="flowRoot4669"
       style="font-style:italic;font-variant:normal;font-weight:normal;font-stretch:normal;line-height:0.01%;font-family:Arial;-inkscape-font-specification:'Arial Italic';text-align:start;writing-mode:lr-tb;text-anchor:start;display:inline;fill:#474b4c;fill-opacity:1;stroke:none;stroke-width:1px;stroke-linecap:butt;stroke-linejoin:miter;stroke-opacity:1;filter:url(#filter4693)"
       transform="translate(14,-0.7071068)"><flowRegion
         id="flowRegion4671"><rect
           id="rect4673"
           width="69.650017"
           height="20.152544"
           x="490.73212"
           y="368.06897"
           style="font-style:italic;font-variant:normal;font-weight:normal;font-stretch:normal;fill:#474b4c;fill-opacity:1;font-family:Arial;-inkscape-font-specification:Arial Italic" /></flowRegion><flowPara
         id="flowPara4675"
         style="font-style:italic;font-variant:normal;font-weight:normal;font-stretch:normal;font-size:16px;line-height:1.25;font-family:Arial;-inkscape-font-specification:'Arial Italic';fill:#474b4c;fill-opacity:1">START</flowPara></flowRoot>
    <flowRoot
       xml:space="preserve"
       id="flowRoot4186"
       style="font-style:normal;font-variant:normal;font-weight:900;font-stretch:normal;line-height:0.01%;font-family:'Arial Black';-inkscape-font-specification:'Arial Black Heavy';text-align:start;writing-mode:lr-tb;text-anchor:start;display:inline;fill:#f7f7f4;fill-opacity:1;stroke:none;stroke-width:1px;stroke-linecap:butt;stroke-linejoin:miter;stroke-opacity:1;filter:url(#filter4713)"
       transform="matrix(0.8,0,0,0.8,178.84196,53.480205)"><flowRegion
         id="flowRegion4188"><rect
           id="rect4190"
           width="42.426407"
           height="37.476658"
           x="839.33575"
           y="246.80016"
           style="font-size:30px;font-style:normal;font-variant:normal;font-weight:900;font-stretch:normal;text-align:start;line-height:125%;writing-mode:lr-tb;text-anchor:start;fill:#f7f7f4;fill-opacity:1;font-family:Arial Black;-inkscape-font-specification:Arial Black Heavy" /></flowRegion><flowPara
         id="flowPara4192"
         style="font-size:30px;line-height:1.25">A</flowPara></flowRoot>
    <flowRoot
       xml:space="preserve"
       id="flowRoot4194"
       style="font-style:normal;font-variant:normal;font-weight:900;font-stretch:normal;line-height:0.01%;font-family:'Arial Black';-inkscape-font-specification:'Arial Black Heavy';text-align:start;writing-mode:lr-tb;text-anchor:start;display:inline;fill:#f7f7f4;fill-opacity:1;stroke:none;stroke-width:1px;stroke-linecap:butt;stroke-linejoin:miter;stroke-opacity:1;filter:url(#filter4709)"
       transform="matrix(0.8,0,0,0.8,141.21719,80.844545)"><flowRegion
         id="flowRegion4196"><rect
           id="rect4198"
           width="44.547726"
           height="40.658642"
           x="695.08594"
           y="388.92862"
           style="font-size:30px;font-style:normal;font-variant:normal;font-weight:900;font-stretch:normal;text-align:start;line-height:125%;writing-mode:lr-tb;text-anchor:start;fill:#f7f7f4;fill-opacity:1;font-family:Arial Black;-inkscape-font-specification:Arial Black Heavy" /></flowRegion><flowPara
         id="flowPara4200"
         style="font-size:30px;line-height:1.25">B</flowPara></flowRoot>
    <flowRoot
       xml:space="preserve"
       id="flowRoot4202"
       style="font-style:normal;font-variant:normal;font-weight:900;font-stretch:normal;line-height:0.01%;font-family:'Arial Black';-inkscape-font-specification:'Arial Black Heavy';text-align:start;writing-mode:lr-tb;text-anchor:start;display:inline;fill:#f7f7f4;fill-opacity:1;stroke:none;stroke-width:1px;stroke-linecap:butt;stroke-linejoin:miter;stroke-opacity:1;filter:url(#filter4701)"
       transform="matrix(0.8,0,0,0.8,125.0875,66.207045)"><flowRegion
         id="flowRegion4204"><rect
           id="rect4206"
           width="39.244427"
           height="35.001785"
           x="614.82935"
           y="315.74307"
           style="font-size:30px;font-style:normal;font-variant:normal;font-weight:900;font-stretch:normal;text-align:start;line-height:125%;writing-mode:lr-tb;text-anchor:start;fill:#f7f7f4;fill-opacity:1;font-family:Arial Black;-inkscape-font-specification:Arial Black Heavy" /></flowRegion><flowPara
         id="flowPara4208"
         style="font-size:30px;line-height:1.25">Y</flowPara></flowRoot>
    <flowRoot
       xml:space="preserve"
       id="flowRoot4210"
       style="font-style:normal;font-variant:normal;font-weight:900;font-stretch:normal;line-height:0.01%;font-family:'Arial Black';-inkscape-font-specification:'Arial Black Heavy';text-align:start;writing-mode:lr-tb;text-anchor:start;display:inline;fill:#f7f7f4;fill-opacity:1;stroke:none;stroke-width:1px;stroke-linecap:butt;stroke-linejoin:miter;stroke-opacity:1;filter:url(#filter4697)"
       transform="matrix(0.8,0,0,0.8,155.28437,37.707045)"><flowRegion
         id="flowRegion4212"><rect
           id="rect4214"
           width="44.547726"
           height="39.59798"
           x="765.79663"
           y="173.26106"
           style="font-size:30px;font-style:normal;font-variant:normal;font-weight:900;font-stretch:normal;text-align:start;line-height:125%;writing-mode:lr-tb;text-anchor:start;fill:#f7f7f4;fill-opacity:1;font-family:Arial Black;-inkscape-font-specification:Arial Black Heavy" /></flowRegion><flowPara
         id="flowPara4216"
         style="font-size:30px;line-height:1.25">X</flowPara></flowRoot>
  </g>
</svg>
