<?xml version="1.0" encoding="UTF-8" standalone="no"?>
<!-- Creator: CorelDRAW X8 -->

<svg
   xmlns:dc="http://purl.org/dc/elements/1.1/"
   xmlns:cc="http://creativecommons.org/ns#"
   xmlns:rdf="http://www.w3.org/1999/02/22-rdf-syntax-ns#"
   xmlns:svg="http://www.w3.org/2000/svg"
   xmlns="http://www.w3.org/2000/svg"
   xmlns:sodipodi="http://sodipodi.sourceforge.net/DTD/sodipodi-0.dtd"
   xmlns:inkscape="http://www.inkscape.org/namespaces/inkscape"
   xml:space="preserve"
   width="1973px"
   height="2252px"
   version="1.1"
   style="shape-rendering:geometricPrecision; text-rendering:geometricPrecision; image-rendering:optimizeQuality; fill-rule:evenodd; clip-rule:evenodd"
   viewBox="0 0 66095 75441"
   id="svg99"
   sodipodi:docname="gbros-b.svg"
   inkscape:version="1.0.2 (e86c870879, 2021-01-15, custom)"><metadata
     id="metadata103"><rdf:RDF><cc:Work
         rdf:about=""><dc:format>image/svg+xml</dc:format><dc:type
           rdf:resource="http://purl.org/dc/dcmitype/StillImage" /></cc:Work></rdf:RDF></metadata><sodipodi:namedview
     pagecolor="#ffffff"
     bordercolor="#666666"
     borderopacity="1"
     objecttolerance="10"
     gridtolerance="10"
     guidetolerance="10"
     inkscape:pageopacity="0"
     inkscape:pageshadow="2"
     inkscape:window-width="2560"
     inkscape:window-height="1360"
     id="namedview101"
     showgrid="false"
     inkscape:zoom="0.44760213"
     inkscape:cx="986.5"
     inkscape:cy="1126"
     inkscape:window-x="-11"
     inkscape:window-y="-11"
     inkscape:window-maximized="1"
     inkscape:current-layer="svg99" /><defs
     id="defs4" /><g
     id="main"
     transform="translate(-1422.0111,-20656.582)"><path
       d="M 48401,36951 C 48401,36951 48490,34219 52103,34566 56188,35215 56446,41097 56446,41097 Z"
       id="right_trigger"
       style="fill:#c9c9cb;fill-opacity:0.52808988" /><path
       d="M 47743,36007 C 47692,35843 47827,35370 47885,35349 47885,35349 48686,34922 51552,35758 54417,36595 56121,38402 56602,39132 56735,39212 56569,39669 56084,40034 55599,40400 47743,36007 47743,36007 Z"
       id="right_trigger_thing"
       style="fill:#4b569e" /><path
       d="M 18749,36951 C 18749,36951 18660,34219 15047,34566 10962,35215 10704,41097 10704,41097 Z"
       id="left_trigger"
       style="fill:#c9c9cb;fill-opacity:0.52808988" /><path
       d="M 50805,59971 C 53332,64990 53163,71124 55219,74031 59419,77698 61235,73248 61626,70258 62018,67268 62053,57266 61377,51148 60701,45030 59099,42458 59099,42458 59099,42458 58102,39076 47922,35766 47819,35732 47717,35699 47615,35667 37601,32460 30678,32725 22222,34733 13679,36762 10393,39428 8695,41532 6138,44511 5670,50751 5670,50751 5670,50751 3997,69866 6346,73604 8695,77341 11828,74067 11828,74067 11828,74067 13465,71326 13892,68087 14319,64847 16277,59935 16277,59935 18128,53635 37831,43446 50805,59971 Z"
       id="body"
       style="fill:#565E9E;" /><path
       d="M 51517,59055 C 54033,55798 59811,55341 59935,47753 59846,42337 55617,38107 50289,38107 44962,38107 40643,42426 40643,47753 39935,52765 38167,54534 36619,56919 34020,61662 39255,69752 46445,65444 49648,62775 48883,61190 51517,59055 Z"
       id="right_handle"
       style="fill:#4b569e;fill-opacity:1" /><path
       d="M 15457,59055 C 12941,55798 7163,55341 7039,47753 7128,42337 11357,38107 16685,38107 22012,38107 26331,42426 26331,47753 27039,52765 28807,54534 30356,56919 32954,61662 27720,69752 20529,65444 17326,62775 18091,61190 15457,59055 Z"
       id="left_handle"
       style="fill:#4b569e;fill-opacity:1" /><polygon
       points="18259,44147 19782,44778 20413,46301 21043,47823 20413,49346 19782,50869 18259,51500 16736,52130 15214,51500 13691,50869 13060,49346 12429,47823 13060,46301 13691,44778 15214,44147 16736,43516 "
       id="left_analog_base"
       style="fill:#b7b7b7" /><circle
       cx="16736"
       cy="47823"
       r="3144"
       id="left_analog"
       style="fill:#e2e2e3" /><circle
       cx="33526"
       cy="47804"
       r="1228"
       id="middle_button"
       style="fill:#e2e2e3" /><polygon
       points="44311,56153 45940,56828 46614,58457 47289,60086 46614,61715 45940,63344 44311,64019 42682,64693 41053,64019 39424,63344 38749,61715 38074,60086 38749,58457 39424,56828 41053,56153 42682,55478 "
       id="analog_base"
       style="fill:#f6ee84;fill-opacity:1" /><circle
       cx="42682"
       cy="60086"
       r="3144"
       id="analog"
       style="fill:#ece11c;fill-opacity:1" /><circle
       cx="50315"
       cy="47802"
       r="3346"
       id="a_button"
       style="fill:#8EDAD6" /><circle
       cx="44166"
       cy="51004"
       r="2065"
       id="b_button"
       style="fill:#BF4071" /><path
       d="M 50515,40082 C 48219,39659 46838,40683 46287,41301 46027,41592 45839,41989 45839,42418 45839,43188 46462,43809 47230,43809 47489,43809 47732,43738 47940,43615 48537,43243 49355,42915 50230,42924 50999,42932 51680,42296 51680,41528 51680,40827 51140,40220 50515,40082 Z"
       id="y_button"
       style="fill:#dadada;fill-opacity:1" /><path
       d="M 57970,48255 C 58579,46002 57671,44542 57100,43942 56831,43659 56451,43439 56023,43404 55256,43341 54586,43911 54523,44677 54502,44936 54553,45184 54659,45401 54981,46026 55241,46868 55161,47740 55090,48505 55668,49236 56434,49298 57132,49356 57781,48867 57970,48255 Z"
       id="x_button"
       style="fill:#dadada;fill-opacity:1" /><path
       d="M 23544,63752 H 25381 C 25566,63752 25717,63601 25717,63416 V 61305 H 27828 C 28013,61305 28164,61154 28164,60969 V 59132 C 28164,58947 28013,58795 27828,58795 H 25717 V 56685 C 25717,56500 25566,56348 25381,56348 H 23544 C 23359,56348 23208,56500 23208,56685 V 58795 H 21097 C 20912,58795 20761,58947 20761,59132 V 60969 C 20761,61154 20912,61305 21097,61305 H 23208 V 63416 C 23208,63601 23359,63752 23544,63752 Z"
       id="dpad"
       style="fill:#e2e2e3" /><path
       d="M 42696,61541 C 43246,61541 43605,61201 43605,60627 43605,60587 43565,60555 43524,60555 H 43298 C 43254,60555 43217,60591 43217,60636 43217,60967 43015,61157 42696,61157 42486,61157 42320,61052 42239,60882 42162,60720 42154,60385 42154,60086 42154,59787 42162,59451 42239,59290 42320,59120 42486,59015 42696,59015 43015,59015 43217,59205 43217,59536 43217,59581 43254,59617 43298,59617 H 43524 C 43565,59617 43605,59585 43605,59544 43605,58970 43246,58631 42696,58631 42292,58631 42013,58837 41883,59108 41762,59362 41758,59710 41758,60086 41758,60462 41762,60809 41883,61064 42013,61335 42292,61541 42696,61541 Z"
       id="c"
       style="fill:#000000" /><path
       d="M 43679,51912 H 44159 C 44463,51912 44704,51705 44704,51383 44704,51235 44626,51071 44520,50986 44499,50970 44499,50947 44520,50929 44608,50851 44668,50711 44668,50578 44668,50280 44447,50096 44159,50096 H 43679 C 43651,50096 43627,50119 43627,50148 V 51860 C 43627,51889 43651,51912 43679,51912 Z M 43895,50843 C 43879,50843 43869,50833 43869,50817 V 50368 C 43869,50353 43879,50342 43895,50342 H 44159 C 44307,50342 44414,50415 44414,50578 44414,50739 44312,50843 44159,50843 Z M 43895,51666 C 43879,51666 43869,51655 43869,51640 V 51103 C 43869,51084 43879,51077 43895,51077 H 44159 C 44323,51077 44450,51209 44450,51383 44450,51562 44318,51666 44159,51666 Z"
       id="b"
       style="fill:#000000" /><path
       d="M 49317,49367 H 49577 C 49617,49367 49648,49340 49662,49300 L 49859,48616 C 49872,48576 49903,48553 49944,48553 H 50686 C 50726,48553 50762,48576 50771,48616 L 50968,49300 C 50981,49340 51012,49367 51053,49367 H 51312 C 51357,49367 51388,49336 51388,49305 51388,49278 51384,49260 51375,49229 L 50556,46303 C 50547,46263 50512,46236 50471,46236 H 50158 C 50118,46236 50082,46263 50073,46303 L 49255,49229 C 49246,49260 49241,49278 49241,49305 49241,49336 49273,49367 49317,49367 Z M 50037,48137 C 50011,48137 49993,48124 50002,48088 L 50292,46840 C 50297,46822 50301,46813 50310,46813 H 50319 C 50328,46813 50333,46822 50337,46840 L 50628,48088 C 50637,48124 50619,48137 50592,48137 Z"
       id="a"
       style="fill:#000000" /><path
       d="M 48576,42611 H 48691 C 48713,42611 48732,42593 48732,42570 V 42037 L 49071,41254 C 49079,41234 49081,41225 49081,41215 49081,41195 49063,41180 49044,41180 H 48909 C 48891,41180 48879,41189 48871,41211 L 48650,41755 C 48646,41767 48642,41773 48633,41773 48625,41773 48621,41767 48617,41755 L 48396,41211 C 48388,41189 48376,41180 48358,41180 H 48223 C 48204,41180 48186,41195 48186,41215 48186,41225 48188,41234 48196,41254 L 48535,42037 V 42570 C 48535,42593 48554,42611 48576,42611 Z"
       id="y"
       style="fill:#000000" /><path
       d="M 55905,47067 H 56044 C 56062,47067 56070,47061 56083,47036 L 56328,46541 C 56336,46525 56340,46521 56344,46521 56348,46521 56352,46525 56361,46541 L 56608,47036 C 56620,47061 56628,47067 56647,47067 H 56786 C 56806,47067 56823,47052 56823,47030 56823,47020 56820,47013 56812,46997 L 56469,46333 C 56463,46321 56461,46312 56461,46310 56461,46306 56463,46300 56467,46292 L 56780,45705 C 56786,45693 56790,45683 56790,45671 56790,45652 56773,45636 56753,45636 H 56622 C 56604,45636 56596,45642 56583,45667 L 56359,46102 C 56354,46110 56348,46118 56344,46118 56340,46118 56334,46110 56330,46102 L 56105,45667 C 56093,45642 56085,45636 56066,45636 H 55935 C 55915,45636 55899,45652 55899,45671 55899,45679 55901,45689 55909,45705 L 56222,46292 C 56226,46300 56228,46306 56228,46310 56228,46315 56226,46321 56220,46333 L 55878,46997 C 55870,47013 55868,47022 55868,47032 55868,47050 55884,47067 55905,47067 Z"
       id="x"
       style="fill:#000000;" /></g></svg>
