<?xml version="1.0" encoding="UTF-8" standalone="no"?>
<!-- Generator: Adobe Illustrator 19.0.0, SVG Export Plug-In . SVG Version: 6.00 Build 0)  -->

<svg
   xmlns:dc="http://purl.org/dc/elements/1.1/"
   xmlns:cc="http://creativecommons.org/ns#"
   xmlns:rdf="http://www.w3.org/1999/02/22-rdf-syntax-ns#"
   xmlns:svg="http://www.w3.org/2000/svg"
   xmlns="http://www.w3.org/2000/svg"
   xmlns:sodipodi="http://sodipodi.sourceforge.net/DTD/sodipodi-0.dtd"
   xmlns:inkscape="http://www.inkscape.org/namespaces/inkscape"
   version="1.1"
   id="Layer_1"
   x="0px"
   y="0px"
   viewBox="0 0 496.2 496.2"
   style="enable-background:new 0 0 496.2 496.2;"
   xml:space="preserve"
   sodipodi:docname="game-controller-svgrepo-com (2).svg"
   inkscape:version="1.0.2 (e86c870879, 2021-01-15, custom)"><metadata
   id="metadata145"><rdf:RDF><cc:Work
       rdf:about=""><dc:format>image/svg+xml</dc:format><dc:type
         rdf:resource="http://purl.org/dc/dcmitype/StillImage" /></cc:Work></rdf:RDF></metadata><defs
   id="defs143" /><sodipodi:namedview
   pagecolor="#ffffff"
   bordercolor="#666666"
   borderopacity="1"
   objecttolerance="10"
   gridtolerance="10"
   guidetolerance="10"
   inkscape:pageopacity="0"
   inkscape:pageshadow="2"
   inkscape:window-width="2560"
   inkscape:window-height="1360"
   id="namedview141"
   showgrid="false"
   inkscape:zoom="2.0314389"
   inkscape:cx="248.10001"
   inkscape:cy="248.10001"
   inkscape:window-x="-11"
   inkscape:window-y="-11"
   inkscape:window-maximized="1"
   inkscape:current-layer="Layer_1" />

<path
   style="fill:#EDEDEB;"
   d="M300.7,433c0,9.1-7.3,16.4-16.4,16.4h-72.5c-9.1,0-16.4-7.3-16.4-16.4V63.2c0-9.1,7.3-16.4,16.4-16.4  h72.5c9.1,0,16.4,7.3,16.4,16.4V433z"
   id="path4" />
<g
   id="g10">
	<path
   style="fill:#D7D9D6;"
   d="M282.8,121.1h-23.3V97.8c0-1.6-1.3-2.9-2.9-2.9h-12.8c-1.6,0-2.9,1.3-2.9,2.9v23.3h-23.3   c-1.6,0-2.9,1.3-2.9,2.9v12.8c0,1.6,1.3,2.9,2.9,2.9h23.3V163c0,1.6,1.3,2.9,2.9,2.9h12.8c1.6,0,2.9-1.3,2.9-2.9v-23.3h23.3   c1.6,0,2.9-1.3,2.9-2.9V124C285.7,122.4,284.4,121.1,282.8,121.1z"
   id="path6" />
	<circle
   style="fill:#D7D9D6;"
   cx="248.9"
   cy="193.5"
   r="15"
   id="circle8" />
</g>
<circle
   style="fill:#FFFFFF;"
   cx="248.9"
   cy="193.5"
   r="6.1"
   id="circle12" />
<g
   id="g18">
	<circle
   style="fill:#D7D9D6;"
   cx="248.9"
   cy="358.9"
   r="10.5"
   id="circle14" />
	<path
   style="fill:#D7D9D6;"
   d="M238.5,395.5c0-5.8,4.7-10.5,10.5-10.5c5.8,0,10.5,4.7,10.5,10.5S254.8,406,249,406   S238.5,401.3,238.5,395.5z"
   id="path16" />
</g>
<path
   style="fill:#9E9E9E;"
   d="M247.7,399.4h4.4c0.4,0,0.8,0.1,1,0.3c0.2,0.2,0.3,0.4,0.3,0.7c0,0.3-0.1,0.5-0.3,0.7  c-0.2,0.2-0.5,0.3-0.8,0.3h-6.2c-0.4,0-0.8-0.1-1-0.4c-0.2-0.2-0.4-0.5-0.4-0.8c0-0.2,0.1-0.5,0.2-0.8c0.2-0.3,0.3-0.6,0.5-0.8  c0.8-0.8,1.4-1.5,2-2c0.6-0.6,1-0.9,1.3-1.1c0.5-0.3,0.9-0.7,1.2-1c0.3-0.3,0.5-0.7,0.7-1s0.2-0.7,0.2-1c0-0.4-0.1-0.7-0.3-1  c-0.2-0.3-0.4-0.5-0.7-0.7c-0.3-0.2-0.6-0.2-1-0.2c-0.7,0-1.3,0.3-1.8,1c-0.1,0.1-0.2,0.3-0.3,0.7c-0.1,0.4-0.3,0.7-0.4,0.9  c-0.2,0.2-0.4,0.3-0.7,0.3s-0.5-0.1-0.7-0.3c-0.2-0.2-0.3-0.4-0.3-0.8s0.1-0.8,0.3-1.2c0.2-0.4,0.4-0.8,0.8-1.2  c0.3-0.3,0.8-0.6,1.3-0.8c0.5-0.2,1.2-0.3,1.9-0.3c0.9,0,1.6,0.1,2.2,0.4c0.4,0.2,0.7,0.4,1,0.7c0.3,0.3,0.5,0.7,0.7,1.1  s0.3,0.8,0.3,1.3c0,0.7-0.2,1.3-0.5,1.9s-0.7,1-1.1,1.4c-0.4,0.3-1,0.8-1.8,1.5c-0.9,0.7-1.4,1.2-1.8,1.6  C248,399,247.8,399.2,247.7,399.4z"
   id="path20" />
<g
   id="g30">
	<path
   style="fill:#3A3A38;"
   d="M250.9,423.6c0-2.2,1.8-3.9,3.9-3.9c2.2,0,3.9,1.8,3.9,3.9c0,2.2-1.8,3.9-3.9,3.9   C252.6,427.5,250.9,425.8,250.9,423.6z"
   id="path22" />
	<circle
   style="fill:#3A3A38;"
   cx="237.8"
   cy="423.6"
   r="3.9"
   id="circle24" />
	<circle
   style="fill:#3A3A38;"
   cx="221.1"
   cy="423.6"
   r="3.9"
   id="circle26" />
	<circle
   style="fill:#3A3A38;"
   cx="271.5"
   cy="423.6"
   r="3.9"
   id="circle28" />
</g>
<g
   id="g38">
	<circle
   style="fill:#D7D9D6;"
   cx="223.4"
   cy="258.2"
   r="7.8"
   id="circle32" />
	<path
   style="fill:#D7D9D6;"
   d="M206.9,66.9c0-5.5,4.4-9.9,9.9-9.9s9.9,4.4,9.9,9.9s-4.4,9.9-9.9,9.9   C211.3,76.8,206.9,72.4,206.9,66.9z"
   id="path34" />
	<circle
   style="fill:#D7D9D6;"
   cx="273.1"
   cy="258.2"
   r="7.8"
   id="circle36" />
</g>
<path
   style="fill:#60D0E8;"
   d="M240.4,258.2c0-4.3,3.5-7.8,7.8-7.8c4.3,0,7.8,3.5,7.8,7.8s-3.5,7.8-7.8,7.8  C243.9,266.1,240.4,262.5,240.4,258.2z"
   id="path40" />
<path
   style="fill:#9E9E9E;"
   d="M249,364.2v-7.7c-1.4,1.1-2.4,1.7-2.9,1.7c-0.2,0-0.4-0.1-0.6-0.3c-0.2-0.2-0.3-0.4-0.3-0.7  c0-0.3,0.1-0.5,0.3-0.6s0.5-0.3,1-0.5c0.7-0.3,1.2-0.7,1.6-1c0.4-0.4,0.8-0.8,1.1-1.2c0.3-0.4,0.5-0.7,0.6-0.8  c0.1-0.1,0.3-0.2,0.5-0.2c0.3,0,0.5,0.1,0.7,0.3c0.2,0.2,0.3,0.6,0.3,1v9.7c0,1.1-0.4,1.7-1.2,1.7c-0.3,0-0.6-0.1-0.8-0.3  C249.1,365,249,364.6,249,364.2z"
   id="path42" />
<g
   id="g48">
	<path
   style="fill:#D61D3C;"
   d="M218.4,61.4v2.2c1.2,0.6,2.1,1.9,2.1,3.3c0,2-1.7,3.7-3.7,3.7c-2.1,0-3.7-1.7-3.7-3.7   c0-1.4,0.8-2.6,2-3.3v-2.2c-2.3,0.7-4.1,2.9-4.1,5.5c0,3.2,2.6,5.8,5.8,5.8s5.8-2.6,5.8-5.8C222.6,64.3,220.8,62.1,218.4,61.4z"
   id="path44" />
	<rect
   x="215.5"
   y="59.3"
   style="fill:#D61D3C;"
   width="2.5"
   height="7.2"
   id="rect46" />
</g>
<g
   id="g58">
	<path
   style="fill:#FFFFFF;"
   d="M279.7,118h-23.3V94.7c0-1.6-1.3-2.9-2.9-2.9h-12.8c-1.6,0-2.9,1.3-2.9,2.9V118h-23.3   c-1.6,0-2.9,1.3-2.9,2.9v12.8c0,1.6,1.3,2.9,2.9,2.9h23.3v23.3c0,1.6,1.3,2.9,2.9,2.9h12.8c1.6,0,2.9-1.3,2.9-2.9v-23.3h23.3   c1.6,0,2.9-1.3,2.9-2.9v-12.8C282.6,119.3,281.3,118,279.7,118z"
   id="path50" />
	<path
   style="fill:#FFFFFF;"
   d="M227.7,259.3h-8.3c-0.6,0-1-0.5-1-1c0-0.6,0.5-1,1-1h8.3c0.6,0,1,0.5,1,1   C228.7,258.9,228.3,259.3,227.7,259.3z"
   id="path52" />
	<path
   style="fill:#FFFFFF;"
   d="M277.3,259.3H269c-0.6,0-1-0.5-1-1c0-0.6,0.5-1,1-1h8.3c0.6,0,1,0.5,1,1   C278.3,258.9,277.8,259.3,277.3,259.3z"
   id="path54" />
	<path
   style="fill:#FFFFFF;"
   d="M272.1,262.4v-8.3c0-0.6,0.5-1,1-1c0.6,0,1,0.5,1,1v8.3c0,0.6-0.5,1-1,1   C272.6,263.5,272.1,263,272.1,262.4z"
   id="path56" />
</g>
<g
   id="g108">
	<circle
   style="fill:#525453;"
   cx="238.3"
   cy="287"
   r="1"
   id="circle60" />
	<circle
   style="fill:#525453;"
   cx="244.7"
   cy="287"
   r="1"
   id="circle62" />
	<circle
   style="fill:#525453;"
   cx="251.2"
   cy="287"
   r="1"
   id="circle64" />
	<path
   style="fill:#525453;"
   d="M258.8,287c0,0.6-0.5,1-1,1c-0.6,0-1-0.5-1-1c0-0.6,0.5-1,1-1C258.4,285.9,258.8,286.4,258.8,287z"
   id="path66" />
	<circle
   style="fill:#525453;"
   cx="238.3"
   cy="295.4"
   r="1.4"
   id="circle68" />
	<circle
   style="fill:#525453;"
   cx="244.7"
   cy="295.4"
   r="1.4"
   id="circle70" />
	<circle
   style="fill:#525453;"
   cx="251.2"
   cy="295.4"
   r="1.4"
   id="circle72" />
	<circle
   style="fill:#525453;"
   cx="257.8"
   cy="295.4"
   r="1.4"
   id="circle74" />
	<circle
   style="fill:#525453;"
   cx="238.3"
   cy="304"
   r="2.1"
   id="circle76" />
	<circle
   style="fill:#525453;"
   cx="244.7"
   cy="304"
   r="2.1"
   id="circle78" />
	<circle
   style="fill:#525453;"
   cx="251.2"
   cy="304"
   r="2.1"
   id="circle80" />
	<circle
   style="fill:#525453;"
   cx="257.8"
   cy="304"
   r="2.1"
   id="circle82" />
	<circle
   style="fill:#525453;"
   cx="238.3"
   cy="329.7"
   r="1"
   id="circle84" />
	<circle
   style="fill:#525453;"
   cx="244.7"
   cy="329.7"
   r="1"
   id="circle86" />
	<circle
   style="fill:#525453;"
   cx="251.2"
   cy="329.7"
   r="1"
   id="circle88" />
	<path
   style="fill:#525453;"
   d="M258.8,329.7c0-0.6-0.5-1-1-1c-0.6,0-1,0.5-1,1c0,0.6,0.5,1,1,1   C258.4,330.8,258.8,330.3,258.8,329.7z"
   id="path90" />
	<circle
   style="fill:#525453;"
   cx="238.3"
   cy="321.3"
   r="1.4"
   id="circle92" />
	<circle
   style="fill:#525453;"
   cx="244.7"
   cy="321.3"
   r="1.4"
   id="circle94" />
	<circle
   style="fill:#525453;"
   cx="251.2"
   cy="321.3"
   r="1.4"
   id="circle96" />
	<circle
   style="fill:#525453;"
   cx="257.8"
   cy="321.3"
   r="1.4"
   id="circle98" />
	<circle
   style="fill:#525453;"
   cx="238.3"
   cy="312.7"
   r="2.1"
   id="circle100" />
	<circle
   style="fill:#525453;"
   cx="244.7"
   cy="312.7"
   r="2.1"
   id="circle102" />
	<circle
   style="fill:#525453;"
   cx="251.2"
   cy="312.7"
   r="2.1"
   id="circle104" />
	<circle
   style="fill:#525453;"
   cx="257.8"
   cy="312.7"
   r="2.1"
   id="circle106" />
</g>
<g
   id="g110">
</g>
<g
   id="g112">
</g>
<g
   id="g114">
</g>
<g
   id="g116">
</g>
<g
   id="g118">
</g>
<g
   id="g120">
</g>
<g
   id="g122">
</g>
<g
   id="g124">
</g>
<g
   id="g126">
</g>
<g
   id="g128">
</g>
<g
   id="g130">
</g>
<g
   id="g132">
</g>
<g
   id="g134">
</g>
<g
   id="g136">
</g>
<g
   id="g138">
</g>
</svg>
