<?xml version="1.0" encoding="UTF-8" standalone="no"?>
<svg
   xmlns:dc="http://purl.org/dc/elements/1.1/"
   xmlns:cc="http://creativecommons.org/ns#"
   xmlns:rdf="http://www.w3.org/1999/02/22-rdf-syntax-ns#"
   xmlns:svg="http://www.w3.org/2000/svg"
   xmlns="http://www.w3.org/2000/svg"
   xmlns:sodipodi="http://sodipodi.sourceforge.net/DTD/sodipodi-0.dtd"
   xmlns:inkscape="http://www.inkscape.org/namespaces/inkscape"
   inkscape:version="1.0.2 (e86c870879, 2021-01-15, custom)"
   sodipodi:docname="ps4_2.svg"
   id="svg8"
   version="1.1"
   viewBox="0 0 210 297"
   height="297mm"
   width="210mm">
  <defs
     id="defs2" />
  <sodipodi:namedview
     inkscape:window-maximized="1"
     inkscape:window-y="-11"
     inkscape:window-x="-11"
     inkscape:window-height="1360"
     inkscape:window-width="2560"
     inkscape:snap-global="true"
     inkscape:object-paths="true"
     inkscape:snap-midpoints="false"
     inkscape:snap-smooth-nodes="false"
     showgrid="false"
     inkscape:document-rotation="0"
     inkscape:current-layer="g1133"
     inkscape:document-units="mm"
     inkscape:cy="154.64301"
     inkscape:cx="140.08841"
     inkscape:zoom="2"
     inkscape:pageshadow="2"
     inkscape:pageopacity="0.0"
     borderopacity="1.0"
     bordercolor="#666666"
     pagecolor="#ffffff"
     id="base"
     inkscape:object-nodes="false"
     inkscape:snap-others="false"
     showguides="false" />
  <metadata
     id="metadata5">
    <rdf:RDF>
      <cc:Work
         rdf:about="">
        <dc:format>image/svg+xml</dc:format>
        <dc:type
           rdf:resource="http://purl.org/dc/dcmitype/StillImage" />
      </cc:Work>
    </rdf:RDF>
  </metadata>
  <g
     id="layer1"
     inkscape:groupmode="layer"
     inkscape:label="Ebene 1">
    <g
       id="g1133"
       transform="matrix(1.5726823,0,0,1.5726823,1.122933,-0.5224683)"
       style="stroke-width:0.63585633">
      <path
         inkscape:connector-curvature="0"
         style="fill:#3a3a42;fill-opacity:1;stroke:none;stroke-width:0.381514;stroke-linecap:square;stroke-linejoin:miter;stroke-miterlimit:4;stroke-dasharray:none;stroke-dashoffset:0;stroke-opacity:1;paint-order:normal"
         d="M 29.4414,4.31844 C 28.7128,4.31898 27.9562,4.34807 27.1971,4.40473 23.0121,4.71698 19.6707,5.78076 19.7335,6.78082 V 9.89329 H 34.9108 L 34.8891,5.65014 C 34.8391,4.85616 32.6305,4.31625 29.4414,4.31844 Z"
         id="left_trigger" />
      <path
         id="right_trigger"
         d="M 101.178,4.31844 C 101.907,4.31898 102.663,4.34807 103.423,4.40473 107.608,4.71698 110.949,5.78076 110.886,6.78082 V 9.89329 H 95.7089 L 95.7306,5.65014 C 95.7806,4.85616 97.9893,4.31625 101.178,4.31843 Z"
         style="fill:#3a3a42;fill-opacity:1;stroke:none;stroke-width:0.381514;stroke-linecap:square;stroke-linejoin:miter;stroke-miterlimit:4;stroke-dasharray:none;stroke-dashoffset:0;stroke-opacity:1;paint-order:normal"
         inkscape:connector-curvature="0" />
      <path
         id="right_handle"
         style="fill:#232429;fill-opacity:1;stroke-width:1.9552;stroke-linecap:square"
         d="M 92.749138,8.3605876 C 92.749138,8.3605876 94.154777,7.4509946 94.943776,7.2026446 95.933376,6.8911746 96.996974,6.8840826 98.032173,6.8165546 99.174373,6.7420336 100.31989,6.6996296 101.46559,6.6920186 V 6.6920186 C 102.61129,6.6844196 103.75719,6.7116586 104.89999,6.7758086 106.22109,6.8499676 107.53693,7.0238496 108.84173,7.2433886 109.90483,7.4222596 112.00143,7.9344096 112.00143,7.9344096 113.31913,10.248748 115.13528,12.262171 116.39728,14.60047 118.53888,18.568671 118.65586,19.673061 119.50506,22.686361 121.9552,31.493863 124.32105,40.025201 125.6858,48.040202 127.0476,56.037902 127.47744,64.468246 126.08569,70.614845 124.69395,76.761446 121.29781,80.096061 116.49093,80.930861 107.53363,82.486562 103.24835,75.389118 100.33985,68.641018 97.431246,61.893017 96.015659,55.046482 94.89646,54.197282 94.081945,53.999935 93.343634,53.744711 92.675937,53.436188 92.664952,53.431112 92.654034,53.426003 92.643177,53.420856" />
      <path
         id="left_handle"
         style="fill:#232429;fill-opacity:1;stroke-width:1.9552;stroke-linecap:square"
         d="M 37.908194,8.3605876 C 37.908194,8.3605876 36.502555,7.4509946 35.713556,7.2026446 34.723956,6.8911746 33.660358,6.8840826 32.625159,6.8165546 31.482959,6.7420336 30.337444,6.6996296 29.191745,6.6920186 V 6.6920186 C 28.046044,6.6844196 26.900143,6.7116586 25.757343,6.7758086 24.436243,6.8499676 23.120403,7.0238496 21.815604,7.2433886 20.752503,7.4222596 18.655903,7.9344096 18.655903,7.9344096 17.338202,10.248749 15.522054,12.262172 14.260054,14.600471 12.118454,18.568672 12.00147,19.673062 11.15227,22.686362 8.7021294,31.493864 6.336282,40.025202 4.9715319,48.040203 3.6097319,56.037903 3.1798904,64.468247 4.5716405,70.614846 5.9633805,76.761447 9.3595259,80.096062 14.166406,80.930862 23.123706,82.486563 27.408986,75.389119 30.317486,68.641019 33.226086,61.893018 34.641673,55.046483 35.760872,54.197283 36.575387,53.999936 37.313698,53.744712 37.981395,53.436189 37.99238,53.431113 38.003298,53.426004 38.014155,53.420857" />
      <path
         id="body_center"
         style="fill:#232429;fill-opacity:1;stroke:none;stroke-width:0;stroke-linecap:square;stroke-miterlimit:4;stroke-dasharray:none;stroke-opacity:1"
         d="M 37.818686,8.3675575 37.70682,53.246006 C 37.701941,53.24832 37.568593,53.615334 37.563689,53.617632 38.605222,53.521449 40.76872,53.378417 43.163812,53.318945 47.699512,53.206245 55.137562,53.081833 61.004161,52.807335 H 69.614806 C 75.481408,53.081833 82.919456,53.206245 87.455156,53.318945 90.371374,53.391358 92.037802,53.489884 93.051337,53.617303 92.983645,53.587727 92.913576,53.559874 92.847284,53.529241 92.836298,53.524162 92.825282,53.518948 92.814424,53.513799 L 92.92023,8.4535573 92.711248,8.3694388 H 86.128319 V 8.7923311 H 74.095759 56.523209 44.490978 V 8.3694388 L 38.080509,8.3706649 Z"
         sodipodi:nodetypes="ccccccccsccccccccccc" />
      <path
         inkscape:connector-curvature="0"
         style="fill:#333439;fill-opacity:1;stroke-width:1.9552;stroke-linecap:square"
         d="M 29.5785,70.2596 C 29.1657,70.4709 28.7522,70.6824 28.3465,70.8973 27.7622,71.2068 27.1788,71.5114 26.5766,71.7851 25.9743,72.0588 25.3536,72.3016 24.695,72.4884 24.0365,72.6752 23.341,72.806 22.6238,72.8915 21.9067,72.977 21.1675,73.0176 20.4204,73.0243 19.6733,73.031 18.9187,73.0039 18.1704,72.954 17.422,72.9042 16.68,72.8318 15.9591,72.7478 14.5175,72.58 13.1696,72.3664 11.9413,72.1102 10.7129,71.8539 9.60401,71.5547 8.64123,71.2146 8.15984,71.0446 7.7154,70.8641 7.29093,70.642 6.86645,70.4199 6.46197,70.156 6.06206,69.8183 5.66215,69.4807 5.2667,69.0694 4.85903,68.5528 4.5967,68.2203 4.31497,67.7598 4.03841,67.3316 4.17356,68.4787 4.33819,69.5931 4.57171,70.6245 5.96346,76.7711 9.35964,80.1058 14.1665,80.9406 22.4117,82.3726 26.6805,76.47 29.5785,70.2596 Z"
         id="path1035" />
      <path
         inkscape:connector-curvature="0"
         style="fill:#333439;fill-opacity:1;stroke-width:1.9552;stroke-linecap:square"
         d="M 126.656,66.633 C 126.652,66.6392 126.648,66.649 126.644,66.6552 126.197,67.4143 125.777,68.0361 125.369,68.5528 124.961,69.0694 124.566,69.4807 124.166,69.8183 123.766,70.156 123.362,70.4199 122.938,70.642 122.513,70.8642 122.068,71.0446 121.587,71.2146 120.624,71.5547 119.515,71.8539 118.287,72.1102 117.058,72.3664 115.711,72.58 114.269,72.7479 113.548,72.8318 112.806,72.9042 112.058,72.954 111.31,73.0039 110.555,73.031 109.808,73.0243 109.061,73.0176 108.321,72.9771 107.604,72.8915 106.887,72.806 106.192,72.6752 105.533,72.4884 104.874,72.3016 104.254,72.0589 103.651,71.7851 103.049,71.5114 102.466,71.2068 101.882,70.8973 101.645,70.772 101.401,70.6506 101.163,70.5253 104.059,76.6369 108.326,82.3522 116.453,80.9406 121.26,80.1058 124.656,76.7711 126.048,70.6245 126.328,69.3858 126.516,68.0349 126.656,66.633 Z"
         id="path1046" />
      <circle
         r="3.3243206"
         cy="44.804321"
         cx="65.440628"
         id="path917"
         style="fill:#000004;fill-opacity:1;stroke:none;stroke-width:2.20833;stroke-linecap:square" />
      <path
         inkscape:connector-curvature="0"
         d="M 60.7714,33.9419 C 60.3917,33.9466 60.0865,34.2558 60.0867,34.6354 60.0868,35.0181 60.397,35.3283 60.7796,35.3284 61.1623,35.3283 61.4725,35.0181 61.4726,34.6354 61.4727,34.4516 61.3997,34.2752 61.2698,34.1452 61.1398,34.0151 60.9635,33.942 60.7796,33.9419 60.777,33.9419 60.7743,33.9419 60.7716,33.9419 Z M 63.0307,33.9419 C 62.651,33.9466 62.3458,34.2558 62.346,34.6354 62.3461,35.0181 62.6563,35.3283 63.0389,35.3284 63.2228,35.3285 63.3992,35.2555 63.5292,35.1256 63.6593,34.9956 63.7324,34.8193 63.7324,34.6354 63.7325,34.4515 63.6595,34.2751 63.5294,34.145 63.3993,34.0149 63.2229,33.9419 63.0389,33.9419 63.0363,33.9419 63.0336,33.9419 63.0309,33.9419 Z M 65.2895,33.9419 C 64.91,33.9469 64.6051,34.256 64.6053,34.6354 64.6053,34.8193 64.6784,34.9956 64.8085,35.1256 64.9385,35.2555 65.1149,35.3285 65.2988,35.3284 65.6814,35.3283 65.9916,35.0181 65.9917,34.6354 65.9918,34.4516 65.9189,34.2752 65.7889,34.1452 65.6589,34.0151 65.4826,33.942 65.2988,33.9419 65.2958,33.9419 65.2928,33.9419 65.2898,33.9419 Z M 67.5487,33.9419 C 67.1695,33.9471 66.8649,34.2562 66.8651,34.6354 66.8652,35.0181 67.1754,35.3283 67.558,35.3284 67.9407,35.3283 68.2509,35.0181 68.251,34.6354 68.2511,34.4516 68.1781,34.2752 68.0482,34.1452 67.9182,34.0151 67.7419,33.942 67.558,33.9419 67.555,33.9419 67.552,33.9419 67.549,33.9419 Z M 69.8091,33.9419 C 69.4294,33.9466 69.1242,34.2558 69.1244,34.6354 69.1245,35.0181 69.4347,35.3283 69.8173,35.3284 70.0012,35.3285 70.1776,35.2555 70.3076,35.1256 70.4377,34.9956 70.5108,34.8193 70.5108,34.6354 70.5109,34.4515 70.4379,34.2751 70.3078,34.145 70.1777,34.0149 70.0013,33.9419 69.8173,33.9419 69.8147,33.9419 69.812,33.9419 69.8093,33.9419 Z M 61.9093,35.6121 C 61.7254,35.6122 61.5491,35.6853 61.4192,35.8153 61.2892,35.9454 61.2162,36.1218 61.2163,36.3056 61.2164,36.6883 61.5266,36.9985 61.9093,36.9986 62.0932,36.9987 62.2695,36.9257 62.3996,36.7958 62.5296,36.6658 62.6027,36.4895 62.6028,36.3056 62.6029,36.1217 62.5298,35.9452 62.3998,35.8152 62.2697,35.6851 62.0932,35.612 61.9093,35.6121 Z M 64.1691,35.6121 C 63.9852,35.612 63.8087,35.6851 63.6786,35.8152 63.5486,35.9452 63.4755,36.1217 63.4756,36.3056 63.4757,36.4895 63.5488,36.6658 63.6788,36.7958 63.8089,36.9257 63.9852,36.9987 64.1691,36.9986 64.5518,36.9985 64.862,36.6883 64.8621,36.3056 64.8622,36.1218 64.7892,35.9454 64.6592,35.8153 64.5293,35.6853 64.353,35.6122 64.1691,35.6121 Z M 66.4284,35.6121 C 66.2445,35.6122 66.0682,35.6853 65.9383,35.8153 65.8083,35.9454 65.7353,36.1218 65.7354,36.3056 65.7355,36.6883 66.0457,36.9985 66.4284,36.9986 66.8111,36.9985 67.1213,36.6883 67.1214,36.3056 67.1215,36.1218 67.0485,35.9454 66.9185,35.8153 66.7886,35.6853 66.6123,35.6122 66.4284,35.6121 Z M 68.6877,35.6121 C 68.5038,35.6122 68.3275,35.6853 68.1976,35.8153 68.0676,35.9454 67.9946,36.1218 67.9947,36.3056 67.9948,36.6883 68.305,36.9985 68.6877,36.9986 68.8716,36.9987 69.0479,36.9257 69.178,36.7958 69.308,36.6658 69.3811,36.4895 69.3812,36.3056 69.3813,36.1217 69.3082,35.9452 69.1782,35.8152 69.0481,35.6851 68.8716,35.6121 68.6877,35.6121 Z M 62.9749,37.3138 C 62.5952,37.3185 62.2899,37.6277 62.2901,38.0073 62.2902,38.1912 62.3633,38.3675 62.4934,38.4975 62.6234,38.6274 62.7998,38.7004 62.9836,38.7003 63.3663,38.7002 63.6765,38.39 63.6766,38.0073 63.6767,37.8235 63.6037,37.6471 63.4738,37.517 63.3438,37.387 63.1675,37.3139 62.9836,37.3138 62.9806,37.3138 62.9776,37.3138 62.9746,37.3138 Z M 65.2342,37.3138 C 64.8547,37.3188 64.5498,37.6279 64.55,38.0073 64.5501,38.39 64.8603,38.7002 65.2429,38.7003 65.6256,38.7002 65.9358,38.39 65.9359,38.0073 65.936,37.8235 65.863,37.6471 65.7331,37.517 65.6031,37.387 65.4268,37.3139 65.2429,37.3138 65.2399,37.3138 65.2369,37.3138 65.2339,37.3138 Z M 67.494,37.3138 C 67.1143,37.3185 66.8091,37.6277 66.8093,38.0073 66.8094,38.39 67.1196,38.7002 67.5022,38.7003 67.6861,38.7004 67.8625,38.6274 67.9925,38.4975 68.1226,38.3675 68.1957,38.1912 68.1957,38.0073 68.1958,37.8234 68.1228,37.6469 67.9927,37.5169 67.8626,37.3868 67.6862,37.3138 67.5022,37.3138 67.4996,37.3138 67.4969,37.3138 67.4942,37.3138 Z"
         style="fill:#000000;stroke:none;stroke-width:1.91822;stroke-linecap:square"
         id="mic" />
      <path
         inkscape:connector-curvature="0"
         style="fill:#3a3b40;fill-opacity:1;stroke:none;stroke-width:2.20833;stroke-linecap:square"
         d="M 39.9989,11.2471 C 41.1115,11.2471 42.0072,12.1428 42.0072,13.2555 V 16.1521 C 42.0072,17.2647 41.1115,18.1604 39.9989,18.1604 38.8862,18.1604 37.9905,17.2647 37.9905,16.1521 V 13.2555 C 37.9905,12.1428 38.8862,11.2471 39.9989,11.2471 Z"
         id="share" />
      <path
         inkscape:connector-curvature="0"
         style="fill:#3a3b40;fill-opacity:1;stroke:none;stroke-width:2.20833;stroke-linecap:square"
         d="M 90.6208,11.2471 C 91.7335,11.2471 92.6292,12.1428 92.6292,13.2555 V 16.1521 C 92.6292,17.2647 91.7335,18.1604 90.6208,18.1604 89.5082,18.1604 88.6125,17.2647 88.6125,16.1521 V 13.2555 C 88.6125,12.1428 89.5082,11.2471 90.6208,11.2471 Z"
         id="menu" />
      <path
         inkscape:connector-curvature="0"
         d="M 45.5801,8.01278 C 44.9597,8.01278 44.4602,8.51226 44.4602,9.13261 V 14.0915 25.6391 28.8208 C 44.4602,29.9334 45.3763,30.829 46.5144,30.829 H 84.0113 C 85.1494,30.829 86.066,29.9334 86.066,28.8208 V 25.6391 14.0915 9.13261 C 86.066,8.51226 85.5665,8.01278 84.9461,8.01278 Z"
         style="fill:#0f1014;fill-opacity:1;stroke:none;stroke-width:2.23346;stroke-linecap:square"
         id="trackpad" />
      <circle
         style="fill:#2d3135;fill-opacity:1;stroke:none;stroke-width:2.20833;stroke-linecap:square"
         id="left_circle"
         cx="26.421196"
         cy="26.964251"
         r="14.632071" />
      <path
         inkscape:connector-curvature="0"
         d="M 25.3174,16.675 C 25.2548,16.6787 25.187,16.6807 25.1288,16.6853 24.5791,16.7282 24.2581,16.8138 23.9754,16.9457 23.6926,17.0777 23.4482,17.2557 23.2602,17.5002 23.0721,17.7447 22.9404,18.0559 22.9232,18.8381 22.9061,19.6204 23.0036,20.8738 23.0881,21.5682 23.1725,22.2626 23.2439,22.3977 23.6012,22.7883 23.9585,23.1788 24.6012,23.8249 25.0389,24.259 25.4765,24.6931 25.7115,24.9177 25.89,25.062 26.0226,25.1693 26.1207,25.2245 26.2109,25.2631 26.335,25.3087 26.5383,25.317 26.6326,25.2625 26.7225,25.224 26.8207,25.1691 26.953,25.062 27.1314,24.9177 27.3664,24.6931 27.8041,24.259 28.2417,23.8249 28.8844,23.1788 29.2417,22.7883 29.599,22.3977 29.6704,22.2626 29.7548,21.5682 29.8393,20.8738 29.9369,19.6204 29.9197,18.8381 29.9025,18.0559 29.7708,17.7447 29.5828,17.5002 29.3947,17.2557 29.1503,17.0777 28.8676,16.9457 28.5848,16.8138 28.2638,16.7282 27.7141,16.6853 27.656,16.6807 27.5881,16.6786 27.5255,16.675 Z M 18.2951,23.4658 C 17.5128,23.4829 17.2017,23.6146 16.9572,23.8027 16.7127,23.9908 16.5346,24.2351 16.4027,24.5179 16.2708,24.8007 16.1852,25.1216 16.1422,25.6713 16.1376,25.7295 16.1355,25.7973 16.1319,25.8599 V 28.0681 C 16.1355,28.1306 16.1377,28.1985 16.1422,28.2567 16.1852,28.8064 16.2708,29.1273 16.4027,29.4101 16.5346,29.6929 16.7127,29.9372 16.9572,30.1253 17.2017,30.3134 17.5128,30.4451 18.2951,30.4622 19.0774,30.4794 20.3307,30.3818 21.0251,30.2974 21.7196,30.2129 21.8547,30.1415 22.2452,29.7842 22.6358,29.4269 23.2819,28.7842 23.7159,28.3466 24.15,27.909 24.3746,27.6739 24.519,27.4955 24.626,27.3632 24.681,27.2651 24.7195,27.1751 24.7467,27.128 24.7582,27.0537 24.7572,26.9756 24.7563,26.8975 24.7429,26.8155 24.72,26.7534 24.6815,26.6633 24.6263,26.5651 24.519,26.4325 24.3746,26.2541 24.15,26.019 23.7159,25.5814 23.2818,25.1438 22.6358,24.5011 22.2452,24.1437 21.8547,23.7864 21.7196,23.715 21.0251,23.6306 20.3307,23.5462 19.0773,23.4486 18.2951,23.4658 Z M 34.5478,23.4658 C 33.7656,23.4486 32.5122,23.5462 31.8178,23.6306 31.1234,23.715 30.9882,23.7864 30.5977,24.1437 30.2071,24.5011 29.5611,25.1438 29.127,25.5814 28.6929,26.019 28.4683,26.2541 28.3239,26.4325 28.2166,26.5651 28.1614,26.6633 28.1229,26.7534 28.0772,26.8775 28.069,27.0808 28.1234,27.1751 28.162,27.2651 28.2169,27.3632 28.3239,27.4955 28.4683,27.6739 28.6929,27.909 29.127,28.3466 29.5611,28.7842 30.2071,29.4269 30.5977,29.7842 30.9882,30.1415 31.1234,30.2129 31.8178,30.2974 32.5122,30.3818 33.7656,30.4794 34.5478,30.4622 35.3301,30.4451 35.6412,30.3134 35.8857,30.1253 36.1302,29.9372 36.3083,29.6929 36.4402,29.4101 36.5721,29.1273 36.6577,28.8064 36.7007,28.2567 36.7057,28.1985 36.7077,28.1306 36.7107,28.0681 V 25.8599 C 36.7067,25.7973 36.7047,25.7295 36.7007,25.6713 36.6577,25.1216 36.5721,24.8007 36.4402,24.5179 36.3083,24.2351 36.1302,23.9908 35.8857,23.8027 35.6412,23.6146 35.3301,23.4829 34.5478,23.4658 Z M 26.4331,28.6282 C 26.355,28.6292 26.2729,28.6426 26.2109,28.6654 26.1207,28.704 26.0226,28.7592 25.89,28.8665 25.7115,29.0108 25.4765,29.2354 25.0389,29.6695 24.6012,30.1036 23.9585,30.7497 23.6012,31.1402 23.2439,31.5308 23.1725,31.6659 23.0881,32.3603 23.0036,33.0547 22.9061,34.3081 22.9232,35.0904 22.9404,35.8726 23.0721,36.1838 23.2602,36.4283 23.4482,36.6728 23.6926,36.8508 23.9754,36.9828 24.2581,37.1147 24.5791,37.2003 25.1288,37.2432 25.187,37.2478 25.2548,37.2499 25.3174,37.2535 H 27.5255 C 27.5881,37.2499 27.656,37.2477 27.7141,37.2432 28.2638,37.2003 28.5848,37.1147 28.8676,36.9828 29.1503,36.8508 29.3947,36.6728 29.5828,36.4283 29.7708,36.1838 29.9025,35.8726 29.9197,35.0904 29.9369,34.3081 29.8393,33.0547 29.7548,32.3603 29.6704,31.6659 29.599,31.5308 29.2417,31.1402 28.8844,30.7497 28.2417,30.1036 27.8041,29.6695 27.3664,29.2354 27.1314,29.0108 26.953,28.8665 26.8207,28.7594 26.7225,28.7045 26.6326,28.666 26.5854,28.6387 26.5112,28.6273 26.4331,28.6282 Z"
         style="fill:#474a4f;fill-opacity:1;stroke:none;stroke-width:0.168237px;stroke-linecap:butt;stroke-linejoin:miter;stroke-opacity:1"
         id="arrows" />
      <circle
         r="14.632071"
         cy="26.964251"
         cx="104.1985"
         id="right_circle"
         style="fill:#2d3135;fill-opacity:1;stroke:none;stroke-width:2.20833;stroke-linecap:square" />
      <path
         inkscape:connector-curvature="0"
         style="fill:#474a4f;fill-opacity:1;stroke:none;stroke-width:2.20833;stroke-linecap:square"
         d="M 104.199,13.7883 C 101.872,13.7884 99.9864,15.6742 99.9864,18.0005 99.9864,20.3267 101.872,22.2126 104.199,22.2126 106.525,22.2125 108.411,20.3267 108.411,18.0005 108.411,17.9846 108.411,17.9688 108.411,17.9529 108.385,15.6452 106.506,13.7882 104.199,13.7883 Z"
         id="triangle_button" />
      <path
         inkscape:connector-curvature="0"
         style="fill:#474a4f;fill-opacity:1;stroke:none;stroke-width:2.20833;stroke-linecap:square"
         d="M 95.1872,22.7521 C 92.8795,22.7782 91.0225,24.6564 91.0226,26.9643 91.0226,29.2905 92.9084,31.1763 95.2347,31.1764 97.561,31.1763 99.4468,29.2905 99.4469,26.9643 99.4468,24.638 97.561,22.7522 95.2347,22.7521 95.2189,22.752 95.203,22.752 95.1872,22.7521 Z"
         id="square_button" />
      <path
         style="fill:#474a4f;fill-opacity:1;stroke:none;stroke-width:2.20833;stroke-linecap:square"
         d="M 113.2,22.7521 C 110.893,22.7779 109.035,24.6562 109.035,26.9643 109.035,28.0815 109.479,29.1529 110.269,29.9428 111.059,30.7328 112.131,31.1765 113.248,31.1764 115.574,31.1763 117.46,29.2905 117.46,26.9643 117.46,24.638 115.574,22.7522 113.248,22.7521 113.232,22.752 113.216,22.752 113.2,22.7521 Z"
         id="circle_button"
         inkscape:connector-curvature="0" />
      <path
         inkscape:connector-curvature="0"
         style="fill:#474a4f;fill-opacity:1;stroke:none;stroke-width:2.20833;stroke-linecap:square"
         d="M 104.199,31.7154 C 103.081,31.7154 102.01,32.1593 101.22,32.9493 100.43,33.7393 99.9862,34.8108 99.9864,35.928 99.9864,38.2543 101.872,40.1401 104.199,40.1402 106.525,40.1401 108.411,38.2543 108.411,35.928 108.411,35.9122 108.411,35.8964 108.411,35.8805 108.385,33.5726 106.507,31.7153 104.199,31.7154 Z"
         id="cross_button" />
      <circle
         r="11.19308"
         cy="44.56337"
         cx="45.925743"
         id="left_analog_base"
         style="fill:#18191d;fill-opacity:1;stroke:none;stroke-width:3.0155;stroke-linecap:square" />
      <circle
         style="fill:#292a2f;fill-opacity:1;stroke:none;stroke-width:2.0074;stroke-linecap:square"
         id="left_analog"
         cx="45.925743"
         cy="44.56337"
         r="7.4511371" />
      <circle
         r="5.1363363"
         cy="44.56337"
         cx="45.925743"
         id="left_analog_inner"
         style="opacity:0.221945;fill:#808080;stroke:none;stroke-width:1.38377;stroke-linecap:square" />
      <circle
         style="fill:#18191d;fill-opacity:1;stroke:none;stroke-width:3.0155;stroke-linecap:square"
         id="right_analog_base"
         cx="84.693954"
         cy="44.56337"
         r="11.19308" />
      <circle
         r="7.4511371"
         cy="44.56337"
         cx="84.693954"
         id="right_analog"
         style="fill:#292a2f;fill-opacity:1;stroke:none;stroke-width:2.0074;stroke-linecap:square" />
      <circle
         style="opacity:0.221945;fill:#808080;stroke:none;stroke-width:1.38377;stroke-linecap:square"
         id="right_analog_inner"
         cx="84.693954"
         cy="44.56337"
         r="5.1363363" />
      <path
         style="color:#000000;font-style:normal;font-variant:normal;font-weight:normal;font-stretch:normal;font-size:medium;line-height:normal;font-family:sans-serif;font-variant-ligatures:normal;font-variant-position:normal;font-variant-caps:normal;font-variant-numeric:normal;font-variant-alternates:normal;font-feature-settings:normal;text-indent:0;text-align:start;text-decoration:none;text-decoration-line:none;text-decoration-style:solid;text-decoration-color:#000000;letter-spacing:normal;word-spacing:normal;text-transform:none;writing-mode:lr-tb;direction:ltr;text-orientation:mixed;dominant-baseline:auto;baseline-shift:baseline;text-anchor:start;white-space:normal;shape-padding:0;clip-rule:nonzero;display:inline;overflow:visible;visibility:visible;isolation:auto;mix-blend-mode:normal;color-interpolation:sRGB;color-interpolation-filters:linearRGB;solid-color:#000000;solid-opacity:1;vector-effect:none;fill:#c9b2cc;fill-opacity:1;fill-rule:nonzero;stroke:none;stroke-width:0.381514;stroke-linecap:square;stroke-linejoin:miter;stroke-miterlimit:4;stroke-dasharray:none;stroke-dashoffset:0;stroke-opacity:1;paint-order:normal;color-rendering:auto;image-rendering:auto;shape-rendering:auto;text-rendering:auto;enable-background:accumulate"
         d="M 92.7913,24.5209 V 24.8198 29.4076 H 97.6781 V 24.5209 Z M 93.3909,25.1205 H 97.0784 V 28.808 H 93.3909 Z"
         id="square"
         inkscape:connector-curvature="0" />
      <path
         style="color:#000000;font-style:normal;font-variant:normal;font-weight:normal;font-stretch:normal;font-size:medium;line-height:normal;font-family:sans-serif;font-variant-ligatures:normal;font-variant-position:normal;font-variant-caps:normal;font-variant-numeric:normal;font-variant-alternates:normal;font-feature-settings:normal;text-indent:0;text-align:start;text-decoration:none;text-decoration-line:none;text-decoration-style:solid;text-decoration-color:#000000;letter-spacing:normal;word-spacing:normal;text-transform:none;writing-mode:lr-tb;direction:ltr;text-orientation:mixed;dominant-baseline:auto;baseline-shift:baseline;text-anchor:start;white-space:normal;shape-padding:0;clip-rule:nonzero;display:inline;overflow:visible;visibility:visible;isolation:auto;mix-blend-mode:normal;color-interpolation:sRGB;color-interpolation-filters:linearRGB;solid-color:#000000;solid-opacity:1;vector-effect:none;fill:#4a978e;fill-opacity:1;fill-rule:nonzero;stroke:none;stroke-width:0.381514;stroke-linecap:square;stroke-linejoin:miter;stroke-miterlimit:4;stroke-dasharray:none;stroke-dashoffset:0;stroke-opacity:1;paint-order:normal;color-rendering:auto;image-rendering:auto;shape-rendering:auto;text-rendering:auto;enable-background:accumulate"
         d="M 104.198,14.7814 101.161,20.0427 107.236,20.0428 106.976,19.5926 Z M 104.199,15.9806 106.197,19.4428 102.199,19.4435 Z"
         id="triangle"
         inkscape:connector-curvature="0" />
      <path
         style="color:#000000;font-style:normal;font-variant:normal;font-weight:normal;font-stretch:normal;font-size:medium;line-height:normal;font-family:sans-serif;font-variant-ligatures:normal;font-variant-position:normal;font-variant-caps:normal;font-variant-numeric:normal;font-variant-alternates:normal;font-feature-settings:normal;text-indent:0;text-align:start;text-decoration:none;text-decoration-line:none;text-decoration-style:solid;text-decoration-color:#000000;letter-spacing:normal;word-spacing:normal;text-transform:none;writing-mode:lr-tb;direction:ltr;text-orientation:mixed;dominant-baseline:auto;baseline-shift:baseline;text-anchor:start;white-space:normal;shape-padding:0;clip-rule:nonzero;display:inline;overflow:visible;visibility:visible;isolation:auto;mix-blend-mode:normal;color-interpolation:sRGB;color-interpolation-filters:linearRGB;solid-color:#000000;solid-opacity:1;vector-effect:none;fill:#bc8282;fill-opacity:1;fill-rule:nonzero;stroke:none;stroke-width:0.381514;stroke-linecap:square;stroke-linejoin:miter;stroke-miterlimit:4;stroke-dasharray:none;stroke-dashoffset:0;stroke-opacity:1;paint-order:normal;color-rendering:auto;image-rendering:auto;shape-rendering:auto;text-rendering:auto;enable-background:accumulate"
         d="M 113.248,23.9526 C 111.588,23.9526 110.235,25.304 110.235,26.9643 110.235,28.6245 111.588,29.976 113.248,29.976 114.909,29.976 116.26,28.6245 116.26,26.9643 116.26,25.304 114.909,23.9526 113.248,23.9526 Z M 113.248,24.5522 C 114.584,24.5522 115.66,25.6283 115.66,26.9643 115.66,28.3003 114.584,29.3764 113.248,29.3764 111.912,29.3764 110.834,28.3003 110.834,26.9643 110.834,25.6283 111.912,24.5522 113.248,24.5522 Z"
         id="circle"
         inkscape:connector-curvature="0" />
      <path
         style="color:#000000;font-style:normal;font-variant:normal;font-weight:normal;font-stretch:normal;font-size:medium;line-height:normal;font-family:sans-serif;font-variant-ligatures:normal;font-variant-position:normal;font-variant-caps:normal;font-variant-numeric:normal;font-variant-alternates:normal;font-feature-settings:normal;text-indent:0;text-align:start;text-decoration:none;text-decoration-line:none;text-decoration-style:solid;text-decoration-color:#000000;letter-spacing:normal;word-spacing:normal;text-transform:none;writing-mode:lr-tb;direction:ltr;text-orientation:mixed;dominant-baseline:auto;baseline-shift:baseline;text-anchor:start;white-space:normal;shape-padding:0;clip-rule:nonzero;display:inline;overflow:visible;visibility:visible;isolation:auto;mix-blend-mode:normal;color-interpolation:sRGB;color-interpolation-filters:linearRGB;solid-color:#000000;solid-opacity:1;vector-effect:none;fill:#afd3f6;fill-opacity:1;fill-rule:nonzero;stroke:none;stroke-width:0.381514;stroke-linecap:butt;stroke-linejoin:miter;stroke-miterlimit:4;stroke-dasharray:none;stroke-dashoffset:0;stroke-opacity:1;color-rendering:auto;image-rendering:auto;shape-rendering:auto;text-rendering:auto;enable-background:accumulate"
         d="M 102.083,33.3879 101.659,33.8127 C 102.364,34.5176 103.069,35.2228 103.774,35.9278 103.069,36.6328 102.364,37.3377 101.659,38.0429 L 102.083,38.4677 C 102.789,37.7625 103.493,37.0576 104.199,36.3526 104.904,37.0576 105.608,37.7625 106.314,38.4677 L 106.738,38.0429 C 106.033,37.3378 105.328,36.6328 104.623,35.9278 105.328,35.2228 106.034,34.5176 106.738,33.8127 L 106.314,33.3879 C 105.609,34.0928 104.904,34.798 104.199,35.503 103.493,34.798 102.788,34.0928 102.083,33.3879 Z"
         id="cross"
         inkscape:connector-curvature="0" />
      <path
         d="M 65.571349,43.238617 C 64.879028,43.238617 64.315562,43.802083 64.315562,44.494445 64.315562,45.186727 64.879028,45.750232 65.571349,45.750232 66.263672,45.750232 66.827137,45.186766 66.827137,44.494445 66.827137,43.802083 66.263711,43.238617 65.571349,43.238617 Z M 65.248968,44.966574 C 65.248482,44.975314 65.230839,44.988201 65.219864,44.990233 65.021622,45.02328 64.828544,45.002142 64.641481,44.929504 64.625301,44.923325 64.610382,44.913569 64.596198,44.903651 64.52482,44.853165 64.525064,44.786219 64.597946,44.739716 64.629529,44.719555 64.663348,44.700655 64.698429,44.687728 64.87854,44.621309 65.059141,44.557125 65.249212,44.488713 65.249212,44.555377 65.250472,44.617041 65.247708,44.678256 65.24722,44.686711 65.22779,44.697157 65.215352,44.701629 65.115601,44.738172 65.015364,44.772763 64.915855,44.80959 64.892728,44.818046 64.871833,44.832231 64.849679,44.843939 64.850169,44.849425 64.850657,44.855117 64.850901,44.860603 64.87281,44.868288 64.895207,44.883448 64.916343,44.881986 64.978047,44.87776 65.039996,44.870522 65.100155,44.857109 65.148932,44.846135 65.195191,44.824508 65.250147,44.804876 65.250472,44.863083 65.251692,44.915073 65.248968,44.966574 Z M 65.65419,43.912808 C 65.64724,43.929191 65.649232,43.94984 65.649232,43.968782 65.648948,44.354331 65.649232,44.740204 65.649232,45.125795 65.649232,45.144208 65.649232,45.162336 65.649232,45.187701 65.536025,45.151892 65.431032,45.118843 65.326321,45.084496 65.31811,45.081771 65.310674,45.068805 65.308152,45.059131 65.3049,45.046895 65.306934,45.033238 65.306934,45.020068 65.30742,44.564563 65.30791,44.10906 65.308436,43.653593 65.308436,43.637661 65.308436,43.622012 65.308436,43.599858 65.339533,43.606077 65.366646,43.609286 65.392497,43.616766 65.540295,43.660057 65.688051,43.703104 65.835075,43.74912 65.873366,43.76107 65.909705,43.781474 65.945272,43.801107 66.061241,43.865535 66.128393,43.964066 66.145059,44.096132 66.156482,44.187712 66.16071,44.278481 66.131117,44.368273 66.08112,44.519566 65.941534,44.562327 65.794792,44.492453 65.783329,44.486965 65.775851,44.461844 65.775851,44.445911 65.774389,44.291651 65.776381,44.137431 65.774143,43.983171 65.773616,43.952562 65.765161,43.919272 65.749998,43.893136 65.74077,43.877446 65.710406,43.865047 65.691751,43.867485 65.676831,43.868787 65.66167,43.89464 65.65419,43.912808 Z M 66.538821,44.678256 C 66.617921,44.730734 66.62166,44.79443 66.542031,44.845929 66.492804,44.878002 66.436548,44.901375 66.381105,44.921781 66.168433,45.00015 65.954459,45.075756 65.741016,45.152418 65.731788,45.155628 65.72187,45.157622 65.705205,45.162092 65.705205,45.098885 65.703457,45.042179 65.706667,44.985963 65.70744,44.974297 65.72561,44.958608 65.738781,44.953892 65.892997,44.897391 66.047952,44.842963 66.202698,44.787437 66.223104,44.780201 66.244485,44.773739 66.263427,44.763293 66.27485,44.757114 66.28233,44.743863 66.291516,44.73366 66.280784,44.72549 66.27111,44.712766 66.25916,44.7098 66.190748,44.692605 66.123312,44.70106 66.057666,44.723984 65.957387,44.758781 65.857636,44.794632 65.757395,44.829955 65.742721,44.835159 65.727765,44.839629 65.705652,44.846621 65.705652,44.778698 65.704676,44.717035 65.706912,44.655048 65.707156,44.646836 65.722316,44.634884 65.732763,44.631673 65.9947,44.549077 66.253672,44.551799 66.508415,44.661023 66.519187,44.665534 66.529144,44.671794 66.538821,44.678256 Z"
         id="path8"
         style="stroke-width:0.0406482;stroke:#232429;stroke-opacity:1" />
      <path
         style="fill:#ffffff;fill-opacity:1;fill-rule:evenodd;stroke-width:0.0249567"
         id="ps_logo"
         d="M 68.019326,45.506475 C 67.9228,45.628254 67.686313,45.715128 67.686313,45.715128 L 65.927091,46.347027 V 45.881015 L 67.221759,45.419713 C 67.36868,45.367076 67.39124,45.292662 67.271817,45.253603 67.152621,45.21443 66.936786,45.225657 66.789755,45.27852 L 65.927091,45.58235 V 45.098712 L 65.976813,45.081879 C 65.976813,45.081879 66.226094,44.993659 66.576614,44.954824 66.927135,44.916216 67.356333,44.960098 67.693273,45.087826 68.072975,45.20781 68.115738,45.384698 68.019326,45.506475 Z M 66.094551,44.712949 V 43.521205 C 66.094551,43.381243 66.068736,43.252395 65.937416,43.215918 65.836852,43.183703 65.774447,43.277085 65.774447,43.416935 V 46.401351 L 64.969587,46.145898 V 42.587496 C 65.311802,42.65102 65.810363,42.801198 66.078389,42.891548 66.760011,43.125564 66.99111,43.416824 66.99111,44.073082 66.99111,44.712728 66.596256,44.95516 66.094551,44.712949 Z M 63.492755,45.832304 C 63.102951,45.722534 63.038077,45.493792 63.215752,45.362027 63.379956,45.240357 63.659205,45.148772 63.659205,45.148772 L 64.813238,44.738429 V 45.206236 L 63.982788,45.503444 C 63.836092,45.556084 63.813532,45.630611 63.93273,45.669669 64.052038,45.708727 64.267984,45.697616 64.414905,45.644864 L 64.813238,45.500301 V 45.918838 C 64.787984,45.923329 64.759812,45.927817 64.733773,45.932195 64.335327,45.997293 63.910955,45.970133 63.492755,45.832304 Z" />
    </g>
  </g>
</svg>
