<?xml version="1.0" encoding="UTF-8" standalone="no"?>
<!-- Creator: CorelDRAW X7 -->

<svg
   xmlns:dc="http://purl.org/dc/elements/1.1/"
   xmlns:cc="http://creativecommons.org/ns#"
   xmlns:rdf="http://www.w3.org/1999/02/22-rdf-syntax-ns#"
   xmlns:svg="http://www.w3.org/2000/svg"
   xmlns="http://www.w3.org/2000/svg"
   xmlns:xlink="http://www.w3.org/1999/xlink"
   xmlns:sodipodi="http://sodipodi.sourceforge.net/DTD/sodipodi-0.dtd"
   xmlns:inkscape="http://www.inkscape.org/namespaces/inkscape"
   xml:space="preserve"
   width="254.528mm"
   height="108.561mm"
   version="1.1"
   style="shape-rendering:geometricPrecision; text-rendering:geometricPrecision; image-rendering:optimizeQuality; fill-rule:evenodd; clip-rule:evenodd"
   viewBox="0 0 25453 10856"
   id="svg101"
   sodipodi:docname="switch.svg"
   inkscape:version="1.0.2 (e86c870879, 2021-01-15, custom)"><metadata
     id="metadata105"><rdf:RDF><cc:Work
         rdf:about=""><dc:format>image/svg+xml</dc:format><dc:type
           rdf:resource="http://purl.org/dc/dcmitype/StillImage" /></cc:Work></rdf:RDF></metadata><sodipodi:namedview
     pagecolor="#ffffff"
     bordercolor="#666666"
     borderopacity="1"
     objecttolerance="10"
     gridtolerance="10"
     guidetolerance="10"
     inkscape:pageopacity="0"
     inkscape:pageshadow="2"
     inkscape:window-width="2560"
     inkscape:window-height="1360"
     id="namedview103"
     showgrid="false"
     inkscape:zoom="2.3978948"
     inkscape:cx="572.4506"
     inkscape:cy="56.146228"
     inkscape:window-x="-11"
     inkscape:window-y="-11"
     inkscape:window-maximized="1"
     inkscape:current-layer="svg101"
     inkscape:document-rotation="0" /><defs
     id="defs12">
  <style
   type="text/css"
   id="style2">
   <![CDATA[
    .str2 {stroke:#373435;stroke-width:50}
    .str1 {stroke:#30363A;stroke-width:50}
    .str0 {stroke:#373435;stroke-width:20}
    .fil10 {fill:none}
    .fil2 {fill:#606062}
    .fil1 {fill:#373435}
    .fil9 {fill:#1D1F21}
    .fil4 {fill:#2B2C2E}
    .fil0 {fill:#30363A}
    .fil8 {fill:#56616A}
    .fil3 {fill:#949EA5}
    .fil7 {fill:#B5C0C7}
    .fil13 {fill:#FEFEFE;fill-rule:nonzero}
    .fil14 {fill:#2B2C2E;fill-rule:nonzero}
    .fil12 {fill:url(#id0)}
    .fil11 {fill:url(#id1)}
    .fil5 {fill:url(#id2)}
    .fil6 {fill:url(#id3)}
   ]]>
  </style>
  <linearGradient
   id="id0"
   gradientUnits="userSpaceOnUse"
   x1="24221.1"
   y1="6309.94"
   x2="23217.9"
   y2="5435.36">
   <stop
   offset="0"
   style="stop-opacity:1; stop-color:#2B2C2E"
   id="stop4" />
   <stop
   offset="1"
   style="stop-opacity:1; stop-color:#949EA5"
   id="stop6" />
  </linearGradient>
  <linearGradient
   id="id1"
   gradientUnits="userSpaceOnUse"
   xlink:href="#id0"
   x1="24345.9"
   y1="6418.72"
   x2="23093.1"
   y2="5326.58">
  </linearGradient>
  <linearGradient
   id="id2"
   gradientUnits="userSpaceOnUse"
   xlink:href="#id0"
   x1="2472.25"
   y1="3214.63"
   x2="1219.51"
   y2="2122.49">
  </linearGradient>
  <linearGradient
   id="id3"
   gradientUnits="userSpaceOnUse"
   xlink:href="#id0"
   x1="2347.48"
   y1="3105.85"
   x2="1344.28"
   y2="2231.27">
  </linearGradient>
 </defs><path
     d="M 25453,2422.8342 C 25453,1148.8342 24410,105.83416 23136,105.83416 V 2422.8342 Z"
     id="right_trigger"
     style="fill:#313539;fill-opacity:1" /><path
     d="M 0,2422.8342 C 0,1148.8342 1043,105.83416 2317,105.83416 V 2422.8342 Z"
     id="left_trigger"
     style="fill:#313539;fill-opacity:1" /><path
     d="M 4020,182.83416 H 21752 C 21752,391.83416 21906,567.83416 22107,600.83416 V 10961.834 H 3596 V 605.83416 C 3829,605.83416 4020,415.83416 4020,182.83416 Z"
     id="screen_border"
     style="fill:#373435;fill-opacity:1" /><path
     d="M 4398,526.82962 H 21453 C 21577,526.82962 21678,627.82962 21678,751.82962 V 10249.83 C 21678,10373.83 21577,10474.83 21453,10474.83 H 20396 19536 10052 C 9675,10474.83 10052,10474.83 9675,10474.83 H 6315 C 5455,10474.83 6315,10474.83 5455,10474.83 H 4398 C 4274,10474.83 4173,10373.83 4173,10249.83 V 751.82962 C 4173,627.82962 4274,526.82962 4398,526.82962 Z"
     id="bezels"
     style="fill:#000000;fill-opacity:1"
     sodipodi:nodetypes="sssssccccccssss" /><rect
     x="5485"
     y="1309.8341"
     width="14732"
     height="8297"
     id="screen"
     style="fill:#606062;fill-opacity:1" /><path
     class="fil3 str0"
     d="M 22107,182.83416 H 23104 C 24361,182.83416 25390,1211.8342 25390,2468.8342 V 8675.8342 C 25390,9932.8342 24361,10961.834 23104,10961.834 H 22107 Z"
     id="right_con"
     style="fill:#fe5d53;fill-opacity:1" /><path
     class="fil3 str0"
     d="M 2354,182.83416 H 3582 V 10961.834 H 2354 C 1097,10961.834 68,9932.8342 68,8675.8342 V 2468.8342 C 68,1211.8342 1097,182.83416 2354,182.83416 Z"
     id="left_con"
     style="fill:#01bbe2;fill-opacity:1" /><rect
     x="2735"
     y="1054.8341"
     width="566"
     height="201"
     id="left_up_button"
     style="fill:#2b2c2e;fill-opacity:1" /><circle
     class="fil5 str1"
     cx="1846"
     cy="2774.8342"
     r="841"
     id="left_analog"
     style="fill:#000000;fill-opacity:1" /><circle
     class="fil6 str1"
     cx="1846"
     cy="2774.8342"
     r="674"
     id="left_analog_inner"
     style="fill:#000000;fill-opacity:1" /><circle
     cx="23061"
     cy="8002.834"
     r="421"
     id="home_outter"
     style="fill:#606060;fill-opacity:1" /><circle
     cx="1915"
     cy="4964.834"
     r="392"
     id="arrow_up"
     style="fill:#000000;fill-opacity:1" /><circle
     class="fil8 str0"
     cx="2793"
     cy="5774.834"
     r="392"
     id="arrow_right"
     style="fill:#000000;fill-opacity:1" /><circle
     class="fil8 str0"
     cx="1920"
     cy="6594.834"
     r="392"
     id="arrow_down"
     style="fill:#000000;fill-opacity:1" /><circle
     class="fil8 str0"
     cx="1084"
     cy="5779.834"
     r="392"
     id="arrow_left"
     style="fill:#000000;fill-opacity:1" /><polygon
     points="1770,4943 1842,4818 1915,4693 1987,4818 2059,4943 1915,4943 "
     id="shape_up"
     style="fill:#1d1f21;fill-opacity:1"
     transform="translate(0,105.83416)" /><polygon
     points="2710,5525 2835,5597 2960,5669 2835,5741 2710,5813 2710,5669 "
     id="shape_right"
     style="fill:#1d1f21;fill-opacity:1"
     transform="translate(0,105.83416)" /><polygon
     points="1167,5819 1042,5746 917,5674 1042,5602 1167,5530 1167,5674 "
     id="shape_left"
     style="fill:#1d1f21;fill-opacity:1"
     transform="translate(0,105.83416)" /><polygon
     points="2064,6406 1992,6531 1920,6656 1848,6531 1776,6406 1920,6406 "
     id="shape_down"
     style="fill:#1d1f21;fill-opacity:1"
     transform="translate(0,105.83416)" /><rect
     x="2184"
     y="7480.834"
     width="667"
     height="667"
     rx="53"
     ry="53"
     id="left_o_button"
     style="fill:#000000;fill-opacity:1" /><circle
     class="fil10 str2"
     cx="2517"
     cy="7814.834"
     r="217"
     id="left_o_button_inner" /><circle
     class="fil8"
     cx="23061"
     cy="8002.834"
     r="328"
     id="home_inner"
     style="fill:#000000;fill-opacity:1" /><line
     x1="1846"
     y1="3447.8342"
     x2="1846"
     y2="3615.8342"
     id="line59"
     style="fill:#30363a;fill-opacity:1" /><line
     x1="1005"
     y1="2774.8342"
     x2="1172"
     y2="2774.8342"
     id="line61"
     style="fill:#808080;fill-opacity:1" /><line
     x1="1846"
     y1="2100.8342"
     x2="1846"
     y2="1932.8341"
     id="line63"
     style="fill:#ffffff" /><line
     x1="2520"
     y1="2774.8342"
     x2="2687"
     y2="2774.8342"
     id="line65"
     style="fill:#ffffff" /><polygon
     class="fil4 str0"
     points="22771,1150 22953,1150 22953,949 22771,949 22771,766 22570,766 22570,949 22387,949 22387,1150 22570,1150 22570,1332 22771,1332 "
     id="polygon67"
     transform="translate(0,105.83416)" /><circle
     cx="23673"
     cy="2179.8342"
     r="392"
     id="x_button"
     style="fill:#000000;fill-opacity:1" /><circle
     cx="24552"
     cy="2989.8342"
     r="392"
     id="a_button"
     style="fill:#000000;fill-opacity:1" /><circle
     cx="23678"
     cy="3809.8342"
     r="392"
     id="b_button"
     style="fill:#000000;fill-opacity:1" /><circle
     cx="22842"
     cy="2994.8342"
     r="392"
     id="y_button"
     style="fill:#000000;fill-opacity:1" /><circle
     class="fil11 str1"
     cx="23720"
     cy="5978.834"
     r="841"
     id="right_analog"
     style="fill:#000000;fill-opacity:1" /><circle
     class="fil12 str1"
     cx="23720"
     cy="5978.834"
     r="674"
     id="circle79"
     style="fill:#000000;fill-opacity:1" /><line
     class="fil10 str1"
     x1="23720"
     y1="6651.834"
     x2="23720"
     y2="6819.834"
     id="line81" /><line
     class="fil10 str1"
     x1="22878"
     y1="5978.834"
     x2="23046"
     y2="5978.834"
     id="line83" /><line
     class="fil10 str1"
     x1="23720"
     y1="5304.834"
     x2="23720"
     y2="5136.834"
     id="line85" /><line
     class="fil10 str1"
     x1="24393"
     y1="5978.834"
     x2="24561"
     y2="5978.834"
     id="line87" /><polygon
     points="22824,3019 22824,2907 22727,2759 22771,2759 22843,2877 22916,2759 22958,2759 22861,2907 22861,3019 "
     id="y_letter"
     style="fill:#ffffff;fill-opacity:1"
     transform="translate(0,105.83416)" /><polygon
     points="23566,1945 23611,1945 23673,2041 23735,1945 23778,1945 23695,2068 23789,2204 23743,2204 23672,2095 23602,2204 23557,2204 23650,2067 "
     id="x_letter"
     style="fill:#ffffff;fill-opacity:1"
     transform="translate(0,105.83416)" /><path
     d="M 24502,3023.8342 H 24599 L 24551,2902.8342 Z M 24464,3118.8342 H 24423 L 24536,2860.8342 H 24568 L 24680,3118.8342 H 24639 L 24612,3055.8342 H 24490 Z"
     id="a_letter"
     style="fill:#ffffff;fill-opacity:1" /><path
     d="M 23655,3928.8342 H 23700 C 23731,3928.8342 23764,3919.8342 23764,3883.8342 23764,3853.8342 23743,3840.8342 23703,3840.8342 H 23655 Z M 23655,3809.8342 H 23702 C 23730,3809.8342 23753,3797.8342 23753,3769.8342 23753,3741.8342 23731,3730.8342 23696,3730.8342 H 23655 Z M 23619,3700.8342 H 23708 C 23747,3700.8342 23789,3716.8342 23789,3765.8342 23789,3794.8342 23771,3814.8342 23744,3822.8342 V 3823.8342 C 23777,3827.8342 23801,3849.8342 23801,3885.8342 23801,3935.8342 23758,3959.8342 23704,3959.8342 H 23619 Z"
     id="b_letter"
     style="fill:#ffffff;fill-opacity:1" /><path
     d="M 23123,8100.8342 C 23123,8109.8342 23119,8113.8342 23111,8113.8342 H 23011 C 23002,8113.8342 22998,8109.8342 22998,8100.8342 V 8025.8342 C 22998,8016.8342 23002,8013.8342 23011,8013.8342 H 23111 C 23119,8013.8342 23123,8016.8342 23123,8025.8342 Z M 23255,7978.8342 C 23193,7925.8342 23131,7872.8342 23069,7820.8342 23063,7814.8342 23058,7814.8342 23053,7820.8342 22990,7872.8342 22928,7925.8342 22866,7978.8342 22855,7988.8342 22859,8000.8342 22874,8000.8342 H 22898 C 22907,8000.8342 22911,8004.8342 22911,8013.8342 V 8175.8342 C 22911,8184.8342 22914,8188.8342 22923,8188.8342 H 23198 C 23207,8188.8342 23211,8184.8342 23211,8175.8342 V 8013.8342 C 23211,8004.8342 23214,8000.8342 23223,8000.8342 H 23247 C 23262,8000.8342 23267,7988.8342 23255,7978.8342 Z"
     id="home"
     style="fill:#505050;fill-opacity:1" /></svg>
