<?xml version="1.0" encoding="UTF-8" standalone="no"?>
<!-- Creator: CorelDRAW X7 -->

<svg
   xmlns:dc="http://purl.org/dc/elements/1.1/"
   xmlns:cc="http://creativecommons.org/ns#"
   xmlns:rdf="http://www.w3.org/1999/02/22-rdf-syntax-ns#"
   xmlns:svg="http://www.w3.org/2000/svg"
   xmlns="http://www.w3.org/2000/svg"
   xmlns:xlink="http://www.w3.org/1999/xlink"
   xmlns:sodipodi="http://sodipodi.sourceforge.net/DTD/sodipodi-0.dtd"
   xmlns:inkscape="http://www.inkscape.org/namespaces/inkscape"
   xml:space="preserve"
   width="254.528mm"
   height="108.561mm"
   version="1.1"
   style="shape-rendering:geometricPrecision; text-rendering:geometricPrecision; image-rendering:optimizeQuality; fill-rule:evenodd; clip-rule:evenodd"
   viewBox="0 0 25453 10856"
   id="svg101"
   sodipodi:docname="switch.svg"
   inkscape:version="1.0.2 (e86c870879, 2021-01-15, custom)"><metadata
     id="metadata105"><rdf:RDF><cc:Work
         rdf:about=""><dc:format>image/svg+xml</dc:format><dc:type
           rdf:resource="http://purl.org/dc/dcmitype/StillImage" /></cc:Work></rdf:RDF></metadata><sodipodi:namedview
     pagecolor="#ffffff"
     bordercolor="#666666"
     borderopacity="1"
     objecttolerance="10"
     gridtolerance="10"
     guidetolerance="10"
     inkscape:pageopacity="0"
     inkscape:pageshadow="2"
     inkscape:window-width="2560"
     inkscape:window-height="1360"
     id="namedview103"
     showgrid="false"
     inkscape:zoom="1.69812"
     inkscape:cx="155.26415"
     inkscape:cy="143.50077"
     inkscape:window-x="-11"
     inkscape:window-y="-11"
     inkscape:window-maximized="1"
     inkscape:current-layer="svg101"
     inkscape:document-rotation="0" /><defs
     id="defs12">
  <style
   type="text/css"
   id="style2">
   <![CDATA[
    .str2 {stroke:#373435;stroke-width:50}
    .str1 {stroke:#30363A;stroke-width:50}
    .str0 {stroke:#373435;stroke-width:20}
    .fil10 {fill:none}
    .fil2 {fill:#606062}
    .fil1 {fill:#373435}
    .fil9 {fill:#1D1F21}
    .fil4 {fill:#2B2C2E}
    .fil0 {fill:#30363A}
    .fil8 {fill:#56616A}
    .fil3 {fill:#949EA5}
    .fil7 {fill:#B5C0C7}
    .fil13 {fill:#FEFEFE;fill-rule:nonzero}
    .fil14 {fill:#2B2C2E;fill-rule:nonzero}
    .fil12 {fill:url(#id0)}
    .fil11 {fill:url(#id1)}
    .fil5 {fill:url(#id2)}
    .fil6 {fill:url(#id3)}
   ]]>
  </style>
  <linearGradient
   id="id0"
   gradientUnits="userSpaceOnUse"
   x1="24221.1"
   y1="6309.94"
   x2="23217.9"
   y2="5435.36">
   <stop
   offset="0"
   style="stop-opacity:1; stop-color:#2B2C2E"
   id="stop4" />
   <stop
   offset="1"
   style="stop-opacity:1; stop-color:#949EA5"
   id="stop6" />
  </linearGradient>
  <linearGradient
   id="id1"
   gradientUnits="userSpaceOnUse"
   xlink:href="#id0"
   x1="24345.9"
   y1="6418.72"
   x2="23093.1"
   y2="5326.58">
  </linearGradient>
  <linearGradient
   id="id2"
   gradientUnits="userSpaceOnUse"
   xlink:href="#id0"
   x1="2472.25"
   y1="3214.63"
   x2="1219.51"
   y2="2122.49">
  </linearGradient>
  <linearGradient
   id="id3"
   gradientUnits="userSpaceOnUse"
   xlink:href="#id0"
   x1="2347.48"
   y1="3105.85"
   x2="1344.28"
   y2="2231.27">
  </linearGradient>
 </defs><g
     id="Capa_x0020_1"
     transform="translate(0,105.83416)"><g
       id="_2497485212656"><path
         d="M 25453,2317 C 25453,1043 24410,0 23136,0 V 2317 Z"
         id="right_trigger"
         style="fill:#313539;fill-opacity:1;" /><path
         d="M 0,2317 C 0,1043 1043,0 2317,0 V 2317 Z"
         id="left_trigger"
         style="fill:#313539;fill-opacity:1;" /><path
         d="M 4020,77 H 21752 C 21752,286 21906,462 22107,495 V 10856 H 3596 V 500 C 3829,500 4020,310 4020,77 Z"
         id="screen_border"
         style="fill:#373435;fill-opacity:1;" /><path
         d="M 4398,421 H 21453 C 21577,421 21678,522 21678,646 V 10144 C 21678,10268 21577,10369 21453,10369 H 20396 V 10273 C 20396,10214 20348,10167 20290,10167 H 19642 C 19584,10167 19536,10214 19536,10273 V 10369 H 10052 V 10126 C 10052,10046 9968,9980 9863,9980 9759,9980 9675,10046 9675,10126 V 10369 H 6315 V 10273 C 6315,10214 6267,10167 6209,10167 H 5561 C 5502,10167 5455,10214 5455,10273 V 10369 H 4398 C 4274,10369 4173,10268 4173,10144 V 646 C 4173,522 4274,421 4398,421 Z"
         id="bezels"
         style="fill:#000000;fill-opacity:1;" /><rect
         x="5485"
         y="1204"
         width="14732"
         height="8297"
         id="screen"
         style="fill:#606062;fill-opacity:1;" /><path
         class="fil3 str0"
         d="M 22107,77 H 23104 C 24361,77 25390,1106 25390,2363 V 8570 C 25390,9827 24361,10856 23104,10856 H 22107 Z"
         id="right_con"
         style="fill:#FE5D53;fill-opacity:1" /><path
         class="fil3 str0"
         d="M 2354,77 H 3582 V 10856 H 2354 C 1097,10856 68,9827 68,8570 V 2363 C 68,1106 1097,77 2354,77 Z"
         id="left_con"
         style="fill:#01BBE2;fill-opacity:1" /><rect
         x="2735"
         y="949"
         width="566"
         height="201"
         id="left_up_button"
         style="fill:#2B2C2E;fill-opacity:1;" /><circle
         class="fil5 str1"
         cx="1846"
         cy="2669"
         r="841"
         id="left_analog"
         style="fill:#000000;fill-opacity:1;" /><circle
         class="fil6 str1"
         cx="1846"
         cy="2669"
         r="674"
         id="left_analog_inner"
         style="fill:#000000;fill-opacity:1;" /><circle
         cx="23061"
         cy="7897"
         r="421"
         id="home_outter"
         style="fill:#606060;fill-opacity:1" /><circle
         cx="1915"
         cy="4859"
         r="392"
         id="arrow_up"
         style="fill:#000000;fill-opacity:1;" /><circle
         class="fil8 str0"
         cx="2793"
         cy="5669"
         r="392"
         id="arrow_right"
         style="fill:#000000;fill-opacity:1;" /><circle
         class="fil8 str0"
         cx="1920"
         cy="6489"
         r="392"
         id="arrow_down"
         style="fill:#000000;fill-opacity:1;" /><circle
         class="fil8 str0"
         cx="1084"
         cy="5674"
         r="392"
         id="arrow_left"
         style="fill:#000000;fill-opacity:1;" /><polygon
         points="1915,4693 1987,4818 2059,4943 1915,4943 1770,4943 1842,4818 "
         id="polygon45"
         style="fill:#1D1F21;fill-opacity:1;" /><polygon
         points="2960,5669 2835,5741 2710,5813 2710,5669 2710,5525 2835,5597 "
         id="polygon47"
         style="fill:#1D1F21;fill-opacity:1;" /><polygon
         points="917,5674 1042,5602 1167,5530 1167,5674 1167,5819 1042,5746 "
         id="polygon49"
         style="fill:#1D1F21;fill-opacity:1;" /><polygon
         points="1920,6656 1848,6531 1776,6406 1920,6406 2064,6406 1992,6531 "
         id="polygon51"
         style="fill:#1D1F21;fill-opacity:1;" /><rect
         x="2184"
         y="7375"
         width="667"
         height="667"
         rx="53"
         ry="53"
         id="left_o_button"
         style="fill:#000000;fill-opacity:1;" /><circle
         class="fil10 str2"
         cx="2517"
         cy="7709"
         r="217"
         id="left_o_button_inner" /><circle
         class="fil8"
         cx="23061"
         cy="7897"
         r="328"
         id="home_inner"
         style="fill:#000000;fill-opacity:1;" /><line
         x1="1846"
         y1="3342"
         x2="1846"
         y2="3510"
         id="line59"
         style="fill:#30363A;fill-opacity:1;" /><line
         x1="1005"
         y1="2669"
         x2="1172"
         y2="2669"
         id="line61"
         style="fill:#808080;fill-opacity:1;" /><line
         x1="1846"
         y1="1995"
         x2="1846"
         y2="1827"
         id="line63"
         style="fill:#ffffff;" /><line
         x1="2520"
         y1="2669"
         x2="2687"
         y2="2669"
         id="line65"
         style="fill:#ffffff;" /><polygon
         class="fil4 str0"
         points="22387,1150 22570,1150 22570,1332 22771,1332 22771,1150 22953,1150 22953,949 22771,949 22771,766 22570,766 22570,949 22387,949 "
         id="polygon67" /><circle
         cx="23673"
         cy="2074"
         r="392"
         id="x_button"
         style="fill:#000000;fill-opacity:1;" /><circle
         cx="24552"
         cy="2884"
         r="392"
         id="a_button"
         style="fill:#000000;fill-opacity:1;" /><circle
         cx="23678"
         cy="3704"
         r="392"
         id="b_button"
         style="fill:#000000;fill-opacity:1;" /><circle
         cx="22842"
         cy="2889"
         r="392"
         id="y_button"
         style="fill:#000000;fill-opacity:1;" /><circle
         class="fil11 str1"
         cx="23720"
         cy="5873"
         r="841"
         id="right_analog"
         style="fill:#000000;fill-opacity:1;" /><circle
         class="fil12 str1"
         cx="23720"
         cy="5873"
         r="674"
         id="circle79"
         style="fill:#000000;fill-opacity:1;" /><line
         class="fil10 str1"
         x1="23720"
         y1="6546"
         x2="23720"
         y2="6714"
         id="line81" /><line
         class="fil10 str1"
         x1="22878"
         y1="5873"
         x2="23046"
         y2="5873"
         id="line83" /><line
         class="fil10 str1"
         x1="23720"
         y1="5199"
         x2="23720"
         y2="5031"
         id="line85" /><line
         class="fil10 str1"
         x1="24393"
         y1="5873"
         x2="24561"
         y2="5873"
         id="line87" /><polygon
         points="22916,2759 22958,2759 22861,2907 22861,3019 22824,3019 22824,2907 22727,2759 22771,2759 22843,2877 "
         id="y_letter"
         style="fill:#ffffff;fill-opacity:1" /><polygon
         points="23672,2095 23602,2204 23557,2204 23650,2067 23566,1945 23611,1945 23673,2041 23735,1945 23778,1945 23695,2068 23789,2204 23743,2204 "
         id="polygon91"
         style="fill:#ffffff;fill-opacity:1" /><path
         d="M 24502,2918 H 24599 L 24551,2797 Z M 24464,3013 H 24423 L 24536,2755 H 24568 L 24680,3013 H 24639 L 24612,2950 H 24490 Z"
         id="a_letter"
         style="fill:#ffffff;fill-opacity:1" /><path
         d="M 23655,3823 H 23700 C 23731,3823 23764,3814 23764,3778 23764,3748 23743,3735 23703,3735 H 23655 Z M 23655,3704 H 23702 C 23730,3704 23753,3692 23753,3664 23753,3636 23731,3625 23696,3625 H 23655 Z M 23619,3595 H 23708 C 23747,3595 23789,3611 23789,3660 23789,3689 23771,3709 23744,3717 V 3718 C 23777,3722 23801,3744 23801,3780 23801,3830 23758,3854 23704,3854 H 23619 Z"
         id="path95"
         style="fill:#ffffff;fill-opacity:1" /><path
         d="M 23123,7995 C 23123,8004 23119,8008 23111,8008 H 23011 C 23002,8008 22998,8004 22998,7995 V 7920 C 22998,7911 23002,7908 23011,7908 H 23111 C 23119,7908 23123,7911 23123,7920 Z M 23255,7873 C 23193,7820 23131,7767 23069,7715 23063,7709 23058,7709 23053,7715 22990,7767 22928,7820 22866,7873 22855,7883 22859,7895 22874,7895 H 22898 C 22907,7895 22911,7899 22911,7908 V 8070 C 22911,8079 22914,8083 22923,8083 H 23198 C 23207,8083 23211,8079 23211,8070 V 7908 C 23211,7899 23214,7895 23223,7895 H 23247 C 23262,7895 23267,7883 23255,7873 Z"
         id="home"
         style="fill:#505050;fill-opacity:1" /></g></g><rect
     style="fill:#000000;stroke:#000000;stroke-width:70.0006;"
     id="lower_bezel"
     width="15722.443"
     height="500.71475"
     x="5207.4336"
     y="9948.2617"
     ry="63.5005" /></svg>
