<?xml version="1.0" encoding="UTF-8" standalone="no"?>
<svg
   xmlns:dc="http://purl.org/dc/elements/1.1/"
   xmlns:cc="http://creativecommons.org/ns#"
   xmlns:rdf="http://www.w3.org/1999/02/22-rdf-syntax-ns#"
   xmlns:svg="http://www.w3.org/2000/svg"
   xmlns="http://www.w3.org/2000/svg"
   xmlns:sodipodi="http://sodipodi.sourceforge.net/DTD/sodipodi-0.dtd"
   xmlns:inkscape="http://www.inkscape.org/namespaces/inkscape"
   sodipodi:docname="xbox_one.svg"
   inkscape:version="1.0.2 (e86c870879, 2021-01-15, custom)"
   id="svg8"
   version="1.1"
   viewBox="0 0 210 297"
   height="297mm"
   width="210mm">
  <defs
     id="defs2">
    <inkscape:path-effect
       effect="bspline"
       id="path-effect852"
       is_visible="true"
       weight="33.333333"
       steps="2"
       helper_size="0"
       apply_no_weight="true"
       apply_with_weight="true"
       only_selected="false" />
    <inkscape:path-effect
       only_selected="false"
       apply_with_weight="true"
       apply_no_weight="true"
       helper_size="0"
       steps="2"
       weight="33.333333"
       is_visible="true"
       id="path-effect848"
       effect="bspline" />
    <inkscape:path-effect
       effect="bspline"
       id="path-effect844"
       is_visible="true"
       weight="33.333333"
       steps="2"
       helper_size="0"
       apply_no_weight="true"
       apply_with_weight="true"
       only_selected="false" />
    <inkscape:path-effect
       effect="bspline"
       id="path-effect948"
       is_visible="true"
       lpeversion="1"
       weight="33.333333"
       steps="2"
       helper_size="0"
       apply_no_weight="true"
       apply_with_weight="true"
       only_selected="false" />
    <inkscape:path-effect
       only_selected="false"
       apply_with_weight="true"
       apply_no_weight="true"
       helper_size="0"
       steps="2"
       weight="33.333333"
       lpeversion="1"
       is_visible="true"
       id="path-effect944"
       effect="bspline" />
    <inkscape:path-effect
       effect="bspline"
       id="path-effect930"
       is_visible="true"
       lpeversion="1"
       weight="33.333333"
       steps="2"
       helper_size="0"
       apply_no_weight="true"
       apply_with_weight="true"
       only_selected="false" />
    <inkscape:path-effect
       only_selected="false"
       apply_with_weight="true"
       apply_no_weight="true"
       helper_size="0"
       steps="2"
       weight="33.333333"
       lpeversion="1"
       is_visible="true"
       id="path-effect926"
       effect="bspline" />
    <inkscape:path-effect
       effect="bspline"
       id="path-effect855"
       is_visible="true"
       lpeversion="1"
       weight="33.333333"
       steps="2"
       helper_size="0"
       apply_no_weight="true"
       apply_with_weight="true"
       only_selected="false" />
    <inkscape:path-effect
       only_selected="false"
       apply_with_weight="true"
       apply_no_weight="true"
       helper_size="0"
       steps="2"
       weight="33.333333"
       lpeversion="1"
       is_visible="true"
       id="path-effect851"
       effect="bspline" />
  </defs>
  <sodipodi:namedview
     inkscape:snap-smooth-nodes="true"
     inkscape:window-maximized="1"
     inkscape:window-y="-11"
     inkscape:window-x="-11"
     inkscape:window-height="1360"
     inkscape:window-width="2560"
     inkscape:snap-global="false"
     showgrid="false"
     inkscape:document-rotation="0"
     inkscape:current-layer="layer1"
     inkscape:document-units="mm"
     inkscape:cy="226.5545"
     inkscape:cx="313.27233"
     inkscape:zoom="1.4142136"
     inkscape:pageshadow="2"
     inkscape:pageopacity="0.0"
     borderopacity="1.0"
     bordercolor="#666666"
     pagecolor="#ffffff"
     id="base" />
  <metadata
     id="metadata5">
    <rdf:RDF>
      <cc:Work
         rdf:about="">
        <dc:format>image/svg+xml</dc:format>
        <dc:type
           rdf:resource="http://purl.org/dc/dcmitype/StillImage" />
        <dc:title />
      </cc:Work>
    </rdf:RDF>
  </metadata>
  <g
     id="layer1"
     inkscape:groupmode="layer"
     inkscape:label="Ebene 1">
    <path
       id="triggers"
       style="fill:#05060a;fill-opacity:1;stroke:none;stroke-width:0.264583px;stroke-linecap:butt;stroke-linejoin:miter;stroke-opacity:1"
       d="M 138.40122,10.237384 C 137.10123,10.242331 135.98757,10.420873 134.91862,10.868779 133.60303,11.420071 132.35525,12.379333 131.39457,12.976167 130.43389,13.573002 129.73459,13.816412 128.61367,13.904628 127.49275,13.992811 125.93738,13.930416 122.6724,13.899153 120.53702,13.87874 117.53593,13.872969 114.27622,13.870529 113.88375,13.868583 113.43605,13.867791 112.85936,13.867791 H 108.95748 98.324573 94.422692 C 93.84604,13.867791 93.398332,13.868583 93.005829,13.870529 89.746126,13.872969 86.745036,13.87874 84.609683,13.899153 81.344671,13.930416 79.789301,13.992811 78.668381,13.904628 77.547462,13.816412 76.848198,13.573002 75.887518,12.976167 74.926805,12.379333 73.67902,11.420071 72.363431,10.868779 71.294485,10.420873 70.180788,10.242496 68.880798,10.237549 68.580699,10.236395 68.270707,10.244408 67.949172,10.260568 66.23399,10.346805 64.187381,10.662437 61.84397,11.10533 59.500559,11.548223 56.860676,12.118379 53.675669,13.327745 50.490661,14.537111 46.761188,16.385656 44.304993,17.724361 41.848797,19.063067 40.666209,19.891868 39.720732,22.266674 39.409091,23.049372 39.122842,24.004347 38.829669,25.159695 39.761625,24.497531 40.849896,23.820462 42.177257,23.093892 45.000497,21.54825 48.895519,19.779248 52.862433,18.358659 56.829347,16.938069 60.867493,15.86599 63.744487,15.48183 64.643465,15.36179 65.429329,15.30896 66.143301,15.306651 67.71371,15.301539 68.93719,15.540926 70.257626,15.84805 72.178656,16.294801 74.305039,16.884546 76.082978,17.116809 77.860917,17.349106 79.290312,17.22402 84.918983,17.161461 88.255689,17.124394 93.006917,17.110345 97.396476,17.104212 97.432587,17.09943 97.455671,17.097814 97.467543,17.098078 97.507282,17.098935 97.507414,17.098935 102.42126,17.098935 102.81589,17.098935 103.40205,17.099232 103.85533,17.099265 104.3086,17.099232 104.89479,17.098935 105.2894,17.098935 110.20325,17.098935 110.20322,17.098935 110.24296,17.098078 110.25483,17.097814 110.27808,17.09943 110.31419,17.104212 114.70372,17.110345 119.45481,17.124394 122.79152,17.161461 128.42019,17.22402 129.84975,17.349106 131.62769,17.116809 133.40563,16.884546 135.53185,16.294801 137.45278,15.84805 139.37374,15.401331 141.08892,15.09767 143.96592,15.48183 146.84291,15.86599 150.88106,16.938069 154.84797,18.358659 158.81488,19.779248 162.71024,21.54825 165.53348,23.093892 166.6201,23.688748 167.54678,24.250395 168.35902,24.797894 168.09784,23.804006 167.83995,22.966103 167.56129,22.266674 166.61581,19.891868 165.43322,19.063067 162.97703,17.724361 160.52083,16.385656 156.79136,14.537111 153.60635,13.327745 150.42134,12.118379 147.78146,11.548223 145.43805,11.10533 143.09464,10.662437 141.04803,10.346805 139.33285,10.260568 139.01131,10.244408 138.70132,10.23623 138.40122,10.237384 Z"
       inkscape:connector-curvature="0" />
    <path
       id="body"
       style="fill:#222629;fill-opacity:1;stroke:none;stroke-width:0.264583px;stroke-linecap:butt;stroke-linejoin:miter;stroke-opacity:1"
       d="M 66.143301,14.936474 C 65.429329,14.938782 64.643465,14.991613 63.744487,15.111686 60.867493,15.495845 56.829347,16.567925 52.862433,17.988514 48.895519,19.409071 45.000497,21.178073 42.176927,22.723748 39.353688,24.26939 37.60256,25.59164 36.164393,27.021167 34.725896,28.450694 33.60003,29.987432 31.572877,34.657105 29.546054,39.327108 26.613328,47.141556 22.646414,58.488269 18.6795,69.834982 13.67642,84.719237 11.76469,97.149274 9.8529597,109.57898 11.03192,119.54524 13.434692,125.71541 15.837133,131.88558 19.430407,134.2336 22.210446,135.86931 24.990814,137.50501 26.935192,138.41455 28.096675,138.91053 29.258157,139.40652 29.633116,139.48699 30.276515,139.26801 30.919585,139.04904 31.831094,138.53096 33.405131,137.47039 34.978837,136.41015 37.21507,134.80742 39.407442,132.54052 41.599814,130.27362 43.747666,127.34221 46.413601,123.79181 49.079866,120.24107 52.263554,116.07167 54.992807,112.59712 57.722059,109.12257 59.996547,106.34286 63.382719,104.85193 66.768892,103.361 71.267015,103.15884 78.745912,103.0576 86.074925,102.95866 96.234664,102.95669 103.85533,102.95669 111.476,102.95669 121.63574,102.95866 128.96472,103.0576 136.44365,103.15884 140.94151,103.361 144.32801,104.85193 147.71419,106.34286 149.98834,109.12257 152.7176,112.59712 155.44685,116.07167 158.63087,120.24107 161.2968,123.79181 163.96274,127.34221 166.11092,130.27362 168.30296,132.54052 170.49533,134.80742 172.7319,136.41015 174.3056,137.47039 175.87964,138.53096 176.79082,139.04904 177.43389,139.26801 178.07729,139.48699 178.45258,139.40652 179.61406,138.91053 180.77554,138.41455 182.71959,137.50501 185.49996,135.86931 188.28033,134.2336 191.8736,131.88558 194.27604,125.71541 196.67881,119.54524 197.85744,109.57898 195.94604,97.149274 194.03431,84.719237 189.03123,69.834982 185.06432,58.488269 181.0974,47.141556 178.16468,39.327108 176.13753,34.657105 174.1107,29.987432 172.98484,28.450694 171.54634,27.021167 170.10784,25.59164 168.35672,24.26939 165.53348,22.723748 162.71024,21.178073 158.81488,19.409071 154.84797,17.988514 150.88106,16.567925 146.84291,15.495845 143.96592,15.111686 141.08892,14.727493 139.37374,15.031186 137.45278,15.477905 135.53185,15.924624 133.40563,16.514368 131.62769,16.746665 129.84975,16.978961 128.42019,16.853843 122.79152,16.791317 119.45481,16.75425 114.70372,16.740201 110.31419,16.734067 110.27808,16.729253 110.25483,16.72767 110.24296,16.727933 110.20322,16.728791 110.20325,16.728791 105.2894,16.728791 104.89479,16.728791 104.3086,16.729154 103.85533,16.729154 103.40205,16.729121 102.81589,16.728791 102.42126,16.728791 97.507414,16.728791 97.507282,16.728791 97.467543,16.727933 97.455671,16.72767 97.432587,16.729253 97.396476,16.734067 93.006917,16.740201 88.255689,16.75425 84.918983,16.791317 79.290312,16.853843 77.860917,16.978961 76.082978,16.746665 74.305039,16.514368 72.178656,15.924624 70.257626,15.477905 68.93719,15.170782 67.71371,14.931362 66.143301,14.936474 Z"
       inkscape:connector-curvature="0" />
    <circle
       style="fill:#1d2122;fill-opacity:1;stroke-width:4.43665;stroke-linecap:square"
       id="dpad_holder"
       cx="78.785141"
       cy="75.958199"
       r="15.922796" />
    <path
       style="fill:#000000;fill-opacity:1;stroke-width:3.75335;stroke-linecap:square"
       d="M 152.05837,51.921706 C 150.34451,51.921706 148.70089,52.6027 147.48928,53.814309 146.27734,55.026247 145.59634,56.669867 145.59667,58.383729 145.59634,60.097592 146.27734,61.741211 147.48928,62.95315 148.70089,64.164759 150.34451,64.845753 152.05837,64.845753 153.77223,64.845753 155.41585,64.164759 156.62779,62.95315 157.83973,61.741211 158.52039,60.097592 158.52039,58.383729 158.52039,56.669867 157.83973,55.026247 156.62779,53.814309 155.41585,52.6027 153.77223,51.921706 152.05837,51.921706 Z"
       id="a_button"
       inkscape:connector-curvature="0" />
    <path
       inkscape:connector-curvature="0"
       style="fill:#000000;fill-opacity:1;stroke-width:3.75335;stroke-linecap:square"
       d="M 165.81478,38.986447 C 162.24624,38.986776 159.35308,41.879599 159.35308,45.44847 159.35308,49.01734 162.24624,51.910493 165.81478,51.910493 167.52864,51.910493 169.17226,51.229499 170.3842,50.017891 171.59581,48.805952 172.2768,47.162332 172.2768,45.44847 172.2768,43.734607 171.59581,42.090988 170.3842,40.879049 169.17226,39.667441 167.52864,38.986447 165.81478,38.986447 Z"
       id="b_button" />
    <path
       style="fill:#000000;fill-opacity:1;stroke-width:3.75335;stroke-linecap:square"
       d="M 139.12311,38.986447 C 135.55444,38.986776 132.66141,41.879599 132.66145,45.44847 132.66141,49.01734 135.55444,51.910493 139.12311,51.910493 140.83697,51.910493 142.48059,51.229499 143.69253,50.017891 144.90447,48.805952 145.58513,47.162332 145.58513,45.44847 145.58513,43.734607 144.90447,42.090988 143.69253,40.879049 142.48059,39.667441 140.83697,38.986447 139.12311,38.986447 Z"
       id="x_button"
       inkscape:connector-curvature="0" />
    <path
       style="fill:#000000;fill-opacity:1;stroke-width:3.75335;stroke-linecap:square"
       d="M 152.05837,26.051484 C 148.48983,26.051451 145.59667,28.944373 145.59667,32.513211 145.59634,34.226743 146.27734,35.870363 147.48928,37.082301 148.70089,38.29424 150.34451,38.974904 152.05837,38.974904 153.77223,38.974904 155.41585,38.29424 156.62779,37.082301 157.83973,35.870363 158.52039,34.226743 158.52039,32.513211 158.52006,28.944373 155.62724,26.051451 152.05837,26.051484 Z"
       id="y_button"
       inkscape:connector-curvature="0" />
    <path
       id="view"
       d="M 90.052326,41.209158 C 87.786215,41.215094 85.952379,43.053613 85.952412,45.319856 85.952379,46.410106 86.385478,47.455836 87.156436,48.22653 87.927361,48.997554 88.972959,49.430554 90.063209,49.430554 91.153492,49.430554 92.19909,48.997554 92.970015,48.22653 93.740939,47.455836 94.174071,46.410106 94.174038,45.319856 94.174071,44.229606 93.740939,43.183876 92.970015,42.413182 92.19909,41.642158 91.153492,41.208829 90.063209,41.208829 90.059581,41.208829 90.055954,41.208829 90.052326,41.208829 Z"
       style="fill:#2f3336;fill-opacity:1;stroke-width:3.473;stroke-linecap:square"
       inkscape:connector-curvature="0" />
    <path
       id="menu"
       d="M 117.63638,41.209158 C 115.37033,41.215094 113.5366,43.053943 113.53663,45.319856 113.5366,46.410106 113.96969,47.455836 114.74065,48.22653 115.51158,48.997554 116.55718,49.430554 117.64743,49.430554 118.73771,49.430554 119.78331,48.997554 120.55423,48.22653 121.32519,47.455836 121.75829,46.410106 121.75825,45.319856 121.75829,44.229606 121.32519,43.183876 120.55423,42.413182 119.78331,41.642158 118.73771,41.208829 117.64743,41.208829 117.64373,41.208829 117.64007,41.208829 117.63638,41.208829 Z"
       style="fill:#2f3336;fill-opacity:1;stroke-width:3.473;stroke-linecap:square"
       inkscape:connector-curvature="0" />
    <path
       id="dpad"
       style="fill:#101010;fill-opacity:1;stroke-width:3.92675;stroke-linecap:square"
       d="M 78.758872,61.397581 C 76.374107,61.401539 74.448559,61.939079 74.44879,62.600946 V 70.384724 C 74.44879,71.070005 73.896938,71.621726 73.211525,71.621726 H 65.42801 C 65.108784,71.621726 64.802749,72.07847 64.57685,72.891706 64.351281,73.704941 64.224316,74.808053 64.224316,75.958322 64.224316,77.108262 64.351281,78.211374 64.57685,79.024609 64.802749,79.837515 65.108784,80.294589 65.42801,80.294259 65.430318,80.294259 65.432627,80.294259 65.434935,80.294259 H 73.211558 C 73.896938,80.294259 74.448823,80.84631 74.448823,81.531591 V 89.315369 C 74.448724,89.634596 74.905567,89.940631 75.718803,90.166529 76.532038,90.392098 77.635051,90.519063 78.785156,90.519063 79.935228,90.519063 81.038207,90.392098 81.85141,90.166529 82.664612,89.940631 83.12139,89.634596 83.121324,89.315369 83.121324,89.313061 83.121324,89.310752 83.121324,89.308444 V 81.531591 C 83.121324,80.84631 83.673176,80.294259 84.358556,80.294259 H 92.135277 C 92.137652,80.294259 92.139993,80.294259 92.142368,80.294259 92.461528,80.294589 92.767662,79.837515 92.993396,79.024609 93.219097,78.211374 93.345897,77.108262 93.345897,75.958322 93.345897,75.949418 93.345897,75.940844 93.345897,75.93194 93.341907,73.547307 92.804235,71.621726 92.142368,71.621726 H 84.358556 C 83.673176,71.621726 83.121324,71.070005 83.121324,70.384724 V 62.608201 C 83.121357,62.605563 83.121357,62.603254 83.121324,62.600946 83.121423,62.281719 82.664612,61.975684 81.85141,61.750115 81.038207,61.524217 79.935228,61.397581 78.785156,61.397581 78.776384,61.397581 78.767645,61.397581 78.758872,61.397581 Z"
       inkscape:connector-curvature="0" />
    <circle
       r="13.765653"
       cy="45.52776"
       cx="55.66832"
       id="left_analog_base"
       style="fill:#2f3336;fill-opacity:1;stroke-width:3.29534;stroke-linecap:square" />
    <circle
       style="fill:#000000;fill-opacity:1;stroke-width:2.82012;stroke-linecap:square"
       id="left_analog_outter"
       cx="55.66832"
       cy="45.52776"
       r="11.780527" />
    <circle
       r="10.662551"
       cy="45.52776"
       cx="55.66832"
       id="left_analog"
       style="fill:#22272a;fill-opacity:1;stroke-width:2.55249;stroke-linecap:square" />
    <circle
       style="fill:#1c1d21;fill-opacity:1;stroke-width:1.81362;stroke-linecap:square"
       id="left_analog_inner"
       cx="55.66832"
       cy="45.52776"
       r="7.5760708" />
    <path
       id="upper_side"
       style="opacity:0.416459;fill:#373f42;fill-opacity:1;stroke:none;stroke-width:0.264583px;stroke-linecap:butt;stroke-linejoin:miter;stroke-opacity:1"
       d="M 66.143301,14.936474 C 65.429329,14.938782 64.643465,14.991613 63.744487,15.111686 60.867493,15.495845 56.829347,16.567925 52.862433,17.988514 48.895519,19.409071 45.000497,21.178073 42.176927,22.723748 39.353688,24.26939 37.60256,25.59164 36.164393,27.021167 35.585301,27.596631 35.056335,28.193334 34.499338,29.00093 36.084587,27.990091 38.051719,26.778548 40.222656,25.620496 43.808015,23.708007 47.930585,21.950416 51.171655,20.618207 54.412725,19.286031 56.771966,18.379369 59.267735,17.960384 61.763504,17.5414 64.395471,17.610027 65.987645,17.652766 67.579819,17.695539 68.132529,17.712357 69.024252,18.370399 69.915975,19.02844 71.14681,20.327638 73.138149,22.386153 75.129487,24.444635 77.88842,27.269688 79.999172,29.470437 82.109924,31.671152 83.58684,33.262139 85.080542,34.258732 89.108333,36.213333 93.010149,36.047454 95.822506,36.052401 97.87703,36.055699 100.85339,36.056358 103.97326,36.03855 107.09314,36.056358 110.06949,36.055699 112.12402,36.052401 115.42979,36.073837 120.33641,35.909936 122.86598,34.258732 124.35968,33.262139 125.8366,31.671152 127.94735,29.470437 130.0581,27.269688 132.81704,24.444635 134.80838,22.386153 136.79981,20.327638 138.03055,19.02844 138.92227,18.370399 139.814,17.712357 140.36638,17.695572 140.64273,17.687195 140.91909,17.678819 140.91909,17.678786 142.2349,17.644423 143.55105,17.61006 146.18302,17.5414 148.67879,17.960384 151.17456,18.379369 153.5338,19.286031 156.77487,20.618207 160.01594,21.950416 164.13851,23.708007 167.72387,25.620496 169.7065,26.67813 171.51303,27.777284 173.02078,28.730973 172.53238,28.05697 172.05915,27.530808 171.54634,27.021167 170.10784,25.59164 168.35672,24.26939 165.53348,22.723748 162.71024,21.178073 158.81488,19.409071 154.84797,17.988514 150.88106,16.567925 146.84291,15.495845 143.96592,15.111686 141.08892,14.727493 139.37374,15.031186 137.45278,15.477905 135.53185,15.924624 133.40563,16.514368 131.62769,16.746665 129.84975,16.978961 128.42019,16.853843 122.79152,16.791317 119.45481,16.75425 114.70372,16.740201 110.31419,16.734067 110.27808,16.729253 110.25483,16.72767 110.24296,16.727933 110.20322,16.728791 110.20325,16.728791 105.2894,16.728791 104.89479,16.728791 104.3086,16.729154 103.85533,16.729154 103.40205,16.729121 102.81589,16.728791 102.42126,16.728791 97.507414,16.728791 97.507282,16.728791 97.467543,16.727933 97.455671,16.72767 97.432587,16.729253 97.396476,16.734067 93.006917,16.740201 88.255689,16.75425 84.918983,16.791317 79.290312,16.853843 77.860917,16.978961 76.082978,16.746665 74.305039,16.514368 72.178656,15.924624 70.257626,15.477905 68.93719,15.170782 67.71371,14.931362 66.143301,14.936474 Z"
       inkscape:connector-curvature="0" />
    <path
       inkscape:connector-curvature="0"
       id="view_icon"
       d="M 87.685534,43.331947 V 43.661726 45.824418 H 89.00033 V 45.16486 H 88.345059 V 43.991176 H 90.21029 V 44.614788 H 90.869981 V 43.331947 Z M 89.25647,44.814964 V 45.144743 47.307765 H 92.440884 V 44.814964 Z M 89.915995,45.474522 H 91.781391 V 46.648207 H 89.915995 Z"
       style="color:#000000;font-style:normal;font-variant:normal;font-weight:normal;font-stretch:normal;font-size:medium;line-height:normal;font-family:sans-serif;font-variant-ligatures:normal;font-variant-position:normal;font-variant-caps:normal;font-variant-numeric:normal;font-variant-alternates:normal;font-feature-settings:normal;text-indent:0;text-align:start;text-decoration:none;text-decoration-line:none;text-decoration-style:solid;text-decoration-color:#000000;letter-spacing:normal;word-spacing:normal;text-transform:none;writing-mode:lr-tb;direction:ltr;text-orientation:mixed;dominant-baseline:auto;baseline-shift:baseline;text-anchor:start;white-space:normal;shape-padding:0;clip-rule:nonzero;display:inline;overflow:visible;visibility:visible;isolation:auto;mix-blend-mode:normal;color-interpolation:sRGB;color-interpolation-filters:linearRGB;solid-color:#000000;solid-opacity:1;vector-effect:none;fill:#ffffff;fill-opacity:1;fill-rule:nonzero;stroke:none;stroke-width:2;stroke-linecap:square;stroke-linejoin:miter;stroke-miterlimit:4;stroke-dasharray:none;stroke-dashoffset:0;stroke-opacity:1;paint-order:normal;color-rendering:auto;image-rendering:auto;shape-rendering:auto;text-rendering:auto;enable-background:accumulate" />
    <circle
       style="fill:#2f3336;fill-opacity:1;stroke-width:3.29534;stroke-linecap:square"
       id="right_analog_base"
       cx="128.50047"
       cy="73.962036"
       r="13.765653" />
    <circle
       r="11.780527"
       cy="73.962036"
       cx="128.50047"
       id="right_analog_outter"
       style="fill:#000000;fill-opacity:1;stroke-width:2.82012;stroke-linecap:square" />
    <circle
       style="fill:#22272a;fill-opacity:1;stroke-width:2.55249;stroke-linecap:square"
       id="right_analog"
       cx="128.50047"
       cy="73.962036"
       r="10.662551" />
    <circle
       r="7.5760708"
       cy="73.962036"
       cx="128.50047"
       id="right_analog_inner"
       style="fill:#1c1d21;fill-opacity:1;stroke-width:1.81362;stroke-linecap:square" />
    <path
       inkscape:connector-curvature="0"
       id="x"
       style="font-size:26.7139px;line-height:1.25;font-family:'League Spartan';-inkscape-font-specification:'League Spartan, Normal';fill:#009cd3;fill-opacity:1;stroke-width:0.264583"
       d="M 142.93799,49.082637 140.10123,45.171126 142.47993,41.814633 H 140.41815 L 139.07925,43.796606 137.74001,41.814633 H 135.76678 L 138.05726,45.171126 135.30868,49.082637 H 137.36143 L 139.07925,46.606984 140.79707,49.082637 Z" />
    <path
       inkscape:connector-curvature="0"
       id="y"
       style="font-size:26.7139px;line-height:1.25;font-family:'League Spartan';-inkscape-font-specification:'League Spartan, Normal';fill:#ddb42c;fill-opacity:1;stroke-width:0.264583"
       d="M 148.55216,28.879242 151.23029,32.88751 V 36.147377 H 152.88644 V 32.88751 L 155.56458,28.879242 H 153.5737 L 152.05837,31.205009 150.54303,28.879242 Z" />
    <path
       inkscape:connector-curvature="0"
       id="b"
       style="font-size:26.7139px;line-height:1.25;font-family:'League Spartan';-inkscape-font-specification:'League Spartan, Normal';fill:#cf3930;fill-opacity:1;stroke-width:0.264583"
       d="M 163.68308,41.814633 V 49.082637 H 166.4407 C 167.94713,49.082637 168.81907,48.254231 168.81907,47.056144 168.81907,45.884438 168.176,45.382514 167.26877,45.22389 167.88546,44.906643 168.176,44.334146 168.176,43.664364 168.176,42.28127 167.1893,41.814633 165.93844,41.814633 Z M 165.33924,44.659968 V 43.091868 H 165.47148 C 166.19402,43.091868 166.57261,43.31216 166.57261,43.831892 166.57261,44.439675 166.18512,44.659968 165.47148,44.659968 Z M 165.33924,47.805072 V 46.087252 H 165.8593 C 166.64318,46.087252 167.07486,46.325023 167.07486,46.994475 167.07486,47.567301 166.64318,47.805072 165.8593,47.805072 Z" />
    <path
       inkscape:connector-curvature="0"
       id="a"
       style="font-size:26.7139px;line-height:1.25;font-family:'League Spartan';-inkscape-font-specification:'League Spartan, Normal';fill:#88bf57;fill-opacity:1;stroke-width:0.264583"
       d="M 152.82477,54.749892 H 151.29196 L 148.35824,62.017566 H 150.13806 L 150.67527,60.564229 H 153.44146 L 153.979,62.017566 H 155.75849 Z M 152.87787,59.110563 H 151.2392 L 152.04979,56.996348 H 152.06727 Z" />
    <path
       inkscape:connector-curvature="0"
       id="menu_icon"
       d="M 115.66555,43.763958 C 115.54634,43.761649 115.43527,43.823978 115.37502,43.926869 115.3148,44.02976 115.3148,44.157384 115.37502,44.260275 115.43527,44.363167 115.54634,44.425495 115.66555,44.423186 H 119.62933 C 119.74855,44.425495 119.85962,44.363167 119.91987,44.260275 119.98009,44.157384 119.98009,44.02976 119.91987,43.926869 119.85962,43.823978 119.74855,43.761649 119.62933,43.763958 Z M 115.66555,44.990077 C 115.54634,44.988098 115.43527,45.050426 115.37502,45.153318 115.3148,45.256209 115.3148,45.383503 115.37502,45.486395 115.43527,45.589286 115.54634,45.651944 115.66555,45.649635 H 119.62933 C 119.74855,45.651944 119.85962,45.589286 119.91987,45.486395 119.98009,45.383503 119.98009,45.256209 119.91987,45.153318 119.85962,45.050426 119.74855,44.988098 119.62933,44.990077 Z M 115.66555,46.216196 C 115.54634,46.214217 115.43527,46.276546 115.37502,46.379437 115.3148,46.482328 115.3148,46.609622 115.37502,46.712514 115.43527,46.815734 115.54634,46.878063 115.66555,46.875754 H 119.62933 C 119.74855,46.878063 119.85962,46.815734 119.91987,46.712514 119.98009,46.609622 119.98009,46.482328 119.91987,46.379437 119.85962,46.276546 119.74855,46.214217 119.62933,46.216196 Z"
       style="color:#000000;font-style:normal;font-variant:normal;font-weight:normal;font-stretch:normal;font-size:medium;line-height:normal;font-family:sans-serif;font-variant-ligatures:normal;font-variant-position:normal;font-variant-caps:normal;font-variant-numeric:normal;font-variant-alternates:normal;font-feature-settings:normal;text-indent:0;text-align:start;text-decoration:none;text-decoration-line:none;text-decoration-style:solid;text-decoration-color:#000000;letter-spacing:normal;word-spacing:normal;text-transform:none;writing-mode:lr-tb;direction:ltr;text-orientation:mixed;dominant-baseline:auto;baseline-shift:baseline;text-anchor:start;white-space:normal;shape-padding:0;clip-rule:nonzero;display:inline;overflow:visible;visibility:visible;isolation:auto;mix-blend-mode:normal;color-interpolation:sRGB;color-interpolation-filters:linearRGB;solid-color:#000000;solid-opacity:1;vector-effect:none;fill:#ffffff;fill-opacity:1;fill-rule:nonzero;stroke:none;stroke-width:2;stroke-linecap:round;stroke-linejoin:round;stroke-miterlimit:4;stroke-dasharray:none;stroke-dashoffset:0;stroke-opacity:1;color-rendering:auto;image-rendering:auto;shape-rendering:auto;text-rendering:auto;enable-background:accumulate" />
    <path
       inkscape:connector-curvature="0"
       id="logo"
       d="M 103.75989,19.220108 C 99.675448,19.220108 96.357902,22.537687 96.357902,26.622101 96.357902,30.706515 99.675448,34.024589 103.75989,34.024589 107.84431,34.024589 111.16251,30.706515 111.16251,26.622101 111.16251,22.537687 107.84431,19.220108 103.75989,19.220108 Z M 103.75989,19.879666 C 107.48785,19.879666 110.50296,22.894112 110.50296,26.622101 110.50296,30.350057 107.48785,33.36503 103.75989,33.36503 100.03191,33.36503 97.017461,30.350057 97.017461,26.622101 97.017461,22.894112 100.03191,19.879666 103.75989,19.879666 Z"
       style="color:#000000;font-style:normal;font-variant:normal;font-weight:normal;font-stretch:normal;font-size:medium;line-height:normal;font-family:sans-serif;font-variant-ligatures:normal;font-variant-position:normal;font-variant-caps:normal;font-variant-numeric:normal;font-variant-alternates:normal;font-feature-settings:normal;text-indent:0;text-align:start;text-decoration:none;text-decoration-line:none;text-decoration-style:solid;text-decoration-color:#000000;letter-spacing:normal;word-spacing:normal;text-transform:none;writing-mode:lr-tb;direction:ltr;text-orientation:mixed;dominant-baseline:auto;baseline-shift:baseline;text-anchor:start;white-space:normal;shape-padding:0;clip-rule:nonzero;display:inline;overflow:visible;visibility:visible;isolation:auto;mix-blend-mode:normal;color-interpolation:sRGB;color-interpolation-filters:linearRGB;solid-color:#000000;solid-opacity:1;vector-effect:none;fill:#c0c0c0;fill-opacity:1;fill-rule:nonzero;stroke:none;stroke-width:2;stroke-linecap:square;stroke-linejoin:miter;stroke-miterlimit:4;stroke-dasharray:none;stroke-dashoffset:0;stroke-opacity:1;paint-order:normal;color-rendering:auto;image-rendering:auto;shape-rendering:auto;text-rendering:auto;enable-background:accumulate" />
  </g>
</svg>
