<?xml version="1.0" encoding="UTF-8" standalone="no"?>
<!-- Generator: Adobe Illustrator 16.0.0, SVG Export Plug-In . SVG Version: 6.00 Build 0)  -->

<svg
   xmlns:dc="http://purl.org/dc/elements/1.1/"
   xmlns:cc="http://creativecommons.org/ns#"
   xmlns:rdf="http://www.w3.org/1999/02/22-rdf-syntax-ns#"
   xmlns:svg="http://www.w3.org/2000/svg"
   xmlns="http://www.w3.org/2000/svg"
   xmlns:sodipodi="http://sodipodi.sourceforge.net/DTD/sodipodi-0.dtd"
   xmlns:inkscape="http://www.inkscape.org/namespaces/inkscape"
   version="1.1"
   id="Capa_1"
   x="0px"
   y="0px"
   width="584.628px"
   height="584.628px"
   viewBox="0 0 584.628 584.628"
   style="enable-background:new 0 0 584.628 584.628;"
   xml:space="preserve"
   sodipodi:docname="xbox_fat.svg"
   inkscape:version="1.0.2 (e86c870879, 2021-01-15, custom)"><metadata
     id="metadata34"><rdf:RDF><cc:Work
         rdf:about=""><dc:format>image/svg+xml</dc:format><dc:type
           rdf:resource="http://purl.org/dc/dcmitype/StillImage" /></cc:Work></rdf:RDF></metadata><defs
     id="defs32" /><sodipodi:namedview
     pagecolor="#ffffff"
     bordercolor="#666666"
     borderopacity="1"
     objecttolerance="10"
     gridtolerance="10"
     guidetolerance="10"
     inkscape:pageopacity="0"
     inkscape:pageshadow="2"
     inkscape:window-width="2560"
     inkscape:window-height="1360"
     id="namedview30"
     showgrid="false"
     inkscape:zoom="1.1289699"
     inkscape:cx="120.6541"
     inkscape:cy="250.71947"
     inkscape:window-x="-11"
     inkscape:window-y="-11"
     inkscape:window-maximized="1"
     inkscape:current-layer="Capa_1"
     inkscape:document-rotation="0" /><path
     d="M 515.044,159.444 C 513.697,158.606 512.277,157.786 510.821,156.984 509.352,156.17 507.828,155.374 506.256,154.597 472.204,137.724 416.989,129.45 416.989,129.45 381.622,169.744 330.018,182.388 330.018,182.388 344.852,193.741 354.424,211.63 354.424,231.752 354.424,266.061 326.614,293.87 292.306,293.87 257.997,293.87 230.188,266.06 230.188,231.752 230.188,211.629 239.754,193.74 254.595,182.388 254.595,182.388 202.991,169.744 167.624,129.45 167.624,129.45 112.416,137.724 78.357,154.597 76.784,155.374 75.267,156.17 73.792,156.99 72.342,157.792 70.916,158.612 69.575,159.45 69.575,159.45 68.62,161.414 66.98,164.964 51.968,197.461 -22.77,368.221 6.894,486.283 17.121,526.974 34.483,542.06 53.675,542.06 96.245,542.06 147.831,467.904 150.61,434.575 150.61,434.575 189.564,413.755 292.312,413.755 395.06,413.755 434.015,434.575 434.015,434.575 436.793,467.898 488.378,542.06 530.95,542.06 550.148,542.06 567.505,526.987 577.731,486.283 607.4,368.221 532.657,197.461 517.644,164.964 515.999,161.409 515.044,159.444 515.044,159.444 Z"
     id="body"
     style="fill:#363432;fill-opacity:1" /><path
     d="M 412.394,125.411 414.597,122.902 417.902,123.398 C 420.093,123.729 461.935,130.112 495.449,143.19 481.171,134.91 446.868,117.253 395.956,105.277 395.956,105.277 348.667,118.784 309.394,122.334 252.3413,124.74021 309.394,122.334 284.988,123.007 244.29,121.171 188.659,105.278 188.659,105.278 137.741,117.261 103.438,134.911 89.166,143.192 122.686,130.113 164.521,123.73 166.712,123.4 L 170.017,122.904 172.22,125.413 C 205.831,163.706 255.556,176.325 256.052,176.448 L 268.433,179.502 258.31,187.25 C 244.326,197.948 236.309,214.172 236.309,231.755 236.309,262.63 261.432,287.753 292.307,287.753 323.182,287.753 348.305,262.63 348.305,231.755 348.305,214.172 340.287,197.954 326.304,187.25 L 316.157,179.484 328.568,176.442 C 329.063,176.323 378.69,163.813 412.394,125.411 Z M 342.938,231.079 C 342.938,258.998 320.227,281.704 292.313,281.704 264.4,281.704 241.683,258.993 241.683,231.079 241.683,203.165 264.394,180.454 292.313,180.454 320.232,180.454 342.938,203.159 342.938,231.079 Z"
     id="upper_body"
     style="fill:#151517;fill-opacity:1" /><path
     d="M 371.328,302.45 C 352.968,302.45 338.029,317.384 338.029,335.743 338.029,354.103 352.967,369.042 371.328,369.042 389.689,369.042 404.627,354.104 404.627,335.743 404.627,317.382 389.688,302.45 371.328,302.45 Z"
     id="right_analog"
     style="stroke:none" /><path
     d="M 236.144,306.961 C 234.186,304.941 232.013,303.154 229.687,301.564 226.131,299.122 222.239,297.157 218.028,295.92 V 297.193 300.443 324.103 H 246.211 C 244.308,317.598 240.777,311.747 236.144,306.961 Z"
     id="path18" /><path
     d="M 194.761,295.927 C 181.303,299.88 170.532,310.646 166.578,324.11 H 194.761 Z"
     id="path28" /><path
     d="M 194.761,375.572 V 347.39 H 166.578 C 170.531,360.854 181.303,371.619 194.761,375.572 Z"
     id="path30" /><path
     d="M 218.035,375.572 C 231.499,371.619 242.264,360.853 246.218,347.389 H 218.035 Z"
     id="path32" /><path
     d="M 217.19,330.229 C 214.283,330.229 211.915,327.86 211.915,324.959 V 297.933 294.647 294.628 C 211.896,294.628 211.878,294.628 211.86,294.622 209.21,294.273 206.554,294.267 203.898,294.426 202.888,294.488 201.885,294.493 200.875,294.628 V 324.959 C 200.875,327.866 198.513,330.229 195.605,330.229 H 165.274 C 165.023,332.065 164.9,333.913 164.9,335.743 164.9,337.585 165.023,339.433 165.274,341.264 H 195.605 C 198.512,341.264 200.875,343.632 200.875,346.534 V 376.864 C 204.553,377.354 208.243,377.354 211.909,376.864 V 346.534 C 211.909,343.627 214.278,341.264 217.184,341.264 H 247.515 C 247.76,339.422 247.888,337.574 247.888,335.743 247.888,333.912 247.76,332.065 247.515,330.229 Z"
     id="dpad"
     style="stroke:none" /><path
     d="M 126.92,205.503 C 119.031,205.503 111.785,208.275 106.075,212.878 105.298,213.503 104.557,214.17 103.841,214.861 103.1,215.57 102.403,216.317 101.73,217.094 96.693,222.927 93.627,230.509 93.627,238.802 93.627,257.162 108.566,272.101 126.926,272.101 135.898,272.101 144.031,268.521 150.023,262.731 150.757,262.021 151.455,261.274 152.122,260.503 152.746,259.781 153.328,259.028 153.885,258.257 157.85,252.774 160.219,246.066 160.219,238.802 160.219,220.442 145.28,205.503 126.92,205.503 Z"
     id="left_analog"
     style="stroke:none" /><ellipse
     style="fill:#43A837;fill-opacity:1;stroke:none;stroke-width:0;stroke-linecap:round;stroke-linejoin:round"
     id="green"
     cx="457.03061"
     cy="282.7442"
     rx="23.199524"
     ry="23.489517" /><ellipse
     style="fill:#EAB141;fill-opacity:1;stroke:none;stroke-width:0;stroke-linecap:round;stroke-linejoin:round"
     id="yellow"
     cx="456.9707"
     cy="195.166"
     rx="23.199524"
     ry="23.489517" /><ellipse
     style="fill:#3065A8;fill-opacity:1;stroke:none;stroke-width:0;stroke-linecap:round;stroke-linejoin:round"
     id="blue"
     cx="412.8916"
     cy="239.2451"
     rx="23.199524"
     ry="23.489517" /><ellipse
     style="fill:#b32a3a;fill-opacity:1;stroke:none;stroke-width:0;stroke-linecap:round;stroke-linejoin:round"
     id="red"
     cx="500.78976"
     cy="239.82509"
     rx="23.199524"
     ry="23.489517" /><circle
     style="fill:#A4A49F;fill-opacity:1;stroke:none;stroke-width:0;stroke-linecap:round;stroke-linejoin:round"
     id="right_button_1"
     cx="462.73065"
     cy="355.07263"
     r="17.399643" /><circle
     style="fill:#403D3C;fill-opacity:1;stroke:none;stroke-width:0;stroke-linecap:round;stroke-linejoin:round"
     id="right_button_2"
     cx="507.55063"
     cy="321.02356"
     r="17.399643" /><circle
     style="fill:#403d3c;fill-opacity:1;stroke:none;stroke-width:0;stroke-linecap:round;stroke-linejoin:round"
     id="left_button_1"
     cx="101.71508"
     cy="335.95807"
     r="13.862077" /><circle
     style="fill:#403d3c;fill-opacity:1;stroke:none;stroke-width:0;stroke-linecap:round;stroke-linejoin:round"
     id="left_button_2"
     cx="70.239983"
     cy="300.56198"
     r="13.64098" /><circle
     style="fill:#151517;fill-opacity:1"
     id="center"
     cx="292.19379"
     cy="231.12479"
     r="51" /><g
     aria-label="xbox"
     id="text864"
     style="font-style:normal;font-variant:normal;font-weight:normal;font-stretch:normal;font-size:21.7769px;line-height:1.25;font-family:'XBOX Original';-inkscape-font-specification:'XBOX Original';fill:#4be248;fill-opacity:1;stroke-width:0.544422"><path
       d="M 265.66982,240.69505 258.33287,234.74043 250.99593,240.69505 H 246.8915 L 256.28066,233.07101 246.8915,225.44697 H 250.99593 L 258.33287,231.40159 265.66982,225.44697 H 269.77425 L 260.38509,233.07101 269.77425,240.69505 Z"
       style="stroke-width:0.544422;fill:#4be248;fill-opacity:1"
       id="path866" /><path
       d="M 273.13436,234.32574 Q 273.41083,236.23972 274.50605,238.16434 H 286.81936 Q 287.90395,236.23972 288.18041,234.32574 Z M 273.13436,231.80565 H 288.18041 Q 287.90395,229.89167 286.81936,227.97768 H 274.50605 Q 273.41083,229.89167 273.13436,231.80565 Z M 290.74303,234.32574 Q 290.42403,238.05801 288.16978,240.69505 H 273.14499 Q 270.89074,238.05801 270.57175,234.32574 H 268.17927 V 231.80565 H 270.57175 Q 270.89074,228.07338 273.14499,225.44697 H 288.16978 Q 290.42403,228.07338 290.74303,231.81629 L 289.6478,232.43302 V 233.70901 Z"
       style="stroke-width:0.544422;fill:#4be248;fill-opacity:1"
       id="path868" /><path
       d="M 309.17045,238.16434 Q 310.61657,235.61236 310.61657,233.07101 310.61657,230.51903 309.17045,227.97768 H 296.85715 Q 295.40039,230.51903 295.40039,233.07101 295.40039,235.61236 296.85715,238.16434 Z M 310.52087,240.69505 H 295.49609 Q 292.86968,237.62204 292.86968,233.07101 292.86968,228.50935 295.49609,225.44697 H 310.52087 Q 313.14729,228.50935 313.14729,233.07101 313.14729,237.62204 310.52087,240.69505 Z"
       style="stroke-width:0.544422;fill:#4be248;fill-opacity:1"
       id="path870" /><path
       d="M 332.45727,240.69505 325.12033,234.74043 317.78338,240.69505 H 313.67895 L 323.06811,233.07101 313.67895,225.44697 H 317.78338 L 325.12033,231.40159 332.45727,225.44697 H 336.56171 L 327.17254,233.07101 336.56171,240.69505 Z"
       style="stroke-width:0.544422;fill:#4be248;fill-opacity:1"
       id="path872" /></g><g
     aria-label="A"
     transform="scale(1.0341749,0.96695443)"
     id="text1486"
     style="font-style:normal;font-variant:normal;font-weight:bold;font-stretch:normal;font-size:39.3662px;line-height:1.25;font-family:DINOT;-inkscape-font-specification:'DINOT, Bold';font-variant-ligatures:normal;font-variant-caps:normal;font-variant-numeric:normal;font-variant-east-asian:normal;fill:#007400;fill-opacity:0;stroke:#003f00;stroke-width:0.984155;stroke-opacity:1"><path
       d="M 454.91978,304.59052 H 449.21168 L 447.5583,299.63037 H 437.59865 L 435.90591,304.59052 H 430.19781 L 440.39365,276.56178 H 444.68457 Z M 446.10175,295.02453 442.67689,284.82868 439.13393,295.02453 Z"
       style="font-style:normal;font-variant:normal;font-weight:bold;font-stretch:normal;font-size:39.3662px;font-family:DINOT;-inkscape-font-specification:'DINOT, Bold';font-variant-ligatures:normal;font-variant-caps:normal;font-variant-numeric:normal;font-variant-east-asian:normal;fill:#007400;fill-opacity:0;stroke:#003f00;stroke-width:0.984155;stroke-opacity:1"
       id="a" /></g><g
     aria-label="B"
     id="text1490"
     style="font-style:normal;font-variant:normal;font-weight:bold;font-stretch:normal;font-size:40px;line-height:1.25;font-family:DINOT;-inkscape-font-specification:'DINOT, Bold';font-variant-ligatures:normal;font-variant-caps:normal;font-variant-numeric:normal;font-variant-east-asian:normal;fill:#d8475c;fill-opacity:0.460674;stroke:#000000;stroke-opacity:1"><path
       d="M 510.57002,245.25477 Q 510.57002,249.13477 508.17002,251.29477 505.77002,253.45477 501.85002,253.45477 H 489.93002 V 224.97477 H 501.37002 Q 505.49002,224.97477 507.81002,227.13477 510.17002,229.29477 510.17002,232.97477 510.17002,235.13477 509.05002,236.69477 507.97002,238.21477 506.65002,238.85477 510.57002,240.69477 510.57002,245.25477 Z M 504.05002,247.49477 Q 505.01002,246.49477 505.01002,244.97477 505.01002,243.45477 504.05002,242.49477 503.09002,241.49477 501.29002,241.49477 H 495.49002 V 248.49477 H 501.29002 Q 503.09002,248.49477 504.05002,247.49477 Z M 503.65002,235.61477 Q 504.61002,234.69477 504.61002,233.21477 504.61002,231.73477 503.65002,230.85477 502.69002,229.93477 500.93002,229.93477 H 495.49002 V 236.49477 H 500.93002 Q 502.69002,236.49477 503.65002,235.61477 Z"
       id="b" /></g><g
     aria-label="X"
     id="text1494"
     style="font-style:normal;font-variant:normal;font-weight:bold;font-stretch:normal;font-size:40px;line-height:1.25;font-family:DINOT;-inkscape-font-specification:'DINOT, Bold';font-variant-ligatures:normal;font-variant-caps:normal;font-variant-numeric:normal;font-variant-east-asian:normal;fill:#0084c7;fill-opacity:1;stroke:#000000;stroke-opacity:1"><path
       d="M 424.69179,252.87483 H 418.33179 L 412.81179,242.95483 407.33179,252.87483 H 400.97179 L 409.81179,238.27483 401.53179,224.39483 H 407.85179 L 412.81179,233.59483 417.81179,224.39483 H 424.09179 L 415.81179,238.27483 Z"
       id="x" /></g><g
     aria-label="Y"
     id="text1498"
     style="font-style:normal;font-variant:normal;font-weight:bold;font-stretch:normal;font-size:40px;line-height:1.25;font-family:DINOT;-inkscape-font-specification:'DINOT, Bold';font-variant-ligatures:normal;font-variant-caps:normal;font-variant-numeric:normal;font-variant-east-asian:normal;fill:#e9ea29;fill-opacity:0.376405;stroke:#001000;stroke-opacity:1"><path
       d="M 468.77083,180.31573 460.21083,197.11573 V 208.79573 H 454.69083 V 197.11573 L 446.13083,180.31573 H 452.17083 L 457.49083,191.79573 462.73083,180.31573 Z"
       id="y" /></g></svg>
