<?xml version="1.0" encoding="UTF-8" standalone="no"?>
<!-- Generator: Adobe Illustrator 16.0.0, SVG Export Plug-In . SVG Version: 6.00 Build 0)  -->

<svg
   xmlns:dc="http://purl.org/dc/elements/1.1/"
   xmlns:cc="http://creativecommons.org/ns#"
   xmlns:rdf="http://www.w3.org/1999/02/22-rdf-syntax-ns#"
   xmlns:svg="http://www.w3.org/2000/svg"
   xmlns="http://www.w3.org/2000/svg"
   xmlns:sodipodi="http://sodipodi.sourceforge.net/DTD/sodipodi-0.dtd"
   xmlns:inkscape="http://www.inkscape.org/namespaces/inkscape"
   version="1.1"
   id="Capa_1"
   x="0px"
   y="0px"
   width="584.628px"
   height="584.628px"
   viewBox="0 0 584.628 584.628"
   style="enable-background:new 0 0 584.628 584.628;"
   xml:space="preserve"
   sodipodi:docname="xbox - Copy.svg"
   inkscape:version="1.0.2 (e86c870879, 2021-01-15, custom)">
		<path
   d="M 282.974,229.659 C 285,229.659 287.026,229.653 289.057,229.665 289.436,229.665 289.669,229.567 289.534,229.157 289.253,228.331 288.947,227.511 288.635,226.697 288.512,226.379 288.268,226.287 287.925,226.287 284.669,226.299 281.413,226.299 278.157,226.287 277.759,226.287 277.521,226.428 277.392,226.777 277.117,227.536 276.829,228.295 276.59,229.066 276.419,229.629 276.462,229.66 277.049,229.66 279.021,229.659 280.998,229.659 282.974,229.659 Z"
   id="path2" />
		<path
   d="M 412.394,125.411 414.597,122.902 417.902,123.398 C 420.093,123.729 461.935,130.112 495.449,143.19 481.171,134.91 446.868,117.253 395.956,105.277 395.956,105.277 348.667,118.784 309.394,122.334 252.3413,124.74021 309.394,122.334 284.988,123.007 244.29,121.171 188.659,105.278 188.659,105.278 137.741,117.261 103.438,134.911 89.166,143.192 122.686,130.113 164.521,123.73 166.712,123.4 L 170.017,122.904 172.22,125.413 C 205.831,163.706 255.556,176.325 256.052,176.448 L 268.433,179.502 258.31,187.25 C 244.326,197.948 236.309,214.172 236.309,231.755 236.309,262.63 261.432,287.753 292.307,287.753 323.182,287.753 348.305,262.63 348.305,231.755 348.305,214.172 340.287,197.954 326.304,187.25 L 316.157,179.484 328.568,176.442 C 329.063,176.323 378.69,163.813 412.394,125.411 Z M 342.938,231.079 C 342.938,258.998 320.227,281.704 292.313,281.704 264.4,281.704 241.683,258.993 241.683,231.079 241.683,203.165 264.394,180.454 292.313,180.454 320.232,180.454 342.938,203.159 342.938,231.079 Z"
   id="path4"
   style="fill:#151517;fill-opacity:1"
   />
		<path
   d="M 297.76,235.038 C 299.424,235.062 301.089,235.05 302.754,235.05 304.418,235.05 306.083,235.044 307.747,235.056 308.078,235.056 308.262,234.952 308.415,234.658 308.91,233.691 309.228,232.681 309.357,231.592 309.558,229.829 309.198,228.208 308.372,226.659 308.225,226.39 308.047,226.286 307.741,226.286 304.412,226.292 301.083,226.286 297.754,226.305 297.558,226.305 297.271,226.464 297.179,226.635 295.709,229.328 295.709,232.045 297.166,234.744 297.252,234.91 297.558,235.032 297.76,235.038 Z"
   id="path6"
   style="fill:#000000;fill-opacity:0;" />
		<path
   d="M 277.503,234.861 C 277.564,234.971 277.778,235.045 277.919,235.045 281.328,235.057 284.737,235.057 288.14,235.045 288.281,235.045 288.495,234.971 288.556,234.861 289.113,233.906 289.443,232.878 289.566,231.727 285.172,231.727 280.851,231.727 276.487,231.727 276.616,232.872 276.946,233.906 277.503,234.861 Z"
   id="path8" />
		<path
   d="M 247.796,231.079 C 247.796,255.62 267.766,275.583 292.307,275.583 316.848,275.583 336.811,255.614 336.811,231.079 336.811,206.544 316.847,186.574 292.307,186.574 267.766,186.574 247.796,206.538 247.796,231.079 Z M 270.067,237.058 C 269.921,237.058 269.767,236.936 269.639,236.838 267.662,235.32 265.685,233.802 263.715,232.273 263.415,232.034 263.207,232.028 262.902,232.267 260.98,233.772 259.046,235.266 257.094,236.741 256.837,236.93 256.476,237.047 256.152,237.059 255.314,237.102 254.469,237.071 253.471,237.071 256.262,234.905 258.93,232.83 261.666,230.7 258.912,228.558 256.213,226.465 253.41,224.286 254.548,224.286 255.57,224.274 256.586,224.298 256.727,224.298 256.874,224.445 257.002,224.543 258.991,226.073 260.98,227.603 262.957,229.151 263.245,229.377 263.44,229.383 263.734,229.157 265.686,227.633 267.651,226.128 269.622,224.628 269.811,224.481 270.099,224.389 270.338,224.383 271.244,224.352 272.156,224.371 273.067,224.371 273.079,224.402 273.091,224.438 273.104,224.469 270.405,226.526 267.706,228.588 264.934,230.699 267.688,232.816 270.393,234.897 273.22,237.07 272.081,237.064 271.071,237.076 270.067,237.058 Z M 290.906,231.323 C 291.695,231.635 291.616,232.168 291.494,232.828 291.23,234.236 290.771,235.546 289.86,236.672 289.633,236.953 289.382,237.076 289.009,237.076 287.014,237.057 285.019,237.07 283.024,237.07 281.011,237.07 278.997,237.083 276.984,237.058 276.739,237.052 276.439,236.912 276.274,236.734 275.258,235.614 274.811,234.225 274.585,232.768 274.42,231.691 274.457,231.685 273.367,231.685 272.584,231.685 272.584,231.685 272.584,230.908 272.584,229.678 272.584,229.666 273.845,229.672 274.255,229.672 274.439,229.605 274.5,229.115 274.671,227.762 275.02,226.447 275.792,225.29 275.976,225.015 276.165,224.733 276.404,224.507 276.539,224.379 276.777,224.293 276.973,224.293 281,224.281 285.021,224.274 289.048,224.299 289.305,224.299 289.623,224.471 289.795,224.667 290.725,225.707 291.196,226.98 291.471,228.333 291.49,228.431 291.502,228.529 291.527,228.627 291.711,229.484 291.711,229.484 290.97,229.924 290.587,230.142 290.508,231.164 290.906,231.323 Z M 312.938,224.365 C 313.47,224.365 314.015,224.42 314.535,224.353 315.637,224.206 316.494,224.598 317.339,225.29 318.954,226.618 320.644,227.854 322.29,229.152 322.59,229.384 322.779,229.36 323.066,229.133 325.006,227.621 326.959,226.122 328.918,224.641 329.126,224.488 329.419,224.384 329.677,224.372 330.571,224.341 331.47,224.36 332.431,224.457 329.732,226.519 327.027,228.576 324.26,230.693 327.021,232.811 329.72,234.891 332.541,237.064 331.384,237.064 330.374,237.076 329.37,237.052 329.224,237.052 329.07,236.924 328.942,236.825 326.971,235.301 324.995,233.777 323.036,232.241 322.761,232.027 322.59,232.009 322.307,232.235 320.349,233.777 318.378,235.301 316.396,236.813 316.206,236.96 315.918,237.045 315.679,237.058 314.768,237.088 313.862,237.07 312.95,237.07 312.944,237.033 312.932,236.996 312.926,236.96 315.601,234.891 318.281,232.823 321.03,230.699 318.282,228.588 315.601,226.531 312.921,224.475 312.925,224.438 312.931,224.402 312.938,224.365 Z M 294.455,227.541 C 294.736,226.489 295.195,225.509 295.942,224.702 296.107,224.524 296.419,224.384 296.664,224.377 300.722,224.359 304.779,224.359 308.837,224.377 309.094,224.377 309.412,224.543 309.59,224.738 310.643,225.919 311.119,227.369 311.328,228.9 311.572,230.675 311.517,232.456 310.924,234.151 310.618,235.026 310.073,235.822 309.614,236.642 309.43,236.96 309.131,237.083 308.732,237.077 306.737,237.053 304.742,237.065 302.747,237.065 300.77,237.065 298.788,237.053 296.81,237.077 296.376,237.083 296.101,236.924 295.843,236.606 294.852,235.376 294.374,233.944 294.166,232.414 293.941,230.772 294.026,229.139 294.455,227.541 Z"
   id="path10"
   style="fill:#000000;fill-opacity:1;" />
		<circle
   cx="455.94299"
   cy="282.78699"
   r="15.747"
   id="circle12"
   style="fill:#66b64b;fill-opacity:1" />
		<path
   d="M 371.328,302.45 C 352.968,302.45 338.029,317.384 338.029,335.743 338.029,354.103 352.967,369.042 371.328,369.042 389.689,369.042 404.627,354.104 404.627,335.743 404.627,317.382 389.688,302.45 371.328,302.45 Z"
   id="path14" />
		
		<path
   d="M 236.144,306.961 C 234.186,304.941 232.013,303.154 229.687,301.564 226.131,299.122 222.239,297.157 218.028,295.92 V 297.193 300.443 324.103 H 246.211 C 244.308,317.598 240.777,311.747 236.144,306.961 Z"
   id="path18" />
		<path
   d="M 499.934,223.055 C 491.256,223.055 484.188,230.117 484.188,238.796 484.188,247.48 491.25,254.543 499.934,254.543 508.619,254.543 515.675,247.481 515.675,238.796 515.675,230.124 508.618,223.055 499.934,223.055 Z"
   id="path20" />
		<circle
   cx="101.755"
   cy="335.75"
   r="8.1330004"
   id="circle22" />
		<circle
   cx="70.242996"
   cy="300.58401"
   r="8.1339998"
   id="circle24" />
		
		<path
   d="M 194.761,295.927 C 181.303,299.88 170.532,310.646 166.578,324.11 H 194.761 Z"
   id="path28" />
		<path
   d="M 194.761,375.572 V 347.39 H 166.578 C 170.531,360.854 181.303,371.619 194.761,375.572 Z"
   id="path30" />
		<path
   d="M 218.035,375.572 C 231.499,371.619 242.264,360.853 246.218,347.389 H 218.035 Z"
   id="path32" />
		<path
   d="M 217.19,330.229 C 214.283,330.229 211.915,327.86 211.915,324.959 V 297.933 294.647 294.628 C 211.896,294.628 211.878,294.628 211.86,294.622 209.21,294.273 206.554,294.267 203.898,294.426 202.888,294.488 201.885,294.493 200.875,294.628 V 324.959 C 200.875,327.866 198.513,330.229 195.605,330.229 H 165.274 C 165.023,332.065 164.9,333.913 164.9,335.743 164.9,337.585 165.023,339.433 165.274,341.264 H 195.605 C 198.512,341.264 200.875,343.632 200.875,346.534 V 376.864 C 204.553,377.354 208.243,377.354 211.909,376.864 V 346.534 C 211.909,343.627 214.278,341.264 217.184,341.264 H 247.515 C 247.76,339.422 247.888,337.574 247.888,335.743 247.888,333.912 247.76,332.065 247.515,330.229 Z"
   id="path34" />
		<path
   d="M 126.92,205.503 C 119.031,205.503 111.785,208.275 106.075,212.878 105.298,213.503 104.557,214.17 103.841,214.861 103.1,215.57 102.403,216.317 101.73,217.094 96.693,222.927 93.627,230.509 93.627,238.802 93.627,257.162 108.566,272.101 126.926,272.101 135.898,272.101 144.031,268.521 150.023,262.731 150.757,262.021 151.455,261.274 152.122,260.503 152.746,259.781 153.328,259.028 153.885,258.257 157.85,252.774 160.219,246.066 160.219,238.802 160.219,220.442 145.28,205.503 126.92,205.503 Z"
   id="path36" />
		<path
   d="M 411.959,223.055 C 403.28,223.055 396.212,230.117 396.212,238.796 396.212,247.48 403.274,254.543 411.959,254.543 420.644,254.543 427.699,247.481 427.699,238.796 427.699,230.124 420.644,223.055 411.959,223.055 Z"
   id="path38" />
		<path
   d="M 455.949,210.558 C 464.628,210.558 471.69,203.496 471.69,194.811 471.69,186.133 464.628,179.07 455.949,179.07 447.271,179.07 440.203,186.132 440.203,194.811 440.203,203.496 447.265,210.558 455.949,210.558 Z"
   id="path40" />
		<path
   d="M 515.044,159.444 C 513.697,158.606 512.277,157.786 510.821,156.984 509.352,156.17 507.828,155.374 506.256,154.597 472.204,137.724 416.989,129.45 416.989,129.45 381.622,169.744 330.018,182.388 330.018,182.388 344.852,193.741 354.424,211.63 354.424,231.752 354.424,266.061 326.614,293.87 292.306,293.87 257.997,293.87 230.188,266.06 230.188,231.752 230.188,211.629 239.754,193.74 254.595,182.388 254.595,182.388 202.991,169.744 167.624,129.45 167.624,129.45 112.416,137.724 78.357,154.597 76.784,155.374 75.267,156.17 73.792,156.99 72.342,157.792 70.916,158.612 69.575,159.45 69.575,159.45 68.62,161.414 66.98,164.964 51.968,197.461 -22.77,368.221 6.894,486.283 17.121,526.974 34.483,542.06 53.675,542.06 96.245,542.06 147.831,467.904 150.61,434.575 150.61,434.575 189.564,413.755 292.312,413.755 395.06,413.755 434.015,434.575 434.015,434.575 436.793,467.898 488.378,542.06 530.95,542.06 550.148,542.06 567.505,526.987 577.731,486.283 607.4,368.221 532.657,197.461 517.644,164.964 515.999,161.409 515.044,159.444 515.044,159.444 Z M 70.243,314.837 C 62.385,314.837 55.99,308.442 55.99,300.584 55.99,292.726 62.385,286.33 70.243,286.33 78.101,286.33 84.496,292.726 84.496,300.584 84.496,308.442 78.101,314.837 70.243,314.837 Z M 101.755,350.003 C 93.897,350.003 87.502,343.607 87.502,335.749 87.502,327.892 93.891,321.502 101.755,321.502 109.619,321.502 116.008,327.892 116.008,335.749 116.008,343.607 109.613,350.003 101.755,350.003 Z M 155.029,266.391 C 147.875,273.68 137.924,278.221 126.92,278.221 105.182,278.221 87.501,260.534 87.501,238.803 87.501,228.601 91.43,219.323 97.813,212.315 98.505,211.556 99.227,210.816 99.974,210.112 100.708,209.421 101.455,208.747 102.238,208.117 109.001,202.67 117.581,199.39 126.92,199.39 148.658,199.39 166.339,217.071 166.339,238.803 166.339,247.426 163.524,255.382 158.811,261.875 158.254,262.64 157.697,263.399 157.091,264.121 156.431,264.904 155.746,265.663 155.029,266.391 Z M 253.831,341.27 253.121,344.917 252.638,347.39 H 252.442 C 248.164,364.415 235.061,377.525 218.035,381.796 V 381.986 L 215.63,382.457 C 215.605,382.463 215.587,382.47 215.563,382.476 L 211.916,383.18 V 383.002 C 210.08,383.216 208.238,383.363 206.402,383.363 204.566,383.363 202.724,383.216 200.881,383.002 V 383.18 L 197.234,382.476 C 197.21,382.47 197.191,382.463 197.167,382.457 L 194.762,381.992 V 381.796 C 177.742,377.525 164.634,364.422 160.362,347.39 H 160.173 L 159.689,344.917 158.98,341.27 H 159.157 C 158.943,339.434 158.802,337.592 158.802,335.749 158.802,333.913 158.943,332.071 159.157,330.235 H 158.98 L 159.689,326.588 160.173,324.115 H 160.362 C 164.597,307.255 177.492,294.249 194.273,289.843 194.438,289.8 194.597,289.751 194.763,289.708 V 289.512 L 197.168,289.047 C 197.192,289.041 197.211,289.034 197.235,289.028 L 198.833,288.716 200.883,288.318 V 288.496 C 202.04,288.361 203.196,288.288 204.36,288.239 206.881,288.129 209.409,288.202 211.918,288.496 V 288.325 L 215.565,289.029 C 215.589,289.035 215.608,289.041 215.632,289.048 L 218.037,289.519 V 289.708 C 226.562,291.851 234.169,296.104 240.124,302.077 241.385,303.344 242.511,304.733 243.624,306.135 244.634,307.407 245.54,308.754 246.421,310.125 249.126,314.366 251.17,319.061 252.437,324.115 H 252.633 L 253.116,326.588 253.826,330.235 H 253.649 C 253.863,332.077 254.01,333.92 254.01,335.749 254.01,337.585 253.869,339.428 253.649,341.27 Z M 371.328,375.168 C 349.59,375.168 331.909,357.481 331.909,335.749 331.909,325.327 336.004,315.865 342.625,308.815 344.345,306.979 346.242,305.314 348.28,303.839 354.009,299.695 360.869,297.052 368.323,296.488 369.314,296.415 370.312,296.335 371.322,296.335 372.851,296.335 374.363,296.445 375.85,296.617 395.458,298.869 410.741,315.546 410.741,335.755 410.747,357.481 393.066,375.168 371.328,375.168 Z M 411.959,260.669 C 399.902,260.669 390.092,250.858 390.092,238.802 390.092,226.745 399.903,216.941 411.959,216.941 424.015,216.941 433.819,226.751 433.819,238.802 433.819,250.858 424.016,260.669 411.959,260.669 Z M 455.949,172.951 C 468.006,172.951 477.809,182.762 477.809,194.812 477.809,206.874 467.999,216.679 455.949,216.679 443.892,216.679 434.083,206.868 434.083,194.812 434.083,182.755 443.887,172.951 455.949,172.951 Z M 434.083,282.787 C 434.083,270.73 443.893,260.926 455.949,260.926 468.005,260.926 477.809,270.737 477.809,282.787 477.809,294.85 467.999,304.654 455.949,304.654 443.887,304.653 434.083,294.85 434.083,282.787 Z M 462.663,372.935 C 452.828,372.935 444.829,364.93 444.829,355.095 444.829,345.266 452.828,337.261 462.663,337.261 472.498,337.261 480.497,345.266 480.497,355.095 480.497,364.93 472.498,372.935 462.663,372.935 Z M 507.431,338.901 C 497.596,338.901 489.597,330.896 489.597,321.067 489.597,311.239 497.596,303.233 507.431,303.233 517.266,303.233 525.265,311.239 525.265,321.067 525.265,330.896 517.266,338.901 507.431,338.901 Z M 499.934,260.669 C 487.877,260.669 478.068,250.858 478.068,238.802 478.068,226.745 487.878,216.941 499.934,216.941 511.99,216.941 521.795,226.751 521.795,238.802 521.795,250.858 511.99,260.669 499.934,260.669 Z"
   id="path42"
   style="fill:#363432;fill-opacity:1;" />
<ellipse
   style="fill:#66b64b;fill-opacity:1;stroke:#000000;stroke-width:0;stroke-linecap:round;stroke-linejoin:round"
   id="path851"
   cx="457.03061"
   cy="282.7442"
   rx="23.199524"
   ry="23.489517" /><ellipse
   style="fill:#DCA73F;fill-opacity:1;stroke:#000000;stroke-width:0;stroke-linecap:round;stroke-linejoin:round"
   id="ellipse853"
   cx="456.9707"
   cy="195.166"
   rx="23.199524"
   ry="23.489517" /><ellipse
   style="fill:#3F8CB6;fill-opacity:1;stroke:#000000;stroke-width:0;stroke-linecap:round;stroke-linejoin:round"
   id="ellipse855"
   cx="412.8916"
   cy="239.2451"
   rx="23.199524"
   ry="23.489517" /><ellipse
   style="fill:#ba4f4e;fill-opacity:1;stroke:#000000;stroke-width:0;stroke-linecap:round;stroke-linejoin:round"
   id="ellipse857"
   cx="500.78976"
   cy="239.82509"
   rx="23.199524"
   ry="23.489517" /><circle
   style="fill:#A4A49F;fill-opacity:1;stroke:#000000;stroke-width:0;stroke-linecap:round;stroke-linejoin:round"
   id="path859"
   cx="462.73065"
   cy="355.07263"
   r="17.399643" /><circle
   style="fill:#403D3C;fill-opacity:1;stroke:#000000;stroke-width:0;stroke-linecap:round;stroke-linejoin:round"
   id="circle861"
   cx="507.55063"
   cy="321.02356"
   r="17.399643" /><circle
   style="fill:#403d3c;fill-opacity:1;stroke:#000000;stroke-width:0;stroke-linecap:round;stroke-linejoin:round"
   id="circle863"
   cx="101.71508"
   cy="335.95807"
   r="13.862077" /><circle
   style="fill:#403d3c;fill-opacity:1;stroke:#000000;stroke-width:0;stroke-linecap:round;stroke-linejoin:round"
   id="circle865"
   cx="70.239983"
   cy="300.56198"
   r="13.64098" /></svg>
